<svg width="59" height="57" viewBox="0 0 59 57" fill="none" xmlns="http://www.w3.org/2000/svg">
<g filter="url(#filter0_d_14_329)">
<path d="M52.8409 43.0969C52.8156 43.9726 52.6097 44.8345 52.2353 45.6313C51.8609 46.4281 51.3258 47.1436 50.6616 47.7354C49.9975 48.3271 49.2178 48.7831 48.369 49.0762C47.5202 49.3692 46.6195 49.4934 45.7204 49.4414C40.1028 49.4719 34.4825 49.4414 28.8649 49.4414C28.5189 49.4414 28.1871 49.3077 27.9424 49.0698C27.6978 48.8318 27.5603 48.5091 27.5603 48.1725C27.5603 47.836 27.6978 47.5132 27.9424 47.2753C28.1871 47.0373 28.5189 46.9036 28.8649 46.9036C34.6052 46.9036 40.3454 46.9848 46.0857 46.9036C48.9741 46.863 50.2317 44.7516 50.2317 42.2391V10.6079C50.2515 9.80921 50.02 9.02371 49.5681 8.35655C49.1163 7.68938 48.4657 7.17239 47.7034 6.87477C46.8025 6.63587 45.8652 6.55424 44.935 6.63368H28.8649C28.5189 6.63368 28.1871 6.49999 27.9424 6.26203C27.6978 6.02406 27.5603 5.70131 27.5603 5.36478C27.5603 5.02824 27.6978 4.70549 27.9424 4.46753C28.1871 4.22956 28.5189 4.09587 28.8649 4.09587C34.6704 4.09587 40.515 3.88016 46.3153 4.09587C47.2033 4.11737 48.0779 4.31051 48.8884 4.66402C49.6988 5.01754 50.4289 5.52437 51.036 6.155C51.643 6.78563 52.1151 7.52744 52.4245 8.33724C52.7339 9.14704 52.8746 10.0086 52.8383 10.8718L52.8409 43.0969Z" fill="#07DCFD" stroke="#0E515B" stroke-opacity="0.8" stroke-width="3"/>
<path d="M39.4031 27.672C39.6233 27.4629 39.7522 27.1794 39.7632 26.8802C39.771 26.8451 39.7762 26.8095 39.7788 26.7736C39.7762 26.7386 39.7709 26.7039 39.7632 26.6696C39.754 26.3693 39.6248 26.0844 39.4031 25.8753L29.8299 16.5666C29.5839 16.3354 29.2543 16.2075 28.9123 16.2104C28.5702 16.2133 28.243 16.3468 28.0011 16.582C27.7592 16.8173 27.622 17.1356 27.619 17.4683C27.6161 17.801 27.7476 18.1215 27.9852 18.3608L35.3327 25.5047H7.30461C6.9586 25.5047 6.62677 25.6384 6.38211 25.8764C6.13745 26.1144 6 26.4371 6 26.7736C6 27.1102 6.13745 27.4329 6.38211 27.6709C6.62677 27.9089 6.9586 28.0426 7.30461 28.0426H35.3327L27.9852 35.1865C27.7476 35.4258 27.6161 35.7463 27.619 36.079C27.622 36.4117 27.7592 36.73 28.0011 36.9653C28.243 37.2005 28.5702 37.334 28.9123 37.3369C29.2543 37.3397 29.5839 37.2118 29.8299 36.9807L39.4031 27.672Z" fill="#07DCFD" stroke="#0E515B" stroke-opacity="0.8" stroke-width="3"/>
</g>
<defs>
<filter id="filter0_d_14_329" x="0.8" y="0.800244" width="57.244" height="55.8547" filterUnits="userSpaceOnUse" color-interpolation-filters="sRGB">
<feFlood flood-opacity="0" result="BackgroundImageFix"/>
<feColorMatrix in="SourceAlpha" type="matrix" values="0 0 0 0 0 0 0 0 0 0 0 0 0 0 0 0 0 0 127 0" result="hardAlpha"/>
<feOffset dy="2"/>
<feGaussianBlur stdDeviation="1.85"/>
<feComposite in2="hardAlpha" operator="out"/>
<feColorMatrix type="matrix" values="0 0 0 0 0 0 0 0 0 0 0 0 0 0 0 0 0 0 0.25 0"/>
<feBlend mode="normal" in2="BackgroundImageFix" result="effect1_dropShadow_14_329"/>
<feBlend mode="normal" in="SourceGraphic" in2="effect1_dropShadow_14_329" result="shape"/>
</filter>
</defs>
</svg>
