<svg width="755" height="592" viewBox="0 0 755 592" fill="none" xmlns="http://www.w3.org/2000/svg">
<path d="M755 522.975H0V523.354H755V522.975Z" fill="#EBEBEB"/>
<path d="M357.87 455.402H66.3038C64.0197 455.398 61.8305 454.485 60.2168 452.863C58.6031 451.241 57.6968 449.043 57.6968 446.751V35.5133C57.7167 33.2347 58.6318 31.0559 60.2433 29.4503C61.8549 27.8447 64.0327 26.9419 66.3038 26.938H357.87C360.156 26.938 362.349 27.8494 363.966 29.4718C365.583 31.0942 366.492 33.2947 366.492 35.5891V446.751C366.492 449.046 365.583 451.246 363.966 452.869C362.349 454.491 360.156 455.402 357.87 455.402ZM66.3038 27.241C64.1198 27.245 62.0266 28.1183 60.4837 29.6693C58.9408 31.2202 58.0743 33.322 58.0743 35.5133V446.751C58.0743 448.943 58.9408 451.045 60.4837 452.595C62.0266 454.146 64.1198 455.02 66.3038 455.024H357.87C360.055 455.02 362.15 454.147 363.695 452.596C365.24 451.046 366.11 448.944 366.114 446.751V35.5133C366.11 33.3206 365.24 31.2188 363.695 29.6683C362.15 28.1178 360.055 27.245 357.87 27.241H66.3038Z" fill="#EBEBEB"/>
<path d="M684.498 455.402H392.917C390.632 455.398 388.441 454.486 386.825 452.864C385.209 451.243 384.299 449.045 384.295 446.751V35.5133C384.319 33.2333 385.237 31.0546 386.851 29.4494C388.465 27.8442 390.645 26.9418 392.917 26.938H684.498C686.766 26.9459 688.94 27.8504 690.549 29.4556C692.157 31.0608 693.07 33.2373 693.09 35.5133V446.751C693.09 449.041 692.186 451.236 690.575 452.858C688.965 454.479 686.779 455.394 684.498 455.402ZM392.917 27.241C390.732 27.245 388.637 28.1178 387.092 29.6683C385.546 31.2188 384.676 33.3206 384.672 35.5133V446.751C384.676 448.944 385.546 451.046 387.092 452.596C388.637 454.147 390.732 455.02 392.917 455.024H684.498C686.683 455.02 688.778 454.147 690.323 452.596C691.869 451.046 692.739 448.944 692.743 446.751V35.5133C692.739 33.3206 691.869 31.2188 690.323 29.6683C688.778 28.1178 686.683 27.245 684.498 27.241H392.917Z" fill="#EBEBEB"/>
<path d="M679.349 537.399H631.678V537.777H679.349V537.399Z" fill="#EBEBEB"/>
<path d="M506.363 533.293H455.914V533.672H506.363V533.293Z" fill="#EBEBEB"/>
<path d="M693.12 551.474H598.851V551.852H693.12V551.474Z" fill="#EBEBEB"/>
<path d="M108.252 548.928H79.2148V549.307H108.252V548.928Z" fill="#EBEBEB"/>
<path d="M167.444 548.928H121.706V549.307H167.444V548.928Z" fill="#EBEBEB"/>
<path d="M368.652 542.535H286.266V542.913H368.652V542.535Z" fill="#EBEBEB"/>
<path d="M411.113 122.585L325.073 208.93V496.477H627.058V122.585H411.113Z" fill="white"/>
<path d="M627.058 497.295H325.058C324.841 497.295 324.634 497.208 324.481 497.055C324.328 496.901 324.242 496.693 324.242 496.476V208.929C324.242 208.822 324.263 208.716 324.305 208.617C324.346 208.518 324.407 208.429 324.484 208.354L410.554 121.994C410.708 121.844 410.913 121.758 411.128 121.752H627.058C627.165 121.752 627.271 121.773 627.37 121.814C627.469 121.855 627.558 121.915 627.634 121.991C627.71 122.067 627.77 122.158 627.811 122.257C627.852 122.356 627.873 122.462 627.873 122.57V496.476C627.873 496.584 627.852 496.69 627.811 496.789C627.77 496.889 627.71 496.979 627.634 497.055C627.558 497.131 627.469 497.191 627.37 497.232C627.271 497.273 627.165 497.295 627.058 497.295ZM325.888 495.673H626.242V123.403H411.46L325.888 209.263V495.673Z" fill="#E0E0E0"/>
<path d="M325.073 208.93L415.356 220.611L411.113 122.585L325.073 208.93Z" fill="#E6E6E6"/>
<path d="M325.073 208.93H411.113V122.585L325.073 208.93Z" fill="white"/>
<path d="M411.113 209.732H325.043C324.882 209.733 324.724 209.686 324.59 209.597C324.455 209.508 324.35 209.381 324.288 209.232C324.225 209.085 324.209 208.922 324.241 208.765C324.274 208.608 324.353 208.464 324.469 208.354L410.539 121.994C410.655 121.882 410.8 121.805 410.958 121.773C411.116 121.741 411.279 121.754 411.43 121.812C411.577 121.877 411.702 121.983 411.791 122.117C411.879 122.252 411.927 122.409 411.928 122.57V208.929C411.924 209.144 411.836 209.348 411.684 209.498C411.531 209.648 411.326 209.732 411.113 209.732ZM327.036 208.111H410.312V124.555L327.036 208.111Z" fill="#E0E0E0"/>
<path d="M493.528 333.272L544.868 281.759C546.015 280.608 546.925 279.242 547.546 277.738C548.167 276.234 548.486 274.622 548.486 272.995C548.486 271.367 548.167 269.755 547.546 268.251C546.925 266.747 546.015 265.381 544.868 264.23C543.721 263.079 542.359 262.166 540.86 261.543C539.361 260.92 537.755 260.599 536.133 260.599C534.51 260.599 532.904 260.92 531.405 261.543C529.906 262.166 528.545 263.079 527.397 264.23L476.057 315.743L424.717 264.23C422.401 261.905 419.258 260.599 415.982 260.599C412.706 260.599 409.563 261.905 407.247 264.23C404.93 266.554 403.628 269.707 403.628 272.995C403.628 276.282 404.93 279.435 407.247 281.759L458.587 333.272L407.247 384.785C404.93 387.109 403.628 390.262 403.628 393.549C403.628 396.837 404.93 399.99 407.247 402.314C409.563 404.639 412.706 405.945 415.982 405.945C419.258 405.945 422.401 404.639 424.717 402.314L476.057 350.802L527.397 402.314C529.714 404.639 532.856 405.945 536.133 405.945C539.409 405.945 542.551 404.639 544.868 402.314C547.185 399.99 548.486 396.837 548.486 393.549C548.486 390.262 547.185 387.109 544.868 384.785L493.528 333.272Z" fill="#F0F0F0"/>
<path d="M336.73 290.562C333.833 293.465 329.907 295.096 325.812 295.096C321.718 295.096 317.792 293.465 314.895 290.562L265.352 240.837L287.187 218.929L336.73 268.714C339.605 271.618 341.218 275.545 341.218 279.638C341.218 283.731 339.605 287.658 336.73 290.562Z" fill="#F0F0F0"/>
<path d="M265.345 240.934L287.18 219.025L289.198 221.05C291.291 223.15 292.467 225.997 292.467 228.967C292.467 231.936 291.291 234.784 289.198 236.884L283.144 242.958C281.052 245.058 278.213 246.238 275.254 246.238C272.294 246.238 269.456 245.058 267.363 242.958L265.345 240.934Z" fill="#E0E0E0"/>
<path d="M127.912 81.0416C112.929 96.0899 102.729 115.257 98.6014 136.121C94.4735 156.985 96.603 178.608 104.721 198.258C112.838 217.907 126.58 234.701 144.208 246.516C161.836 258.331 182.56 264.638 203.759 264.638C224.959 264.638 245.683 258.331 263.311 246.516C280.939 234.701 294.68 217.907 302.798 198.258C310.916 178.608 313.045 156.985 308.917 136.121C304.789 115.257 294.589 96.0899 279.607 81.0416C269.65 71.0412 257.826 63.1078 244.812 57.6951C231.798 52.2823 217.848 49.4963 203.759 49.4963C189.671 49.4963 175.721 52.2823 162.707 57.6951C149.692 63.1078 137.869 71.0412 127.912 81.0416ZM273.416 227.035C259.641 240.856 242.09 250.268 222.983 254.081C203.877 257.895 184.072 255.937 166.075 248.457C148.077 240.977 132.694 228.31 121.871 212.058C111.048 195.805 105.271 176.698 105.271 157.152C105.271 137.605 111.048 118.498 121.871 102.246C132.694 85.9933 148.077 73.3262 166.075 65.846C184.072 58.3659 203.877 56.4086 222.983 60.2218C242.09 64.035 259.641 73.4473 273.416 87.2686C282.562 96.4457 289.818 107.341 294.768 119.331C299.718 131.322 302.266 144.173 302.266 157.152C302.266 170.13 299.718 182.982 294.768 194.972C289.818 206.963 282.562 217.858 273.416 227.035Z" fill="#E0E0E0"/>
<path d="M260.113 217.308C259.403 217.306 258.71 217.094 258.121 216.697C257.532 216.301 257.072 215.739 256.801 215.081C256.53 214.423 256.459 213.699 256.596 213.001C256.734 212.303 257.075 211.661 257.576 211.157C271.825 196.82 279.827 177.399 279.827 157.152C279.827 136.905 271.825 117.484 257.576 103.147C257.21 102.82 256.914 102.422 256.707 101.977C256.5 101.532 256.386 101.049 256.371 100.557C256.357 100.066 256.443 99.5773 256.623 99.1206C256.804 98.6639 257.076 98.2491 257.422 97.9016C257.769 97.5541 258.182 97.2813 258.637 97.1C259.092 96.9186 259.58 96.8326 260.069 96.847C260.559 96.8615 261.04 96.9762 261.484 97.1841C261.928 97.392 262.324 97.6887 262.65 98.056C278.244 113.74 287.002 134.99 287.002 157.144C287.002 179.298 278.244 200.548 262.65 216.232C262.318 216.57 261.923 216.839 261.488 217.024C261.053 217.208 260.585 217.305 260.113 217.308Z" fill="#E0E0E0"/>
<path d="M126.206 179.249C125.398 179.25 124.613 178.976 123.98 178.473C123.347 177.97 122.902 177.266 122.718 176.477C120.106 165.379 119.777 153.863 121.75 142.633C123.723 131.403 127.957 120.694 134.194 111.161C134.718 110.358 135.54 109.796 136.477 109.6C137.414 109.404 138.391 109.59 139.192 110.116C139.993 110.642 140.553 111.467 140.748 112.407C140.943 113.348 140.758 114.327 140.234 115.131C134.524 123.839 130.641 133.623 128.824 143.886C127.007 154.149 127.293 164.676 129.664 174.825C129.776 175.285 129.796 175.762 129.723 176.23C129.649 176.697 129.484 177.146 129.237 177.549C128.99 177.952 128.666 178.302 128.283 178.578C127.9 178.854 127.466 179.051 127.006 179.158C126.743 179.216 126.475 179.246 126.206 179.249Z" fill="#E0E0E0"/>
<path d="M147.406 217.308C146.454 217.305 145.542 216.924 144.87 216.247C138.401 209.782 133.044 202.287 129.015 194.066C128.806 193.643 128.683 193.182 128.653 192.71C128.622 192.239 128.684 191.766 128.836 191.319C128.987 190.871 129.225 190.458 129.535 190.103C129.846 189.748 130.223 189.457 130.645 189.248C131.068 189.04 131.527 188.916 131.997 188.885C132.467 188.855 132.938 188.917 133.384 189.069C133.83 189.221 134.242 189.459 134.596 189.771C134.95 190.082 135.239 190.461 135.447 190.885C139.141 198.392 144.038 205.24 149.943 211.157C150.614 211.832 150.991 212.748 150.991 213.702C150.991 214.656 150.614 215.571 149.943 216.247C149.268 216.92 148.358 217.301 147.406 217.308Z" fill="#E0E0E0"/>
<path d="M318.66 429.048L332.775 443.211L299.996 476.101C298.319 477.783 296.046 478.728 293.675 478.728C291.304 478.728 289.03 477.783 287.354 476.101L285.87 474.611C284.193 472.929 283.251 470.648 283.251 468.269C283.251 465.89 284.193 463.609 285.87 461.927L318.649 429.037L318.66 429.048Z" fill="#F0F0F0"/>
<path d="M318.681 429.078L332.775 443.22L332.102 443.895C330.582 445.42 328.519 446.278 326.369 446.278C324.218 446.278 322.156 445.421 320.635 443.895L317.987 441.238C316.466 439.712 315.612 437.643 315.612 435.485C315.612 433.327 316.466 431.258 317.987 429.732L318.66 429.057L318.681 429.078Z" fill="#E0E0E0"/>
<path d="M429.369 352.226L396.3 385.391C392.629 389.338 390.63 394.561 390.725 399.958C390.819 405.355 393 410.505 396.806 414.32C400.612 418.135 405.747 420.318 411.126 420.407C416.505 420.496 421.709 418.485 425.639 414.798L439.018 401.39C441.834 384.37 438.406 366.903 429.369 352.226Z" fill="#F0F0F0"/>
<path d="M441.826 384.224C440.879 370.49 435.893 357.345 427.5 346.454C419.107 335.562 407.684 327.413 394.674 323.036C381.665 318.66 367.654 318.252 354.414 321.866C341.174 325.48 329.299 332.952 320.292 343.337C311.285 353.723 305.549 366.556 303.811 380.212C302.073 393.869 304.411 407.736 310.528 420.059C316.645 432.382 326.268 442.609 338.178 449.445C350.088 456.281 363.751 459.419 377.439 458.463C395.788 457.181 412.878 448.641 424.952 434.719C437.026 420.798 443.095 402.635 441.826 384.224ZM309.082 393.496C308.207 380.887 311.079 368.301 317.334 357.329C323.588 346.357 332.946 337.493 344.222 331.857C355.497 326.221 368.186 324.067 380.682 325.667C393.178 327.267 404.921 332.549 414.425 340.846C423.929 349.142 430.768 360.08 434.076 372.276C437.384 384.472 437.014 397.379 433.011 409.364C429.009 421.349 421.554 431.874 411.589 439.607C401.625 447.341 389.599 451.936 377.032 452.812C360.182 453.986 343.557 448.396 330.815 437.273C318.072 426.149 310.254 410.403 309.082 393.496Z" fill="#E0E0E0"/>
<path d="M337.304 429.813C331.96 425.165 327.583 419.504 324.424 413.155C321.266 406.806 319.387 399.894 318.897 392.815C318.862 392.502 318.891 392.185 318.981 391.884C319.072 391.582 319.222 391.302 319.423 391.061C319.624 390.819 319.872 390.621 320.152 390.477C320.431 390.334 320.736 390.25 321.05 390.228C321.363 390.207 321.677 390.249 321.973 390.352C322.269 390.456 322.542 390.619 322.774 390.831C323.006 391.042 323.193 391.299 323.323 391.586C323.453 391.872 323.525 392.182 323.533 392.497C324.458 405.544 330.498 417.691 340.329 426.281C350.161 434.871 362.983 439.202 375.99 438.328C376.603 438.285 377.207 438.489 377.67 438.894C378.133 439.299 378.417 439.872 378.459 440.487C378.501 441.101 378.298 441.708 377.895 442.172C377.491 442.637 376.92 442.922 376.307 442.964C369.264 443.455 362.192 442.546 355.499 440.289C348.806 438.032 342.623 434.472 337.304 429.813Z" fill="#E0E0E0"/>
<path d="M420.746 376.922C420.402 376.622 420.155 376.227 420.037 375.785C418.219 369.301 415.102 363.256 410.878 358.02C406.654 352.784 401.411 348.467 395.469 345.332C394.949 345.032 394.565 344.542 394.397 343.965C394.228 343.387 394.289 342.767 394.566 342.233C394.842 341.699 395.314 341.293 395.882 341.1C396.45 340.907 397.07 340.941 397.613 341.196C404.117 344.627 409.856 349.353 414.48 355.083C419.104 360.814 422.515 367.43 424.506 374.528C424.589 374.822 424.612 375.13 424.576 375.434C424.539 375.737 424.443 376.031 424.293 376.297C424.142 376.563 423.941 376.797 423.701 376.985C423.46 377.173 423.185 377.311 422.891 377.391C422.522 377.493 422.134 377.504 421.761 377.422C421.387 377.34 421.039 377.169 420.746 376.922Z" fill="#E0E0E0"/>
<path d="M367.519 339.242C367.057 338.83 366.775 338.253 366.733 337.636C366.692 337.021 366.894 336.416 367.295 335.95C367.697 335.485 368.266 335.197 368.878 335.151C374.767 334.74 380.684 335.298 386.394 336.802C386.691 336.881 386.97 337.017 387.215 337.204C387.46 337.391 387.666 337.625 387.82 337.891C387.975 338.158 388.077 338.452 388.118 338.758C388.159 339.064 388.14 339.375 388.062 339.673C387.984 339.972 387.848 340.252 387.661 340.498C387.475 340.743 387.243 340.95 386.977 341.105C386.711 341.261 386.418 341.362 386.113 341.404C385.808 341.445 385.498 341.426 385.201 341.348C379.99 339.964 374.587 339.452 369.21 339.832C368.591 339.863 367.984 339.651 367.519 339.242Z" fill="#E0E0E0"/>
<path d="M377.499 591.396C539.194 591.396 670.273 583.717 670.273 574.245C670.273 564.773 539.194 557.095 377.499 557.095C215.805 557.095 84.7256 564.773 84.7256 574.245C84.7256 583.717 215.805 591.396 377.499 591.396Z" fill="#F5F5F5"/>
<path d="M208.108 164.629C195.937 176.916 216.624 195.991 202.958 204.748C214.117 210.369 253.226 217.505 263.358 195.4C255.975 189.643 261.109 175.492 254.298 161.901C244.106 141.751 195.937 150.675 208.108 164.629Z" fill="#263238"/>
<path d="M209.21 164.31C205.42 163.674 192.6 170.068 202.143 187.234C209.829 201.112 203.427 202.097 203.427 202.097C203.427 202.097 210.977 202.309 206.447 191.991C201.645 180.976 199.395 169.553 209.21 164.31Z" fill="#263238"/>
<path d="M298.98 273.305C298.513 272.448 297.73 271.808 296.798 271.525C295.866 271.242 294.86 271.337 293.997 271.79L293.106 272.26C292.82 272.411 292.276 272.775 291.838 273.033C291.4 273.29 290.887 273.578 290.404 273.82C289.451 274.301 288.467 274.716 287.459 275.063C285.593 275.741 283.63 276.115 281.646 276.169C279.823 276.19 278.01 275.898 276.285 275.305C275.189 274.897 274.133 274.39 273.129 273.79C271.831 270.911 270.592 268.002 269.535 265.003C268.252 261.503 267.119 257.927 266.123 254.306C265.126 250.685 264.25 247.019 263.526 243.337C263.148 241.504 262.816 239.655 262.514 237.822L262.106 235.08C261.97 234.201 261.849 233.201 261.774 232.504V232.201C261.574 230.192 260.586 228.345 259.029 227.066C257.471 225.788 255.471 225.182 253.469 225.383C251.467 225.584 249.626 226.575 248.351 228.138C247.077 229.7 246.474 231.707 246.674 233.716C246.78 235.004 246.87 235.989 247.006 237.065C247.142 238.14 247.293 239.171 247.444 240.216C247.776 242.307 248.154 244.367 248.577 246.428C249.416 250.522 250.474 254.568 251.748 258.548C252.336 260.548 253.061 262.518 253.741 264.503C254.42 266.487 255.251 268.427 256.111 270.351C257.759 274.239 259.63 278.028 261.714 281.699L261.895 282.032C262.437 283.018 263.249 283.828 264.235 284.365C267.089 285.926 270.173 287.021 273.371 287.608C276.654 288.19 280.02 288.118 283.276 287.395C287.872 286.326 292.094 284.027 295.492 280.744C296.051 280.229 296.579 279.699 297.002 279.138C297.425 278.578 297.938 278.047 298.512 277.26C298.955 276.712 299.234 276.05 299.317 275.35C299.4 274.65 299.283 273.941 298.98 273.305Z" fill="#FF8B7B"/>
<path d="M309.021 259.124H308.584C307.138 259.093 305.705 259.397 304.396 260.012C303.086 260.627 301.936 261.536 301.034 262.669L293.74 271.851V278.123C299.599 280.457 307.028 274.169 307.028 274.169L310.788 273.214C312.054 272.898 313.157 272.121 313.885 271.035C314.613 269.95 314.914 268.631 314.729 267.336L314.186 263.654C314.008 262.404 313.39 261.259 312.442 260.427C311.494 259.596 310.28 259.133 309.021 259.124Z" fill="#FF8B7B"/>
<path d="M261.577 223.717C266.454 228.747 266.756 243.761 266.756 243.761L247.247 259.518C247.247 259.518 239.229 237.246 243.669 229.383C247.428 222.717 255.356 217.308 261.577 223.717Z" fill="#0E515B"/>
<g opacity="0.2">
<path d="M261.577 223.717C266.454 228.747 266.756 243.761 266.756 243.761L247.247 259.518C247.247 259.518 239.229 237.246 243.669 229.383C247.428 222.717 255.356 217.308 261.577 223.717Z" fill="white"/>
</g>
<path d="M229.293 561.261L240.074 562.443L241.554 533.05L230.773 531.854L229.293 561.261Z" fill="#FF8B7B"/>
<path d="M241.842 555.383H229.173C228.917 555.374 228.669 555.466 228.48 555.639C228.291 555.811 228.177 556.051 228.161 556.307L227.315 568.322C227.315 568.95 227.56 569.554 227.997 570.004C228.434 570.454 229.03 570.715 229.656 570.731C235.001 570.731 235.062 570.731 241.736 570.731H259.72C265.247 570.731 265.262 565.11 262.876 564.595C252.14 562.322 247.957 559.171 244.167 556.171C243.501 555.656 242.683 555.378 241.842 555.383Z" fill="#263238"/>
<path opacity="0.2" d="M241.554 533.066L240.784 548.216H229.942L230.773 531.869L241.554 533.066Z" fill="black"/>
<path d="M247.368 298.546C247.368 298.546 256.7 376.922 256.7 411.768C249.346 460.251 243.11 545.338 243.11 545.338L228.191 544.944C228.191 544.944 221.411 452.282 227.693 412.268C219.644 376.422 209.708 293.698 209.708 293.698L247.368 298.546Z" fill="#263238"/>
<path opacity="0.2" d="M218.603 320.364C216.825 321.149 215.099 322.049 213.438 323.06C215.492 338.529 218.195 357.998 221.064 375.967C225.956 361.18 223.314 328.666 218.603 320.364Z" fill="black"/>
<path d="M112.54 533.975L121.434 540.202L136.776 515.112L127.882 508.885L112.54 533.975Z" fill="#FF8B7B"/>
<path d="M123.684 536.914L116.134 526.718C115.99 526.509 115.77 526.365 115.522 526.316C115.274 526.268 115.016 526.32 114.805 526.46L104.688 532.975C104.183 533.347 103.845 533.904 103.746 534.525C103.647 535.146 103.796 535.781 104.16 536.293C107.316 540.611 107.376 540.641 111.347 546.005C113.809 549.292 118.716 555.913 122.098 560.474C125.481 565.034 129.905 561.58 128.878 559.337C124.348 549.353 124.348 544.186 124.439 539.278C124.454 538.428 124.189 537.597 123.684 536.914Z" fill="#263238"/>
<path opacity="0.2" d="M136.761 515.112L128.864 528.051L119.335 522.839L127.882 508.885L136.761 515.112Z" fill="black"/>
<path d="M167.096 544.489C159.38 544.489 143.314 544.489 143.042 533.096C142.831 524.157 153.854 520.445 163.367 519.99C164.421 519.939 165.474 520.097 166.467 520.455C167.461 520.813 168.374 521.363 169.155 522.075C169.936 522.787 170.57 523.647 171.02 524.604C171.469 525.562 171.727 526.599 171.777 527.657V528.263C182.559 527.748 189.535 525.384 192.087 521.354C197.84 512.264 186.817 488.795 176.171 466.114C163.638 439.434 149.444 409.208 149.173 380.255C149.163 379.196 149.361 378.146 149.755 377.164C150.15 376.183 150.733 375.288 151.472 374.533C152.211 373.777 153.091 373.175 154.062 372.761C155.033 372.347 156.075 372.129 157.13 372.119C159.247 372.123 161.276 372.963 162.78 374.457C164.283 375.951 165.14 377.98 165.164 380.103C165.405 405.526 178.754 434.055 190.622 459.236C204.212 488.295 216.066 513.4 205.571 529.99C199.486 539.747 186.877 544.489 167.096 544.489Z" fill="#0E515B"/>
<path d="M235.424 297.001C235.424 297.001 209.663 386.573 197.085 419.056C172.714 461.569 132.276 526.627 132.276 526.627L119.365 519.051C119.365 519.051 149.565 443.903 169.875 408.905C175.326 372.543 195.937 291.85 195.937 291.85L235.424 297.001Z" fill="#263238"/>
<path d="M126.01 544.232C126.522 545.083 127.312 545.73 128.245 546.065C128.518 546.131 128.804 546.119 129.071 546.031C129.337 545.942 129.574 545.781 129.755 545.565C129.88 545.449 129.976 545.305 130.034 545.144C130.092 544.983 130.11 544.81 130.087 544.641C129.906 542.823 125.225 540.459 124.288 540.005C124.234 539.982 124.173 539.981 124.117 540C124.062 540.02 124.015 540.059 123.986 540.111C123.95 540.167 123.931 540.233 123.931 540.3C123.931 540.367 123.95 540.433 123.986 540.49C124.541 541.799 125.218 543.052 126.01 544.232ZM129.226 544.232C129.359 544.399 129.447 544.597 129.483 544.808C129.49 544.866 129.483 544.926 129.462 544.982C129.441 545.037 129.407 545.087 129.362 545.126C129.24 545.265 129.084 545.369 128.909 545.428C128.734 545.486 128.546 545.497 128.365 545.459C127.369 545.262 126.055 543.641 124.787 541.08C126.431 541.849 127.933 542.895 129.226 544.171V544.232Z" fill="#0E515B"/>
<path d="M123.911 540.55L124.001 540.626C125.511 541.459 129.437 542.141 130.298 540.883C130.442 540.654 130.513 540.385 130.499 540.114C130.486 539.843 130.389 539.582 130.222 539.368C128.712 536.687 124.182 539.838 123.986 539.974C123.941 540.01 123.905 540.057 123.882 540.109C123.858 540.162 123.847 540.22 123.85 540.277C123.844 540.372 123.865 540.467 123.911 540.55ZM129.649 539.671C129.693 539.724 129.733 539.78 129.769 539.838C129.935 540.126 129.966 540.338 129.875 540.459C129.377 541.186 126.478 540.929 124.786 540.262C125.919 539.58 128.561 538.202 129.649 539.671Z" fill="#0E515B"/>
<path d="M249.15 557.883C250.139 557.973 251.13 557.722 251.958 557.171C252.168 556.986 252.323 556.747 252.406 556.479C252.488 556.212 252.496 555.927 252.426 555.656C252.405 555.484 252.345 555.32 252.251 555.176C252.156 555.032 252.031 554.911 251.883 554.822C250.373 553.898 245.647 556.246 244.725 556.731C244.674 556.76 244.633 556.806 244.611 556.861C244.589 556.916 244.587 556.977 244.605 557.034C244.628 557.098 244.666 557.154 244.716 557.199C244.766 557.244 244.826 557.276 244.892 557.292C246.287 557.634 247.714 557.832 249.15 557.883ZM251.022 555.262C251.237 555.248 251.452 555.295 251.641 555.398C251.717 555.398 251.792 555.504 251.822 555.686C251.862 555.867 251.852 556.056 251.793 556.232C251.735 556.408 251.63 556.565 251.49 556.686C250.75 557.368 248.667 557.458 245.858 556.958C247.445 556.105 249.166 555.531 250.947 555.262H251.022Z" fill="#0E515B"/>
<path d="M244.892 557.367H244.997C246.507 556.671 249.452 553.898 248.969 552.459C248.868 552.221 248.7 552.018 248.485 551.875C248.27 551.732 248.018 551.656 247.761 551.656C244.741 551.307 244.529 556.792 244.514 557.019C244.515 557.079 244.53 557.139 244.559 557.192C244.588 557.244 244.63 557.289 244.68 557.322C244.744 557.358 244.818 557.374 244.892 557.367ZM247.61 552.216H247.821C248.138 552.216 248.334 552.353 248.38 552.504C248.667 553.337 246.734 555.534 245.179 556.489C245.314 555.171 245.798 552.216 247.64 552.216H247.61Z" fill="#0E515B"/>
<path d="M195.938 291.926L247.368 298.531C258.965 259.351 262.785 240.428 263.812 231.322C264.084 229.034 263.551 226.722 262.304 224.785C261.058 222.849 259.178 221.41 256.987 220.717C253.967 219.747 250.071 218.596 246.205 217.687C244.892 217.338 243.548 217.02 242.234 216.717C234.535 215.15 226.733 214.137 218.89 213.687C217.727 213.581 216.579 213.52 215.417 213.46C213.136 213.338 210.887 213.308 208.833 213.308C207.292 213.306 205.767 213.627 204.356 214.249C202.944 214.871 201.678 215.781 200.637 216.921C199.595 218.061 198.802 219.407 198.308 220.871C197.813 222.336 197.628 223.888 197.765 225.429C198.172 229.974 198.489 234.201 198.731 238.08C199.305 247.17 199.486 254.443 199.35 260.806C199.041 271.254 197.9 281.66 195.938 291.926Z" fill="#0E515B"/>
<g opacity="0.3">
<path d="M195.938 291.926L247.368 298.531C258.965 259.351 262.785 240.428 263.812 231.322C264.084 229.034 263.551 226.722 262.304 224.785C261.058 222.849 259.178 221.41 256.987 220.717C253.967 219.747 250.071 218.596 246.205 217.687C244.892 217.338 243.548 217.02 242.234 216.717C234.535 215.15 226.733 214.137 218.89 213.687C217.727 213.581 216.579 213.52 215.417 213.46C213.136 213.338 210.887 213.308 208.833 213.308C207.292 213.306 205.767 213.627 204.356 214.249C202.944 214.871 201.678 215.781 200.637 216.921C199.595 218.061 198.802 219.407 198.308 220.871C197.813 222.336 197.628 223.888 197.765 225.429C198.172 229.974 198.489 234.201 198.731 238.08C199.305 247.17 199.486 254.443 199.35 260.806C199.041 271.254 197.9 281.66 195.938 291.926Z" fill="white"/>
</g>
<path opacity="0.3" d="M199.32 260.745C206.115 251.927 208.576 241.837 206.371 236.277L198.701 238.004C199.32 247.064 199.486 254.367 199.32 260.745Z" fill="#0E515B"/>
<path d="M246.205 217.596C244.877 217.247 243.548 216.929 242.234 216.626C234.528 215.066 226.722 214.053 218.874 213.596C217.712 213.505 216.564 213.444 215.417 213.384L213.408 213.293L214.918 215.944C215.13 216.308 220.264 224.732 233.038 233.792L235.771 235.701L238.399 233.686C240.929 231.865 242.996 229.472 244.434 226.7C245.871 223.928 246.639 220.856 246.674 217.732L246.205 217.596Z" fill="white"/>
<path d="M224.552 198.021C224.069 204.399 222.574 210.899 218.875 213.626C218.875 213.626 223.586 221.489 235.787 230.08C243.427 224.217 242.234 216.626 242.234 216.626C234.11 213.596 234.684 207.945 238.112 198.93L231.77 195.506C231.223 194.901 230.51 194.471 229.721 194.269C228.932 194.067 228.102 194.102 227.333 194.37C226.563 194.638 225.89 195.127 225.395 195.776C224.901 196.425 224.608 197.206 224.552 198.021Z" fill="#FF8B7B"/>
<path opacity="0.2" d="M231.77 195.506C231.256 194.936 230.595 194.52 229.86 194.304C229.126 194.088 228.346 194.079 227.606 194.28C226.867 194.481 226.198 194.883 225.672 195.441C225.146 196 224.785 196.693 224.627 197.445C227.037 202.319 230.922 206.302 235.726 208.823C235.898 205.407 236.702 202.052 238.097 198.93L231.77 195.506Z" fill="black"/>
<path d="M214.676 178.022C217.832 190.34 218.904 195.612 226.409 200.748C237.689 208.536 252.079 201.96 252.638 188.961C253.166 177.249 247.927 159.068 234.82 156.462C231.926 155.869 228.93 156.029 226.115 156.927C223.301 157.826 220.763 159.432 218.743 161.594C216.723 163.756 215.289 166.401 214.577 169.276C213.865 172.152 213.899 175.163 214.676 178.022Z" fill="#FF8B7B"/>
<path d="M245.918 159.008C238.525 165.602 229.753 170.453 220.248 173.204C220.248 173.204 229.625 193.218 212.079 188.173C206.99 171.128 212.079 162.28 216.609 158.114C230.562 153.569 240.377 152.054 245.918 159.008Z" fill="#263238"/>
<path d="M214.088 190.158C215.117 192.389 216.984 194.122 219.282 194.976C222.302 196.067 224.099 193.461 223.45 190.43C222.861 187.718 220.566 183.87 217.41 184.067C216.727 184.126 216.07 184.353 215.496 184.728C214.922 185.103 214.45 185.615 214.121 186.218C213.792 186.821 213.617 187.496 213.611 188.184C213.605 188.871 213.769 189.549 214.088 190.158Z" fill="#FF8B7B"/>
<path d="M195.559 288.805L192.645 293.123C192.419 293.456 192.796 293.88 193.385 293.956L247.322 300.895C247.79 300.895 248.198 300.774 248.274 300.486L249.331 295.941C249.331 295.623 249.029 295.304 248.53 295.229L196.435 288.532C196.278 288.495 196.114 288.501 195.96 288.549C195.806 288.597 195.668 288.685 195.559 288.805Z" fill="#0E515B"/>
<path d="M201.796 295.547L200.407 295.365C200.135 295.365 199.939 295.153 199.984 294.986L201.403 289.062C201.457 288.962 201.544 288.884 201.648 288.84C201.752 288.796 201.868 288.789 201.977 288.82L203.382 289.002C203.653 289.002 203.85 289.199 203.804 289.38L202.385 295.289C202.34 295.471 202.083 295.577 201.796 295.547Z" fill="#263238"/>
<path d="M243.336 300.88L241.947 300.713C241.675 300.713 241.479 300.501 241.524 300.319L242.943 294.41C242.943 294.244 243.246 294.123 243.517 294.153L244.922 294.335C245.193 294.335 245.39 294.547 245.344 294.713L243.925 300.637C243.88 300.804 243.623 300.925 243.336 300.88Z" fill="#263238"/>
<path d="M222.574 298.213L221.185 298.031C220.898 298.031 220.701 297.834 220.747 297.652L222.166 291.744C222.166 291.562 222.468 291.456 222.755 291.486L224.144 291.668C224.416 291.668 224.612 291.88 224.582 292.047L223.148 297.971C223.117 298.137 222.846 298.243 222.574 298.213Z" fill="#263238"/>
<path d="M235.711 177.492C235.892 178.507 236.587 179.234 237.221 179.097C237.855 178.961 238.263 178.052 238.067 177.037C237.87 176.022 237.176 175.295 236.557 175.431C235.937 175.567 235.56 176.476 235.711 177.492Z" fill="#263238"/>
<path d="M247.126 175.295C247.323 176.31 248.017 177.022 248.636 176.901C249.255 176.779 249.678 175.84 249.482 174.825C249.286 173.81 248.591 173.098 247.972 173.219C247.353 173.34 246.945 174.28 247.126 175.295Z" fill="#263238"/>
<path d="M247.64 173.34L249.935 172.159C249.935 172.159 249.15 174.31 247.64 173.34Z" fill="#263238"/>
<path d="M244.106 177.567C245.456 179.702 247.086 181.643 248.954 183.34C248.511 183.812 247.971 184.18 247.37 184.418C246.77 184.656 246.125 184.759 245.481 184.719L244.106 177.567Z" fill="#FF5652"/>
<path d="M236.98 188.809C236.934 188.862 236.908 188.929 236.906 188.999C236.904 189.069 236.927 189.138 236.969 189.193C237.012 189.248 237.073 189.287 237.14 189.303C237.208 189.318 237.28 189.31 237.342 189.279C238.483 188.695 239.746 188.391 241.026 188.391C242.307 188.391 243.57 188.695 244.711 189.279C244.779 189.318 244.86 189.329 244.936 189.309C245.012 189.289 245.078 189.241 245.119 189.173C245.16 189.104 245.173 189.022 245.157 188.943C245.14 188.864 245.094 188.795 245.028 188.749C243.797 188.116 242.433 187.786 241.049 187.786C239.666 187.786 238.302 188.116 237.07 188.749C237.07 188.749 237.07 188.779 236.98 188.809Z" fill="#263238"/>
<path d="M231.77 174.37C231.863 174.313 231.937 174.228 231.981 174.128C232.296 173.437 232.769 172.832 233.363 172.36C233.956 171.889 234.652 171.565 235.394 171.416C235.474 171.407 235.55 171.382 235.62 171.342C235.69 171.303 235.751 171.25 235.8 171.186C235.85 171.123 235.886 171.05 235.907 170.972C235.928 170.895 235.933 170.814 235.922 170.734C235.915 170.655 235.892 170.578 235.854 170.508C235.816 170.438 235.765 170.377 235.703 170.327C235.641 170.278 235.569 170.241 235.493 170.22C235.417 170.199 235.337 170.193 235.258 170.204C234.314 170.381 233.426 170.781 232.667 171.371C231.908 171.961 231.3 172.725 230.894 173.598C230.836 173.717 230.818 173.853 230.844 173.983C230.869 174.114 230.937 174.233 231.037 174.321C231.137 174.408 231.263 174.461 231.395 174.47C231.528 174.479 231.659 174.444 231.77 174.37Z" fill="#263238"/>
<path d="M250.524 166.689L250.599 166.613C250.645 166.548 250.678 166.474 250.695 166.395C250.713 166.317 250.714 166.236 250.7 166.157C250.686 166.078 250.657 166.003 250.613 165.936C250.57 165.868 250.514 165.81 250.448 165.765C249.668 165.202 248.765 164.834 247.814 164.692C246.863 164.549 245.892 164.637 244.982 164.947C244.837 165.01 244.721 165.127 244.659 165.274C244.597 165.421 244.594 165.585 244.65 165.734C244.71 165.883 244.827 166.001 244.974 166.064C245.121 166.126 245.287 166.128 245.435 166.068C246.158 165.83 246.927 165.769 247.679 165.89C248.43 166.012 249.141 166.311 249.754 166.765C249.87 166.847 250.011 166.885 250.153 166.872C250.294 166.858 250.426 166.793 250.524 166.689Z" fill="#263238"/>
<path d="M236.27 175.537L238.565 174.371C238.565 174.371 237.674 176.507 236.27 175.537Z" fill="#263238"/>
<path d="M157.206 388.239C155.088 388.239 153.056 387.4 151.552 385.905C150.048 384.41 149.192 382.379 149.173 380.255C148.961 358.741 156.103 340.575 169.829 327.727C186.726 311.909 213.076 304.561 244.061 307.016C265.79 308.743 279.727 303.44 295.854 297.274C298.512 296.274 301.184 295.244 303.932 294.244C305.935 293.512 308.145 293.609 310.076 294.513C312.007 295.416 313.502 297.052 314.231 299.062C314.96 301.071 314.863 303.288 313.963 305.226C313.062 307.164 311.431 308.663 309.429 309.394C306.756 310.364 304.159 311.364 301.577 312.349C285.133 318.621 268.145 325.091 242.793 323.091C216.368 320.985 194.352 326.818 180.792 339.514C170.222 349.332 165.073 362.983 165.239 380.103C165.249 381.162 165.051 382.212 164.656 383.193C164.262 384.175 163.679 385.069 162.94 385.825C162.201 386.58 161.321 387.182 160.35 387.597C159.379 388.011 158.336 388.229 157.281 388.239H157.206Z" fill="#0E515B"/>
<path d="M342.989 320.775L310.676 332.652C307.98 333.643 305.002 333.519 302.397 332.307C299.792 331.095 297.773 328.894 296.786 326.189L283.442 289.642C282.454 286.937 282.578 283.948 283.786 281.335C284.994 278.721 287.187 276.696 289.884 275.705L322.196 263.827L342.973 320.732L342.989 320.775Z" fill="#0E515B"/>
<path opacity="0.7" d="M342.989 320.775L310.676 332.652C307.98 333.643 305.002 333.519 302.397 332.307C299.792 331.095 297.773 328.894 296.786 326.189L283.442 289.642C282.454 286.937 282.578 283.948 283.786 281.335C284.994 278.721 287.187 276.696 289.884 275.705L322.196 263.827L342.973 320.732L342.989 320.775Z" fill="white"/>
<path opacity="0.2" d="M307.798 269.108L322.219 263.821L342.996 320.757L328.576 326.06C327.616 325.129 326.882 323.988 326.432 322.727L308.312 273.048C307.838 271.792 307.662 270.444 307.798 269.108Z" fill="#0E515B"/>
<path d="M354.602 278.003L353.185 278.524L356.644 287.999L358.062 287.477L354.602 278.003Z" fill="#0E515B"/>
<path d="M350.999 272.623L345.911 258.654C345.038 256.286 343.463 254.242 341.398 252.798C339.333 251.355 336.876 250.58 334.359 250.579C332.927 250.575 331.506 250.826 330.161 251.321L320.981 254.7L320.452 253.276L329.648 249.897C331.157 249.342 332.752 249.06 334.359 249.064C337.187 249.071 339.946 249.945 342.264 251.57C344.583 253.195 346.35 255.493 347.33 258.154L352.419 272.124L350.999 272.623Z" fill="#0E515B"/>
<path d="M343.24 324.856L356.724 319.962C361.13 318.363 363.409 313.483 361.816 309.063L343.513 258.291C341.92 253.871 337.056 251.583 332.651 253.182L319.167 258.076C314.761 259.675 312.481 264.555 314.075 268.975L332.377 319.747C333.971 324.167 338.834 326.454 343.24 324.856Z" fill="#0E515B"/>
<path d="M335.522 273.699C335.83 274.544 335.881 275.461 335.669 276.335C335.457 277.209 334.991 278.001 334.331 278.609C333.67 279.217 332.845 279.615 331.959 279.752C331.073 279.89 330.166 279.76 329.353 279.38C328.541 279 327.859 278.387 327.394 277.617C326.929 276.848 326.702 275.958 326.742 275.06C326.781 274.161 327.086 273.294 327.617 272.569C328.147 271.844 328.881 271.294 329.723 270.987C330.851 270.577 332.094 270.632 333.181 271.141C334.268 271.649 335.11 272.569 335.522 273.699Z" fill="#263238"/>
<path d="M346.802 304.592C347.108 305.436 347.159 306.353 346.946 307.226C346.734 308.099 346.268 308.889 345.609 309.497C344.949 310.104 344.124 310.502 343.239 310.639C342.354 310.777 341.448 310.648 340.636 310.269C339.824 309.89 339.142 309.279 338.676 308.511C338.21 307.743 337.982 306.854 338.02 305.956C338.057 305.058 338.36 304.192 338.888 303.466C339.416 302.741 340.147 302.188 340.988 301.88C341.547 301.674 342.142 301.581 342.736 301.607C343.331 301.632 343.915 301.774 344.455 302.026C344.995 302.278 345.481 302.634 345.883 303.075C346.286 303.515 346.598 304.03 346.802 304.592Z" fill="#263238"/>
<path d="M214.42 300.94L214.299 300.804C211.943 298.44 209.452 295.865 207.202 293.229C204.952 290.592 202.748 287.956 200.739 285.229C198.77 282.568 196.98 279.78 195.379 276.881C194.233 274.808 193.259 272.644 192.464 270.411C193.37 267.381 194.337 264.351 195.485 261.442C196.798 257.942 198.278 254.503 199.894 251.109C201.509 247.716 203.231 244.382 205.088 241.125C205.994 239.489 206.945 237.868 207.927 236.277L209.437 233.944C209.905 233.186 210.464 232.428 210.856 231.777L211.022 231.535C212.096 229.893 212.492 227.897 212.128 225.968C211.763 224.039 210.666 222.327 209.069 221.194C207.471 220.06 205.497 219.593 203.563 219.892C201.629 220.19 199.886 221.23 198.701 222.793C197.946 223.823 197.372 224.641 196.768 225.535C196.164 226.429 195.62 227.323 195.047 228.217C193.944 230.004 192.872 231.807 191.845 233.64C189.803 237.298 187.953 241.061 186.304 244.913C185.458 246.822 184.794 248.776 183.933 250.731C183.072 252.685 182.498 254.67 181.894 256.7C180.613 260.723 179.559 264.815 178.739 268.957V269.305C178.504 270.411 178.583 271.56 178.965 272.624C180.428 276.508 182.371 280.193 184.748 283.593C186.987 286.819 189.482 289.859 192.208 292.683C194.863 295.404 197.682 297.959 200.649 300.334C203.614 302.706 206.726 304.887 209.965 306.864C210.752 307.326 211.68 307.484 212.574 307.309C213.468 307.133 214.268 306.637 214.824 305.912C215.38 305.187 215.653 304.284 215.592 303.371C215.532 302.459 215.142 301.6 214.495 300.955L214.42 300.94Z" fill="#FF8B7B"/>
<path d="M231.966 308.47L231.77 308.076C231.143 306.763 230.22 305.614 229.075 304.721C227.93 303.827 226.593 303.212 225.171 302.925L213.71 300.592L208.108 303.395C208.712 309.697 217.681 313.47 217.681 313.47L220.233 316.394C221.094 317.375 222.285 318.002 223.578 318.156C224.871 318.309 226.175 317.979 227.24 317.227L230.26 315.061C231.275 314.342 232.003 313.285 232.315 312.079C232.628 310.872 232.504 309.594 231.966 308.47Z" fill="#FF8B7B"/>
<path d="M204.137 214.278C197.779 217.202 191.015 227.323 191.015 227.323L204.605 252.852C204.605 252.852 220.052 234.989 218.753 226.05C217.696 218.459 212.23 210.551 204.137 214.278Z" fill="#0E515B"/>
<g opacity="0.3">
<path d="M204.137 214.278C197.779 217.202 191.015 227.323 191.015 227.323L204.605 252.852C204.605 252.852 220.052 234.989 218.753 226.05C217.696 218.459 212.23 210.551 204.137 214.278Z" fill="white"/>
</g>
<path d="M639.168 548.777C625.865 548.777 612.788 546.035 606.446 537.732C576.427 498.34 576.699 419.101 576.956 342.423C577.107 301.137 580.353 262.124 575.778 231.822C573.09 213.959 563.698 201.702 554.215 195.369C540.142 186.037 520.814 191.051 512.554 193.188C511.525 193.476 510.449 193.556 509.39 193.422C508.33 193.288 507.307 192.944 506.381 192.408C505.456 191.873 504.646 191.158 503.999 190.305C503.352 189.452 502.882 188.478 502.615 187.44C502.347 186.402 502.289 185.322 502.444 184.261C502.598 183.2 502.961 182.181 503.513 181.263C504.064 180.345 504.793 179.547 505.656 178.915C506.518 178.283 507.498 177.83 508.538 177.582C518.851 174.901 543.041 168.643 563.064 181.916C576.578 190.87 588.266 206.854 591.663 229.413C596.42 260.927 593.173 300.516 593.022 342.423C592.765 416.404 592.509 492.901 619.206 527.884C621.365 530.702 629.776 533.232 643.743 532.505C644.981 532.505 646.189 532.369 647.382 532.263C646.842 531.165 646.563 529.957 646.567 528.732C646.567 526.595 647.413 524.545 648.92 523.033C650.426 521.521 652.469 520.672 654.6 520.672C672.161 520.672 681.402 522.187 683.184 530.247C683.698 532.566 683.969 538.383 675.483 542.368C669.141 545.353 654.011 548.777 639.168 548.777Z" fill="#0E515B"/>
<path d="M463.374 555.731L446.99 549.262L455.627 520.763L472.026 527.217L463.374 555.731Z" fill="#FFC3BD"/>
<path d="M446.597 547.519L465.08 554.792C465.314 554.887 465.509 555.058 465.635 555.278C465.761 555.497 465.81 555.753 465.774 556.004L463.962 567.549C463.915 567.828 463.806 568.093 463.644 568.324C463.481 568.555 463.269 568.747 463.022 568.885C462.776 569.023 462.502 569.104 462.221 569.122C461.939 569.14 461.657 569.094 461.395 568.988C456.76 567.064 449.497 563.882 443.623 561.564C440.014 560.14 433.143 557.867 428.145 555.898C423.147 553.928 424.446 548.716 426.635 549.08C436.586 550.686 440.391 548.974 444.363 547.489C445.084 547.212 445.884 547.223 446.597 547.519Z" fill="#263238"/>
<path opacity="0.2" d="M472.026 527.233L455.627 520.763L451.173 535.459L467.571 541.929L472.026 527.233Z" fill="black"/>
<path d="M492.517 306.637C492.517 306.637 477.689 380.179 472.026 416.45C465.654 457.1 448.817 531.354 448.817 531.354L470.607 539.944C470.607 539.944 501.728 463.917 506.061 427.101C519.123 397.178 545.095 309.122 545.095 309.122L492.517 306.637Z" fill="#0E515B"/>
<path d="M447.76 531.475L471.679 540.914L475.771 533.641L449.029 522.521L447.76 531.475Z" fill="#263238"/>
<path d="M441.901 547.838C441.067 547.577 440.344 547.044 439.848 546.323C439.71 546.056 439.638 545.76 439.638 545.459C439.638 545.158 439.71 544.862 439.848 544.595C439.909 544.431 440.015 544.287 440.154 544.18C440.293 544.073 440.459 544.007 440.633 543.989C442.218 543.823 445.163 547.701 445.45 548.156C445.482 548.205 445.5 548.263 445.5 548.322C445.5 548.382 445.482 548.44 445.45 548.489C445.418 548.539 445.373 548.578 445.319 548.603C445.265 548.627 445.206 548.635 445.148 548.625C444.04 548.482 442.952 548.218 441.901 547.838ZM441.101 544.671C440.979 544.611 440.844 544.585 440.708 544.595C440.618 544.595 440.512 544.595 440.406 544.853C440.306 545.034 440.253 545.237 440.253 545.444C440.253 545.651 440.306 545.854 440.406 546.035C440.844 546.838 442.354 547.55 444.544 547.913C443.624 546.612 442.453 545.51 441.101 544.671Z" fill="#0E515B"/>
<path d="M445.118 548.61C445.069 548.594 445.027 548.562 444.997 548.519C444.031 547.368 442.672 543.808 443.487 542.58C443.613 542.39 443.8 542.249 444.017 542.18C444.234 542.111 444.468 542.118 444.68 542.202C444.904 542.259 445.114 542.363 445.296 542.506C445.478 542.65 445.629 542.83 445.737 543.035C446.673 544.717 445.616 548.262 445.571 548.413C445.553 548.467 445.521 548.515 445.479 548.552C445.436 548.59 445.385 548.615 445.329 548.625C445.296 548.642 445.259 548.649 445.222 548.646C445.185 548.644 445.149 548.631 445.118 548.61ZM444.605 542.823H444.484C444.091 542.732 444.001 542.823 443.955 542.959C443.502 543.686 444.242 546.262 445.103 547.671C445.534 546.269 445.534 544.77 445.103 543.368C445.007 543.132 444.831 542.939 444.605 542.823Z" fill="#0E515B"/>
<path opacity="0.2" d="M524.484 351.165C516.269 361.377 513.023 387.406 513.053 409.102C518.595 393.784 524.952 374.331 530.539 356.665L524.484 351.165Z" fill="black"/>
<path d="M561.977 558.473H544.37L542.03 528.778H559.636L561.977 558.473Z" fill="#FFC3BD"/>
<path d="M543.374 556.989H563.23C563.485 556.987 563.732 557.073 563.93 557.233C564.128 557.393 564.265 557.617 564.318 557.867L566.839 569.261C566.898 569.539 566.894 569.827 566.827 570.103C566.76 570.379 566.632 570.637 566.452 570.857C566.272 571.076 566.045 571.253 565.788 571.373C565.531 571.492 565.25 571.552 564.967 571.548C559.954 571.458 552.056 571.155 545.745 571.155C541.849 571.155 534.631 571.564 529.27 571.564C523.91 571.564 523.23 566.246 525.39 565.761C535.25 563.594 538.179 560.625 541.32 557.776C541.886 557.272 542.617 556.992 543.374 556.989Z" fill="#263238"/>
<path opacity="0.2" d="M559.636 528.778H542.015L543.238 544.095H560.859L559.636 528.778Z" fill="black"/>
<path d="M513.838 307.561C513.838 307.561 523.592 389.512 525.646 419.01C528.5 460.069 539.538 541.126 539.538 541.126H562.943C562.943 541.126 565.45 458.342 561.222 421.51C567.05 389.375 565.208 310.031 565.208 310.031L513.838 307.561Z" fill="#0E515B"/>
<path d="M538.602 541.626H564.302L565.465 533.368L536.518 532.823L538.602 541.626Z" fill="#263238"/>
<path d="M539.07 559.004C538.2 559.069 537.333 558.84 536.609 558.352C536.384 558.154 536.209 557.905 536.099 557.626C535.988 557.347 535.946 557.045 535.975 556.746C535.975 556.567 536.024 556.392 536.117 556.24C536.211 556.087 536.344 555.964 536.503 555.883C537.922 555.155 542.045 557.701 542.543 557.989C542.595 558.018 542.638 558.063 542.665 558.117C542.692 558.171 542.702 558.232 542.694 558.292C542.68 558.352 542.651 558.408 542.608 558.453C542.566 558.499 542.512 558.532 542.452 558.549C541.346 558.828 540.211 558.981 539.07 559.004ZM537.167 556.352C537.032 556.344 536.897 556.37 536.775 556.428C536.699 556.428 536.609 556.549 536.594 556.776C536.562 556.98 536.583 557.189 536.654 557.383C536.726 557.576 536.845 557.748 537.001 557.882C537.696 558.473 539.372 558.549 541.531 558.11C540.218 557.251 538.751 556.654 537.213 556.352H537.167Z" fill="#0E515B"/>
<path d="M542.392 558.549H542.241C540.927 557.822 538.36 555.019 538.632 553.58C538.677 553.357 538.798 553.156 538.975 553.012C539.151 552.869 539.371 552.791 539.598 552.792C539.827 552.759 540.059 552.776 540.281 552.842C540.502 552.907 540.707 553.019 540.882 553.171C542.392 554.398 542.679 558.095 542.694 558.246C542.697 558.302 542.686 558.357 542.662 558.407C542.639 558.458 542.603 558.501 542.558 558.534C542.504 558.553 542.448 558.558 542.392 558.549ZM539.81 553.353H539.674C539.281 553.353 539.251 553.595 539.236 553.671C539.07 554.504 540.746 556.701 542.014 557.64C541.922 556.176 541.397 554.772 540.504 553.61C540.308 553.449 540.063 553.358 539.81 553.353Z" fill="#0E515B"/>
<path d="M521.917 194.551L507.813 194.37C503.072 194.37 498.361 194.218 493.695 194.142C492.275 194.142 490.886 194.051 489.482 193.991C489.572 193.991 489.633 193.824 489.708 193.748C490.705 192.688 491.701 191.597 492.728 190.552C493.242 190.006 493.745 189.476 494.238 188.961C494.706 188.446 495.31 187.87 495.627 187.446L496.911 185.809C497.923 184.515 498.502 182.933 498.568 181.289C498.633 179.645 498.181 178.022 497.275 176.65C496.369 175.279 495.056 174.228 493.522 173.648C491.987 173.067 490.31 172.986 488.727 173.416L485.933 174.174C485.073 174.431 484.212 174.719 483.351 175.007C481.66 175.598 479.999 176.249 478.353 176.961C475.036 178.431 471.832 180.142 468.765 182.082C465.588 184.12 462.583 186.415 459.78 188.946C456.814 191.652 454.127 194.652 451.762 197.9C451.165 198.71 450.658 199.584 450.252 200.506C448.849 203.73 448.781 207.382 450.06 210.658C451.34 213.933 453.864 216.565 457.077 217.975L458.451 218.581C461.554 219.92 464.767 220.985 468.055 221.762C470.924 222.505 473.642 222.989 476.315 223.444C478.987 223.899 481.6 224.262 484.197 224.58C486.794 224.898 489.361 225.141 491.928 225.353C497.047 225.808 502.12 226.035 507.179 226.186C512.237 226.338 517.19 226.338 522.445 226.095C526.543 225.92 530.41 224.146 533.223 221.152C536.036 218.158 537.573 214.179 537.506 210.065C537.439 205.95 535.774 202.025 532.865 199.124C529.956 196.224 526.033 194.577 521.932 194.536L521.917 194.551Z" fill="#FFC3BD"/>
<path d="M530.131 222.202C517.945 236.14 488.621 230.928 488.621 230.928L490.237 196.203C500.288 193.983 510.538 192.79 520.829 192.642C538.043 192.612 539.886 211.02 530.131 222.202Z" fill="#263238"/>
<path d="M497.605 211.52C496.881 217.126 496.095 224.671 495.627 234.822C489.27 267.093 486.899 289.956 492.517 306.637C496.956 312.137 554.804 311.076 565.208 310.016C571.248 295.016 571.882 251.958 572.592 215.762C572.681 210.775 570.986 205.92 567.814 202.079C564.642 198.238 560.203 195.664 555.302 194.824C542.285 192.509 529.005 192.06 515.861 193.491C511.248 194.017 506.944 196.079 503.635 199.347C500.326 202.615 498.203 206.901 497.605 211.52Z" fill="#263238"/>
<path opacity="0.2" d="M553.732 233.55C553.928 244.579 561.901 262.2 570.87 271.139C571.414 261.821 571.761 251.715 572.033 241.519L553.732 233.55Z" fill="black"/>
<path d="M604.136 254.988L603.622 253.776C601.512 248.722 599.044 243.826 596.239 239.125C593.551 234.58 590.652 230.292 587.647 226.156C584.642 222.02 581.456 218.065 578.194 214.217C576.533 212.308 574.887 210.399 573.151 208.551L570.538 205.793L567.76 202.975C564.85 200.092 560.935 198.459 556.845 198.422C552.755 198.386 548.811 199.949 545.851 202.78C542.89 205.611 541.144 209.487 540.983 213.588C540.822 217.689 542.259 221.691 544.989 224.747L545.442 225.247L554.306 235.14C557.326 238.504 560.21 241.928 563.079 245.337C564.468 247.049 565.903 248.761 567.201 250.503C568.5 252.245 569.874 253.927 571.173 255.654C573.045 258.275 574.857 260.881 576.473 263.442C576.225 264.735 575.913 266.014 575.536 267.275C574.451 270.945 573.176 274.556 571.716 278.093C570.206 281.835 568.606 285.668 566.945 289.441C565.284 293.213 563.502 297.152 561.916 300.94L561.765 301.273C561.07 302.948 560.964 304.81 561.466 306.553C561.968 308.295 563.047 309.814 564.526 310.858C566.004 311.902 567.794 312.408 569.598 312.293C571.402 312.179 573.114 311.45 574.449 310.228C577.78 307.13 580.941 303.852 583.917 300.41C586.937 297.006 589.771 293.42 592.418 289.653C593.762 287.759 595.046 285.789 596.314 283.744C597.632 281.664 598.836 279.515 599.923 277.305C601.146 274.894 602.205 272.404 603.094 269.851C604.253 266.581 604.904 263.152 605.027 259.684C605.066 258.073 604.762 256.472 604.136 254.988Z" fill="#FFC3BD"/>
<path d="M556.329 195.021C576.699 198.521 589.972 226.186 589.972 226.186L565.42 252.685C565.42 252.685 551.271 238.231 542.77 224.838C533.604 210.263 541.743 192.536 556.329 195.021Z" fill="#263238"/>
<path d="M519.123 151.402C515.71 145.66 514.593 137.766 520.844 129.721C519.626 129.874 518.39 129.669 517.286 129.132C516.182 128.594 515.257 127.746 514.623 126.691C521.468 121.072 530.076 118.066 538.919 118.206C557.19 118.206 558.549 125.282 557.93 130.115C570.433 130.918 579.553 163.538 547.858 169.31C529.723 150.144 519.123 151.402 519.123 151.402Z" fill="#263238"/>
<path d="M556.782 130.706C556.782 130.706 561.871 125.494 555.544 119.191C556.962 119.582 558.256 120.334 559.298 121.375C560.341 122.415 561.097 123.709 561.493 125.131C562.384 128.797 559.923 131.736 556.782 130.706Z" fill="#263238"/>
<path d="M549.776 165.325C549.293 175.37 548.387 186.794 550.063 194.809C547.466 198.915 540.822 203.642 528.923 204.702C524.695 202.293 519.108 196.4 521.056 193.37C526.114 190.112 528.258 180.249 526.809 172.871L549.776 165.325Z" fill="#FFC3BD"/>
<path opacity="0.2" d="M543.978 167.219L526.779 172.871C527.364 176.013 527.389 179.234 526.854 182.385C531.988 182.219 539.1 178.34 541.773 174.704C542.644 173.681 543.29 172.487 543.67 171.197C544.05 169.908 544.155 168.552 543.978 167.219Z" fill="black"/>
<path d="M554.789 149.417C551.603 161.735 550.364 169.113 542.845 174.28C531.535 182.052 517.311 173.34 516.752 160.326C516.269 148.599 521.554 130.418 534.691 127.827C537.583 127.245 540.576 127.415 543.385 128.32C546.194 129.225 548.726 130.836 550.739 132.999C552.753 135.163 554.182 137.807 554.891 140.68C555.6 143.554 555.565 146.561 554.789 149.417Z" fill="#FFC3BD"/>
<path d="M552.252 131.782C546.862 135.63 540.172 151.932 553.762 158.477C565.963 147.72 562.807 131.782 552.252 131.782Z" fill="#263238"/>
<path d="M555.363 133.736C557.673 123.009 530.689 117.464 522.143 129.994C519.243 137.539 553.732 144.205 555.363 133.736Z" fill="#263238"/>
<path d="M535.235 162.492C532.431 161.22 529.425 160.456 526.356 160.235C526.313 160.235 526.271 160.243 526.231 160.26C526.192 160.277 526.156 160.302 526.126 160.333C526.097 160.364 526.074 160.401 526.059 160.442C526.044 160.482 526.037 160.525 526.039 160.568C526.056 160.666 526.105 160.755 526.179 160.821C526.254 160.887 526.348 160.926 526.447 160.932C529.389 161.145 532.271 161.873 534.963 163.083C535.048 163.12 535.143 163.124 535.23 163.093C535.317 163.062 535.389 162.999 535.431 162.916C535.448 162.876 535.456 162.832 535.455 162.788C535.454 162.744 535.444 162.701 535.426 162.661C535.407 162.621 535.381 162.586 535.348 162.557C535.315 162.527 535.277 162.506 535.235 162.492Z" fill="#263238"/>
<path d="M557.734 162.886C555.546 165.217 552.527 166.584 549.338 166.689C545.11 166.78 544.038 162.735 546.077 159.28C547.919 156.25 552.328 152.372 556.163 153.917C559.999 155.462 560.391 159.992 557.734 162.886Z" fill="#FFC3BD"/>
<path d="M535.265 149.205C535.068 150.22 534.374 150.947 533.755 150.811C533.136 150.675 532.728 149.751 532.924 148.735C533.12 147.72 533.815 147.008 534.434 147.22C535.053 147.432 535.461 148.145 535.265 149.205Z" fill="#263238"/>
<path d="M523.834 146.978C523.638 147.993 522.943 148.705 522.324 148.584C521.705 148.463 521.282 147.523 521.479 146.508C521.675 145.493 522.37 144.766 522.989 144.902C523.608 145.039 523.97 145.963 523.834 146.978Z" fill="#263238"/>
<path d="M527.367 148.145C525.556 151.012 523.361 153.617 520.844 155.887C522.354 157.902 525.691 157.508 525.691 157.508L527.367 148.145Z" fill="#ED847E"/>
<path d="M533.619 143.311C533.727 143.288 533.839 143.292 533.945 143.324C534.05 143.356 534.146 143.414 534.223 143.493C534.708 144.081 535.325 144.546 536.023 144.849C536.721 145.151 537.481 145.284 538.24 145.236C538.4 145.214 538.562 145.255 538.691 145.352C538.821 145.448 538.908 145.591 538.934 145.751C538.947 145.83 538.944 145.91 538.925 145.988C538.906 146.065 538.871 146.138 538.823 146.202C538.775 146.266 538.715 146.319 538.646 146.358C538.576 146.398 538.5 146.423 538.421 146.433C537.462 146.51 536.499 146.356 535.611 145.985C534.723 145.613 533.937 145.034 533.317 144.296C533.261 144.241 533.216 144.175 533.185 144.102C533.154 144.03 533.138 143.951 533.138 143.872C533.138 143.793 533.154 143.715 533.185 143.642C533.216 143.569 533.261 143.503 533.317 143.448C533.407 143.381 533.51 143.334 533.619 143.311Z" fill="#263238"/>
<path d="M520.301 139.948C520.175 139.922 520.063 139.852 519.983 139.751C519.933 139.688 519.895 139.615 519.873 139.537C519.851 139.459 519.844 139.377 519.854 139.297C519.864 139.216 519.89 139.138 519.93 139.068C519.971 138.998 520.025 138.936 520.089 138.887C520.831 138.277 521.707 137.854 522.644 137.651C523.581 137.448 524.553 137.472 525.48 137.721C525.633 137.773 525.759 137.883 525.833 138.027C525.906 138.171 525.92 138.339 525.872 138.493C525.812 138.64 525.7 138.759 525.559 138.828C525.417 138.898 525.255 138.914 525.102 138.872C524.364 138.683 523.592 138.673 522.849 138.841C522.107 139.01 521.414 139.353 520.829 139.842C520.759 139.905 520.672 139.949 520.579 139.967C520.486 139.986 520.39 139.979 520.301 139.948Z" fill="#263238"/>
<path d="M569.043 300.501L556.072 300.41L562.777 315.349C562.777 315.349 573.845 312.97 573.241 306.94L569.043 300.501Z" fill="#FFC3BD"/>
<path d="M549.474 310.667L551.603 314.879C552.175 316 553.144 316.867 554.32 317.31C555.496 317.753 556.794 317.739 557.96 317.273L562.777 315.349L556.073 300.41L550.924 304.349C549.981 305.064 549.319 306.088 549.053 307.244C548.788 308.399 548.937 309.611 549.474 310.667Z" fill="#FFC3BD"/>
<path d="M470.305 289.501C468.738 289.485 467.21 289.01 465.908 288.135C464.606 287.26 463.587 286.022 462.976 284.574C462.365 283.126 462.189 281.531 462.469 279.984C462.749 278.437 463.472 277.006 464.552 275.865C470.32 269.896 475.529 265.26 480.12 261.215C491.203 251.412 495.023 247.579 494.661 240.231C494.119 235.697 493.158 231.224 491.792 226.868C488.485 214.671 484.74 200.869 491.158 189.794C494.601 183.84 500.444 179.764 508.538 177.673C510.584 177.186 512.739 177.523 514.54 178.613C516.341 179.702 517.645 181.457 518.171 183.5C518.697 185.543 518.403 187.712 517.353 189.54C516.303 191.368 514.58 192.711 512.554 193.278C506.862 194.794 505.488 197.112 505.004 197.899C501.984 203.127 504.899 213.944 507.254 222.626C508.96 228.1 510.104 233.735 510.667 239.443C511.422 254.973 502.286 263.063 490.705 273.305C486.341 277.184 481.373 281.577 476.028 287.092C475.282 287.857 474.392 288.463 473.409 288.877C472.426 289.291 471.37 289.503 470.305 289.501Z" fill="#0E515B"/>
<path d="M487.927 173.749L500.49 170.522L497.56 186.643C497.56 186.643 486.25 186.991 485.405 181.007L487.927 173.749Z" fill="#FFC3BD"/>
<path d="M509.308 179.067L508.342 183.279C508.045 184.566 507.279 185.694 506.195 186.443C505.111 187.192 503.787 187.506 502.483 187.324L497.561 186.643L500.49 170.522L506.258 173.022C507.392 173.512 508.318 174.385 508.875 175.49C509.432 176.595 509.586 177.861 509.308 179.067Z" fill="#FFC3BD"/>
<path d="M465.813 262.992L465.471 262.649C463.944 261.117 461.468 261.117 459.941 262.65L415.413 307.342C413.886 308.875 413.887 311.36 415.414 312.892L415.756 313.235C417.284 314.767 419.76 314.766 421.287 313.234L465.814 268.541C467.341 267.008 467.341 264.524 465.813 262.992Z" fill="#263238"/>
<path d="M489.02 286.247L488.679 285.904C487.151 284.371 484.675 284.371 483.148 285.904L438.613 330.589C437.085 332.121 437.085 334.606 438.613 336.138L438.954 336.481C440.482 338.013 442.958 338.013 444.485 336.481L489.02 291.796C490.547 290.264 490.547 287.779 489.02 286.247Z" fill="#263238"/>
<path d="M429.462 279.628L460.843 248.142C461.848 247.133 463.042 246.333 464.355 245.787C465.669 245.241 467.077 244.96 468.499 244.96C469.92 244.96 471.328 245.241 472.642 245.787C473.955 246.333 475.149 247.133 476.154 248.142L503.584 275.664C504.59 276.673 505.387 277.87 505.931 279.188C506.475 280.506 506.755 281.919 506.755 283.345C506.755 284.772 506.475 286.185 505.931 287.503C505.387 288.821 504.59 290.018 503.584 291.027L472.204 322.513L429.462 279.628Z" fill="#0E515B"/>
<path opacity="0.7" d="M429.462 279.628L460.843 248.142C461.848 247.133 463.042 246.333 464.355 245.787C465.669 245.241 467.077 244.96 468.499 244.96C469.92 244.96 471.328 245.241 472.642 245.787C473.955 246.333 475.149 247.133 476.154 248.142L503.584 275.664C504.59 276.673 505.387 277.87 505.931 279.188C506.475 280.506 506.755 281.919 506.755 283.345C506.755 284.772 506.475 286.185 505.931 287.503C505.387 288.821 504.59 290.018 503.584 291.027L472.204 322.513L429.462 279.628Z" fill="white"/>
<path opacity="0.2" d="M440.286 268.684L429.414 279.578L472.162 322.47L483.019 311.561C482.587 310.293 481.868 309.141 480.92 308.198L443.638 270.866C442.705 269.887 441.557 269.14 440.286 268.684Z" fill="#0E515B"/>
<path d="M427.581 274.084L426.801 274.866C423.487 278.191 423.487 283.583 426.801 286.908L464.866 325.1C468.18 328.426 473.553 328.426 476.867 325.1L477.647 324.318C480.961 320.993 480.961 315.602 477.647 312.277L439.582 274.084C436.268 270.759 430.895 270.759 427.581 274.084Z" fill="#0E515B"/>
<path d="M545.896 1.12109H209.105C202.083 1.12109 196.391 6.83259 196.391 13.8781V75.5115C196.391 82.557 202.083 88.2685 209.105 88.2685H545.896C552.918 88.2685 558.61 82.557 558.61 75.5115V13.8781C558.61 6.83259 552.918 1.12109 545.896 1.12109Z" fill="white"/>
<path d="M545.895 89.3897H209.165C205.498 89.3857 201.982 87.9222 199.389 85.3204C196.796 82.7187 195.337 79.191 195.333 75.5116V13.8781C195.337 10.1987 196.796 6.67102 199.389 4.06924C201.982 1.46745 205.498 0.00401033 209.165 0H545.895C549.562 0.00401033 553.078 1.46745 555.671 4.06924C558.264 6.67102 559.723 10.1987 559.727 13.8781V75.5116C559.723 79.191 558.264 82.7187 555.671 85.3204C553.078 87.9222 549.562 89.3857 545.895 89.3897ZM209.165 2.24232C206.091 2.24633 203.143 3.47353 200.969 5.6548C198.795 7.83606 197.572 10.7934 197.568 13.8781V75.5116C197.572 78.5963 198.795 81.5536 200.969 83.7349C203.143 85.9162 206.091 87.1434 209.165 87.1474H545.895C548.97 87.1434 551.917 85.9162 554.091 83.7349C556.265 81.5536 557.488 78.5963 557.492 75.5116V13.8781C557.488 10.7934 556.265 7.83606 554.091 5.6548C551.917 3.47353 548.97 2.24633 545.895 2.24232H209.165Z" fill="#263238"/>
<g opacity="0.4">
<path d="M226.167 59.8456V27.0593H238.489C240.155 27.0279 241.822 27.1292 243.472 27.3623C244.909 27.5703 246.284 28.0871 247.504 28.8774C248.635 29.6866 249.535 30.7781 250.116 32.0439C250.997 33.9224 251.31 36.0191 251.014 38.074C250.719 40.129 249.829 42.0517 248.455 43.604C246.693 45.5231 243.502 46.4877 238.882 46.4978H230.486V59.8305L226.167 59.8456ZM230.486 42.6495H238.942C241.041 42.8648 243.149 42.3281 244.891 41.1344C245.491 40.5784 245.961 39.8961 246.266 39.1364C246.572 38.3767 246.705 37.5585 246.658 36.7407C246.693 35.4828 246.328 34.2463 245.616 33.2105C244.959 32.2636 243.992 31.5775 242.883 31.2712C241.553 31.0338 240.202 30.9373 238.851 30.9833H230.486V42.6495Z" fill="#263238"/>
<path d="M271.559 56.9216C270.285 58.0454 268.836 58.9514 267.27 59.6033C265.854 60.1254 264.355 60.3871 262.846 60.376C260.664 60.5283 258.506 59.8463 256.806 58.467C256.126 57.8548 255.587 57.1011 255.227 56.2585C254.867 55.416 254.695 54.5047 254.722 53.5884C254.707 52.473 254.978 51.3725 255.507 50.3916C256.027 49.4935 256.745 48.7266 257.606 48.1493C258.497 47.5597 259.476 47.1148 260.505 46.8312C261.68 46.56 262.87 46.3577 264.069 46.2252C266.494 46.0036 268.892 45.5417 271.226 44.8464C271.226 44.301 271.226 43.9374 271.226 43.801C271.293 43.1752 271.227 42.5422 271.032 41.944C270.837 41.3459 270.517 40.7962 270.094 40.3315C268.798 39.3424 267.188 38.858 265.564 38.9679C264.102 38.8616 262.643 39.2052 261.381 39.9527C260.342 40.8724 259.64 42.1155 259.388 43.4829L255.462 42.9374C255.733 41.4613 256.337 40.067 257.229 38.8619C258.164 37.7451 259.393 36.9154 260.777 36.4681C262.507 35.8799 264.326 35.5979 266.153 35.6348C267.823 35.5773 269.49 35.8185 271.075 36.3468C272.109 36.6413 273.037 37.2254 273.751 38.0304C274.465 38.8355 274.935 39.8282 275.107 40.8921C275.274 42.1219 275.34 43.3634 275.303 44.604V49.9674C275.244 52.339 275.33 54.712 275.56 57.0731C275.743 58.071 276.084 59.0327 276.572 59.9215H272.389C271.93 58.9816 271.648 57.9645 271.559 56.9216ZM271.226 47.922C269.109 48.6839 266.909 49.1925 264.673 49.4371C263.476 49.5659 262.3 49.8407 261.17 50.2553C260.522 50.5189 259.969 50.9731 259.584 51.5582C259.139 52.2717 258.962 53.1207 259.083 53.9534C259.205 54.7862 259.618 55.5483 260.249 56.1035C261.257 56.8916 262.522 57.2751 263.797 57.1792C265.236 57.2069 266.657 56.857 267.919 56.1641C269.074 55.5364 270.003 54.5614 270.577 53.3763C271.071 52.0983 271.292 50.7305 271.226 49.3614V47.922Z" fill="#263238"/>
<path d="M280.769 61.7849L284.665 62.3606C284.7 62.87 284.838 63.3668 285.072 63.8203C285.306 64.2738 285.63 64.6743 286.024 64.9969C287.224 65.8091 288.656 66.203 290.101 66.118C291.618 66.2175 293.127 65.8244 294.405 64.9969C295.43 64.2274 296.156 63.1239 296.458 61.8758C296.728 60.1678 296.824 58.4368 296.745 56.7094C295.953 57.6799 294.952 58.457 293.816 58.982C292.681 59.507 291.442 59.766 290.192 59.7395C288.742 59.8115 287.297 59.5277 285.981 58.9125C284.665 58.2974 283.519 57.3695 282.642 56.2094C280.825 53.7626 279.879 50.7752 279.954 47.7249C279.931 45.5708 280.352 43.4352 281.192 41.4525C281.914 39.6547 283.148 38.1104 284.741 37.0133C286.373 35.9648 288.284 35.4366 290.222 35.4982C291.557 35.4805 292.877 35.7785 294.076 36.3681C295.275 36.9577 296.319 37.8224 297.123 38.892V36.0285H300.822V56.6185C300.986 59.2885 300.605 61.964 299.705 64.4817C298.928 66.0524 297.675 67.3359 296.126 68.1482C294.259 69.1012 292.18 69.5602 290.086 69.4815C287.656 69.5973 285.253 68.9282 283.231 67.5725C282.362 66.8987 281.68 66.0131 281.249 65C280.819 63.987 280.653 62.8801 280.769 61.7849ZM284.076 47.5128C283.869 49.9346 284.528 52.3512 285.933 54.3307C286.494 55.0172 287.203 55.5673 288.005 55.9399C288.808 56.3125 289.685 56.4979 290.569 56.4821C291.452 56.4943 292.326 56.3088 293.127 55.9393C293.929 55.5697 294.639 55.0253 295.205 54.3458C296.614 52.4133 297.279 50.0349 297.077 47.6492C297.257 45.2939 296.569 42.9544 295.145 41.0737C294.588 40.3787 293.881 39.8188 293.079 39.4358C292.276 39.0528 291.398 38.8565 290.509 38.8617C289.639 38.859 288.779 39.0538 287.995 39.4316C287.21 39.8095 286.521 40.3605 285.979 41.0434C284.581 42.9075 283.905 45.2169 284.076 47.5431V47.5128Z" fill="#263238"/>
<path d="M323.14 52.1945L327.292 52.7096C326.748 54.9549 325.466 56.9509 323.653 58.376C321.675 59.7743 319.291 60.4773 316.873 60.3759C315.352 60.4681 313.828 60.2363 312.402 59.6958C310.975 59.1553 309.679 58.3183 308.598 57.2397C306.452 54.749 305.367 51.5111 305.578 48.225C305.354 44.8496 306.435 41.5174 308.598 38.9224C309.616 37.8334 310.854 36.9753 312.229 36.4056C313.604 35.836 315.084 35.568 316.571 35.6195C318.021 35.5691 319.465 35.8326 320.804 36.3921C322.143 36.9515 323.347 37.7939 324.333 38.8618C326.47 41.3878 327.552 44.6448 327.353 47.9523C327.353 48.1947 327.353 48.5583 327.353 49.028H309.701C309.672 51.2506 310.457 53.4066 311.905 55.0883C312.539 55.7639 313.308 56.2979 314.161 56.6556C315.015 57.0132 315.934 57.1864 316.858 57.164C318.205 57.198 319.526 56.7882 320.618 55.9974C321.824 55.0163 322.704 53.6898 323.14 52.1945ZM309.973 45.6948H323.14C323.105 44.0615 322.579 42.4769 321.63 41.1496C321.036 40.4 320.277 39.7991 319.412 39.3942C318.547 38.9893 317.601 38.7915 316.647 38.8164C315.788 38.7951 314.935 38.9494 314.138 39.2698C313.341 39.5902 312.617 40.0699 312.011 40.6799C310.691 42.015 309.944 43.8145 309.927 45.6948H309.973Z" fill="#263238"/>
<path d="M344.959 59.8457V36.0286H348.568V39.4072C349.377 38.1507 350.499 37.1286 351.824 36.4428C353.149 35.7569 354.629 35.4313 356.118 35.4983C357.471 35.4819 358.813 35.745 360.059 36.271C361.123 36.6817 362.053 37.379 362.747 38.2861C363.371 39.1976 363.798 40.2297 364.001 41.3162C364.174 42.6116 364.244 43.9186 364.212 45.2252V59.8305H360.21V45.3918C360.26 44.147 360.102 42.9026 359.742 41.7102C359.417 40.8976 358.833 40.2158 358.081 39.7709C357.23 39.2726 356.258 39.0209 355.273 39.0436C353.646 39.0135 352.067 39.5975 350.848 40.6799C349.61 41.7708 348.991 43.8313 348.991 46.8766V59.8457H344.959Z" fill="#263238"/>
<path d="M368.863 47.9674C368.863 43.5737 370.081 40.3163 372.517 38.1951C374.589 36.4244 377.24 35.4854 379.961 35.5589C381.44 35.5044 382.914 35.7622 384.287 36.3155C385.661 36.8688 386.903 37.7053 387.934 38.7709C389.022 39.9625 389.862 41.3604 390.404 42.8826C390.946 44.4047 391.179 46.0202 391.09 47.6341C391.202 50.1129 390.731 52.5834 389.716 54.8459C388.82 56.5718 387.432 57.9907 385.729 58.9214C383.984 59.9127 382.012 60.4346 380.006 60.4365C378.511 60.5081 377.018 60.2601 375.625 59.709C374.232 59.1579 372.972 58.3162 371.928 57.2397C370.835 55.972 370.002 54.5006 369.476 52.9096C368.95 51.3186 368.741 49.6392 368.863 47.9674ZM372.985 47.9674C372.802 50.4098 373.505 52.8362 374.963 54.8004C375.575 55.5289 376.341 56.111 377.206 56.5042C378.071 56.8974 379.012 57.0917 379.961 57.073C380.907 57.0919 381.846 56.8959 382.706 56.4998C383.566 56.1036 384.326 55.5175 384.929 54.7853C386.41 52.7852 387.118 50.3147 386.922 47.8311C387.099 45.4361 386.383 43.0606 384.914 41.1647C384.293 40.4535 383.528 39.8836 382.67 39.4932C381.812 39.1027 380.881 38.9007 379.938 38.9007C378.996 38.9007 378.065 39.1027 377.207 39.4932C376.349 39.8836 375.584 40.4535 374.963 41.1647C373.5 43.1157 372.792 45.5326 372.97 47.9674H372.985Z" fill="#263238"/>
<path d="M404.499 56.2398L405.088 59.8003C404.096 60.0258 403.084 60.1476 402.068 60.1639C400.9 60.2216 399.736 59.9818 398.685 59.4669C397.939 59.0575 397.342 58.4209 396.979 57.6488C396.563 56.0997 396.4 54.493 396.496 52.8915V39.2558H393.551V36.0287H396.496V30.2107L400.482 27.7866V36.0287H404.514V39.1649H400.482V53.0581C400.439 53.802 400.51 54.5481 400.694 55.2702C400.84 55.5938 401.082 55.8638 401.388 56.0429C401.81 56.268 402.285 56.3729 402.762 56.3459C403.343 56.3494 403.923 56.314 404.499 56.2398Z" fill="#263238"/>
<path d="M422.075 59.8457V39.2254H418.526V36.0286H422.075V33.559C422.015 32.3469 422.158 31.1332 422.498 29.9683C422.879 28.9177 423.596 28.023 424.536 27.423C425.776 26.7054 427.199 26.3683 428.628 26.4533C429.886 26.4692 431.139 26.6011 432.373 26.8472L431.769 30.3622C430.987 30.2151 430.194 30.139 429.398 30.135C428.468 30.0478 427.541 30.3307 426.816 30.9228C426.219 31.7734 425.951 32.8126 426.061 33.8469V36.0286H430.682V39.1648H426.061V59.8457H422.075Z" fill="#263238"/>
<path d="M432.298 47.9674C432.298 43.5737 433.516 40.3163 435.952 38.1951C438.03 36.4247 440.686 35.4859 443.411 35.5589C444.89 35.5044 446.364 35.7622 447.738 36.3155C449.111 36.8688 450.353 37.7053 451.384 38.7709C452.467 39.9649 453.302 41.364 453.838 42.886C454.375 44.408 454.603 46.0223 454.51 47.6341C454.626 50.1116 454.161 52.5819 453.151 54.8459C452.254 56.5762 450.86 57.9961 449.149 58.9214C447.409 59.9127 445.443 60.4347 443.442 60.4365C441.947 60.5023 440.455 60.2516 439.063 59.7009C437.671 59.1501 436.411 58.3115 435.363 57.2397C434.27 55.972 433.437 54.5006 432.911 52.9096C432.385 51.3186 432.176 49.6392 432.298 47.9674ZM436.435 47.9674C436.244 50.4107 436.947 52.8399 438.413 54.8004C439.033 55.5163 439.798 56.0905 440.658 56.4839C441.517 56.8773 442.451 57.081 443.396 57.081C444.341 57.081 445.275 56.8773 446.135 56.4839C446.994 56.0905 447.76 55.5163 448.379 54.8004C449.848 52.7953 450.55 50.3273 450.357 47.8462C450.531 45.454 449.821 43.0812 448.364 41.1799C447.743 40.4687 446.978 39.8988 446.12 39.5083C445.262 39.1179 444.331 38.9159 443.389 38.9159C442.446 38.9159 441.515 39.1179 440.657 39.5083C439.799 39.8988 439.034 40.4687 438.413 41.1799C436.937 43.1194 436.217 45.5331 436.39 47.9674H436.435Z" fill="#263238"/>
<path d="M474.698 59.8456V56.3609C473.894 57.6286 472.775 58.665 471.452 59.3688C470.129 60.0726 468.646 60.4196 467.148 60.3759C465.803 60.3925 464.469 60.1187 463.238 59.5729C462.179 59.1523 461.252 58.4568 460.55 57.5578C459.926 56.6484 459.503 55.615 459.312 54.5277C459.116 53.2854 459.035 52.0276 459.07 50.7703V36.0286H463.087V49.2098C463.038 50.6283 463.118 52.0483 463.328 53.452C463.544 54.4516 464.112 55.3394 464.929 55.9519C465.81 56.5769 466.87 56.8961 467.949 56.8609C469.14 56.8614 470.31 56.5367 471.331 55.9216C472.344 55.3571 473.137 54.4654 473.581 53.3914C474.083 51.8999 474.303 50.3277 474.23 48.7552V36.0286H478.247V59.8456H474.698Z" fill="#263238"/>
<path d="M484.574 59.8457V36.0286H488.183V39.4072C488.991 38.1507 490.114 37.1286 491.438 36.4428C492.763 35.7569 494.243 35.4313 495.733 35.4983C497.085 35.4819 498.427 35.745 499.674 36.271C500.737 36.6817 501.668 37.379 502.362 38.2861C502.985 39.1976 503.412 40.2297 503.615 41.3162C503.788 42.6116 503.859 43.9186 503.826 45.2252V59.8305H499.81V45.3918C499.859 44.147 499.701 42.9026 499.342 41.7102C499.016 40.8976 498.432 40.2158 497.681 39.7709C496.829 39.2726 495.857 39.0209 494.872 39.0436C493.245 39.0165 491.667 39.6 490.448 40.6799C489.209 41.7708 488.59 43.8313 488.59 46.8766V59.8457H484.574Z" fill="#263238"/>
<path d="M525.329 59.8456V56.8155C524.642 57.9469 523.664 58.8717 522.497 59.4929C521.331 60.114 520.019 60.4086 518.7 60.3456C516.857 60.3718 515.048 59.8441 513.506 58.8305C511.89 57.7494 510.613 56.2313 509.821 54.452C508.924 52.4267 508.481 50.2287 508.523 48.0129C508.491 45.8049 508.891 43.6121 509.701 41.5586C510.385 39.7392 511.627 38.1848 513.249 37.1195C514.822 36.1003 516.662 35.573 518.534 35.6044C519.858 35.5811 521.167 35.8938 522.339 36.5134C523.416 37.0716 524.347 37.876 525.057 38.8618V27.0593H529.044V59.8456H525.329ZM512.645 47.9977C512.462 50.4262 513.142 52.8413 514.563 54.8156C515.099 55.5108 515.785 56.075 516.569 56.466C517.354 56.857 518.217 57.0646 519.093 57.073C519.962 57.0821 520.823 56.8916 521.608 56.5161C522.393 56.1406 523.082 55.59 523.623 54.9065C524.988 53.0004 525.635 50.6707 525.45 48.331C525.657 45.7981 524.996 43.2701 523.577 41.1647C523.038 40.4532 522.341 39.8774 521.542 39.483C520.743 39.0885 519.863 38.8862 518.972 38.8921C518.099 38.8744 517.235 39.0625 516.448 39.4415C515.661 39.8205 514.974 40.3796 514.442 41.0738C513.075 43.1095 512.442 45.5519 512.645 47.9977Z" fill="#263238"/>
</g>
<path d="M377.5 133.039C392.962 133.039 405.496 120.463 405.496 104.95C405.496 89.4362 392.962 76.8601 377.5 76.8601C362.039 76.8601 349.505 89.4362 349.505 104.95C349.505 120.463 362.039 133.039 377.5 133.039Z" fill="#263238"/>
<path d="M377.5 128.857C390.659 128.857 401.327 118.153 401.327 104.949C401.327 91.7455 390.659 81.0415 377.5 81.0415C364.34 81.0415 353.672 91.7455 353.672 104.949C353.672 118.153 364.34 128.857 377.5 128.857Z" fill="white"/>
<path d="M393.612 99.7983H382.438L391.815 71.9663L361.388 110.101H372.562L363.185 137.933L393.612 99.7983Z" fill="#0E515B"/>
<path d="M394.568 125.407L397.899 122.065L360.432 84.472L357.101 87.8145L394.568 125.407Z" fill="#263238"/>
</svg>
