<svg width="639" height="316" viewBox="0 0 639 316" fill="none" xmlns="http://www.w3.org/2000/svg">
<path d="M590.082 33.171C588.775 32.4355 588.183 33.0461 587.705 32.4355C587.227 31.8249 589.011 30.2359 585.449 28.6469C585.449 28.6469 585.213 25.2192 580.345 25.0943C575.476 24.9694 576.789 28.522 575.483 29.3755C574.177 30.229 573.82 28.8898 572.514 29.7433C571.207 30.5967 571.8 32.3106 570.736 32.5604C569.672 32.8102 568.244 31.4571 566.938 32.3106C565.632 33.1641 565.632 33.8996 565.039 33.8996C564.447 33.8996 563.262 33.4139 562.548 33.8996C561.834 34.3853 561.006 35.0028 561.006 35.0028H591.011C591.096 34.6334 591.049 34.2445 590.879 33.9079C590.708 33.5713 590.425 33.3096 590.082 33.171Z" stroke="#92989B" stroke-linecap="round" stroke-linejoin="round"/>
<path d="M572.318 32.6646C572.148 32.7647 571.97 32.8506 571.786 32.9213" stroke="#92989B" stroke-linecap="round" stroke-linejoin="round"/>
<path d="M578.742 26.9539C578.448 27.0892 578.189 27.2952 577.987 27.5548C577.786 27.8143 577.647 28.1198 577.584 28.4457C577.362 29.5628 576.857 30.3122 576.278 30.3885C575.699 30.4649 573.524 30.2359 573.167 31.0824C573.068 31.3226 572.998 31.5742 572.958 31.8318" stroke="#92989B" stroke-linecap="round" stroke-linejoin="round"/>
<path d="M569.308 32.3938H571.396" stroke="#92989B" stroke-linecap="round" stroke-linejoin="round"/>
<path d="M587.705 32.3939H601.737C601.737 32.3939 602.869 28.9245 598.734 26.5861C594.6 24.2478 592.714 26.1976 591.213 24.2617C589.711 22.3257 595.347 17.2882 584.068 12.2506C584.068 12.2506 583.314 1.3984 567.908 1.00983C552.501 0.621262 556.622 11.8621 552.488 14.5751C548.353 17.2882 547.229 13.0208 543.061 15.7339C538.893 18.447 540.825 23.9008 537.445 24.6502C534.065 25.3996 529.546 21.1808 525.412 23.8731C521.278 26.5653 521.278 28.9106 519.392 28.9106C517.507 28.9106 513.756 27.3633 511.5 28.9106C509.245 30.458 506.612 32.38 506.612 32.38H566.938" stroke="#92989B" stroke-linecap="round" stroke-linejoin="round"/>
<path d="M542.455 24.9902C541.917 25.3072 541.357 25.581 540.778 25.809" stroke="#92989B" stroke-linecap="round" stroke-linejoin="round"/>
<path d="M544.495 22.2773C544.627 21.4592 544.853 20.6603 545.168 19.8973C546.313 17.2953 553.195 18.01 555.033 17.774C556.871 17.5381 558.474 15.172 559.161 11.6263C559.364 10.5928 559.803 9.62413 560.443 8.80101C561.082 7.97788 561.903 7.32408 562.837 6.89404" stroke="#92989B" stroke-linecap="round" stroke-linejoin="round"/>
<path d="M392.585 32.7824C390.699 31.7208 389.844 32.602 389.157 31.7208C388.471 30.8396 391.043 28.5428 385.905 26.2461C385.905 26.2461 385.562 21.3057 378.538 21.1322C371.515 20.9588 373.401 26.0726 371.495 27.3077C369.589 28.5428 369.098 26.6139 367.213 27.8351C365.327 29.0563 366.202 31.5335 364.66 31.9012C363.118 32.269 361.065 30.3122 359.179 31.5473C357.294 32.7824 357.294 33.8371 356.439 33.8371C355.584 33.8371 353.867 33.1433 352.843 33.8371C351.819 34.531 350.621 35.4261 350.621 35.4261H393.965C393.965 35.4261 394.47 33.8371 392.585 32.7824Z" stroke="#92989B" stroke-linecap="round" stroke-linejoin="round"/>
<path d="M366.943 32.054C366.699 32.1976 366.444 32.3228 366.182 32.4286" stroke="#92989B" stroke-linecap="round" stroke-linejoin="round"/>
<path d="M376.209 23.8108C375.783 24.009 375.409 24.3097 375.12 24.6877C374.831 25.0657 374.634 25.5098 374.545 25.9826C374.229 27.5994 373.502 28.6818 372.667 28.7581C371.832 28.8345 368.694 28.543 368.169 29.7296C368.028 30.0862 367.928 30.4589 367.872 30.8398" stroke="#92989B" stroke-linecap="round" stroke-linejoin="round"/>
<path d="M585.759 137.503C584.331 136.705 583.685 137.371 583.166 136.705C582.648 136.038 584.594 134.297 580.702 132.541C580.702 132.541 580.439 128.801 575.12 128.663C569.8 128.524 571.227 132.409 569.8 133.346C568.372 134.283 567.982 132.812 566.554 133.749C565.127 134.685 565.78 136.524 564.608 136.823C563.437 137.121 561.881 135.622 560.46 136.552C559.04 137.482 559.033 138.294 558.38 138.294C557.727 138.294 556.434 137.759 555.653 138.294C554.872 138.828 553.969 139.494 553.969 139.494H586.802C586.802 139.494 587.186 138.307 585.759 137.503Z" stroke="#92989B" stroke-linecap="round" stroke-linejoin="round"/>
<path d="M566.339 136.954C566.152 137.063 565.959 137.158 565.76 137.239" stroke="#92989B" stroke-linecap="round" stroke-linejoin="round"/>
<path d="M573.362 130.709C573.04 130.858 572.758 131.083 572.538 131.367C572.317 131.65 572.166 131.984 572.096 132.34C571.86 133.568 571.302 134.38 570.669 134.463C570.036 134.547 567.659 134.297 567.268 135.199C567.159 135.46 567.084 135.736 567.046 136.018" stroke="#92989B" stroke-linecap="round" stroke-linejoin="round"/>
<path d="M317 226.201L567.16 290.53" stroke="#808080" stroke-linecap="round" stroke-linejoin="round"/>
<path d="M484.573 269.623L638.146 199.799" stroke="#808080" stroke-linecap="round" stroke-linejoin="round"/>
<path d="M323.956 201.027C323.956 201.027 334.932 202.144 340.521 209.166C340.521 209.166 346.399 201.041 356.951 201.207C359.526 198 361.164 194.105 361.675 189.975C362.186 185.845 361.548 181.651 359.836 177.881C358.124 174.11 355.408 170.918 352.005 168.675C348.601 166.433 344.649 165.232 340.61 165.214C336.57 165.195 332.608 166.359 329.185 168.57C325.762 170.78 323.018 173.947 321.274 177.702C319.529 181.457 318.855 185.645 319.33 189.779C319.804 193.913 321.409 197.823 323.956 201.055V201.027Z" fill="#18A0B5"/>
<path opacity="0.4" d="M323.956 201.027C323.956 201.027 334.932 202.144 340.521 209.166C340.521 209.166 346.399 201.041 356.951 201.207C359.526 198 361.164 194.105 361.675 189.975C362.186 185.845 361.548 181.651 359.836 177.881C358.124 174.11 355.408 170.918 352.005 168.675C348.601 166.433 344.649 165.232 340.61 165.214C336.57 165.195 332.608 166.359 329.185 168.57C325.762 170.78 323.018 173.947 321.274 177.702C319.529 181.457 318.855 185.645 319.33 189.779C319.804 193.913 321.409 197.823 323.956 201.055V201.027Z" fill="white"/>
<path d="M341.214 232.543L340.13 175.062L339.861 232.196L341.214 232.543Z" fill="#828282"/>
<path d="M340.682 207.022C340.682 207.022 344.392 200.146 351.059 198.064C351.059 198.064 344.022 199.778 340.5 205.697L340.682 207.022Z" fill="#828282"/>
<path d="M340.406 187.933C340.406 187.933 344.392 180.675 351.059 178.58C351.059 178.58 343.955 180.571 340.433 186.49L340.406 187.933Z" fill="#828282"/>
<path d="M340.521 197.53C340.521 197.53 344.392 190.431 351.059 188.35C351.059 188.35 344.022 190.063 340.5 195.982L340.521 197.53Z" fill="#828282"/>
<path d="M340.137 192.513C340.137 192.513 336.561 185.643 330.124 183.541C330.124 183.541 336.918 185.262 340.312 191.174L340.137 192.513Z" fill="#828282"/>
<path d="M340.137 202.054C340.137 202.054 336.561 195.184 330.124 193.082C330.124 193.082 336.918 194.803 340.312 200.715L340.137 202.054Z" fill="#828282"/>
<path d="M357.752 219.796C357.752 219.796 364.755 220.49 368.31 224.986C369.586 223.393 371.188 222.112 373.002 221.233C374.816 220.355 376.797 219.902 378.801 219.907C380.445 217.86 381.491 215.374 381.818 212.738C382.144 210.102 381.737 207.425 380.645 205.018C379.552 202.611 377.819 200.573 375.646 199.142C373.474 197.71 370.951 196.944 368.373 196.932C365.794 196.92 363.265 197.663 361.08 199.074C358.895 200.486 357.144 202.507 356.031 204.904C354.917 207.301 354.488 209.974 354.791 212.613C355.094 215.252 356.119 217.748 357.745 219.81L357.752 219.796Z" fill="#18A0B5"/>
<path opacity="0.2" d="M357.752 219.796C357.752 219.796 364.755 220.49 368.31 224.986C369.586 223.393 371.188 222.112 373.002 221.233C374.816 220.355 376.797 219.902 378.801 219.907C380.445 217.86 381.491 215.374 381.818 212.738C382.144 210.102 381.737 207.425 380.645 205.018C379.552 202.611 377.819 200.573 375.646 199.142C373.474 197.71 370.951 196.944 368.373 196.932C365.794 196.92 363.265 197.663 361.08 199.074C358.895 200.486 357.144 202.507 356.031 204.904C354.917 207.301 354.488 209.974 354.791 212.613C355.094 215.252 356.119 217.748 357.745 219.81L357.752 219.796Z" fill="white"/>
<path d="M368.768 239.919L368.074 203.219L367.906 239.697L368.768 239.919Z" fill="#828282"/>
<path d="M368.431 223.626C368.431 223.626 370.795 219.241 375.057 217.895C375.057 217.895 370.559 218.991 368.324 222.752L368.431 223.626Z" fill="#828282"/>
<path d="M368.256 211.435C368.256 211.435 370.795 206.807 375.057 205.468C375.057 205.468 370.519 206.737 368.27 210.512L368.256 211.435Z" fill="#828282"/>
<path d="M368.324 217.569C368.324 217.569 370.795 213.024 375.057 211.685C375.057 211.685 370.559 212.781 368.324 216.542V217.569Z" fill="#828282"/>
<path d="M368.081 214.363C368.081 214.363 365.798 209.978 361.691 208.632C361.691 208.632 366.027 209.728 368.196 213.489L368.081 214.363Z" fill="#828282"/>
<path d="M368.081 220.455C368.081 220.455 365.798 216.105 361.691 214.717C361.691 214.717 366.027 215.813 368.196 219.574L368.081 220.455Z" fill="#828282"/>
<path d="M455.167 244.554C455.167 244.554 462.177 245.248 465.725 249.744C467.003 248.151 468.607 246.87 470.422 245.992C472.237 245.113 474.218 244.66 476.223 244.665C477.869 242.617 478.918 240.129 479.245 237.492C479.573 234.854 479.167 232.175 478.074 229.765C476.982 227.356 475.248 225.316 473.074 223.884C470.9 222.451 468.375 221.684 465.795 221.672C463.214 221.66 460.683 222.404 458.497 223.816C456.31 225.229 454.559 227.253 453.445 229.652C452.331 232.051 451.902 234.726 452.207 237.367C452.512 240.008 453.538 242.505 455.167 244.568V244.554Z" fill="#18A0B5"/>
<path opacity="0.4" d="M455.167 244.554C455.167 244.554 462.177 245.248 465.725 249.744C467.003 248.151 468.607 246.87 470.422 245.992C472.237 245.113 474.218 244.66 476.223 244.665C477.869 242.617 478.918 240.129 479.245 237.492C479.573 234.854 479.167 232.175 478.074 229.765C476.982 227.356 475.248 225.316 473.074 223.884C470.9 222.451 468.375 221.684 465.795 221.672C463.214 221.66 460.683 222.404 458.497 223.816C456.31 225.229 454.559 227.253 453.445 229.652C452.331 232.051 451.902 234.726 452.207 237.367C452.512 240.008 453.538 242.505 455.167 244.568V244.554Z" fill="white"/>
<path d="M466.19 264.704L465.496 228.005L465.321 264.482L466.19 264.704Z" fill="#828282"/>
<path d="M465.853 248.412C465.853 248.412 468.217 244.019 472.472 242.68C472.472 242.68 467.981 243.777 465.739 247.537L465.853 248.412Z" fill="#828282"/>
<path d="M465.671 236.227C465.671 236.227 468.217 231.599 472.472 230.26C472.472 230.26 467.941 231.53 465.692 235.305L465.671 236.227Z" fill="#828282"/>
<path d="M465.766 242.347C465.766 242.347 468.237 237.809 472.499 236.463C472.499 236.463 468.008 237.559 465.766 241.32V242.347Z" fill="#828282"/>
<path d="M465.503 239.148C465.503 239.148 463.22 234.756 459.113 233.417C459.113 233.417 463.449 234.513 465.618 238.274L465.503 239.148Z" fill="#828282"/>
<path d="M465.503 245.248C465.503 245.248 463.22 240.862 459.113 239.516C459.113 239.516 463.449 240.619 465.618 244.373L465.503 245.248Z" fill="#828282"/>
<path d="M558.178 211.539C558.178 211.539 565.181 212.233 568.736 216.729C570.012 215.136 571.614 213.855 573.428 212.977C575.242 212.098 577.223 211.645 579.227 211.65C580.875 209.603 581.924 207.115 582.252 204.477C582.581 201.839 582.175 199.159 581.083 196.749C579.991 194.339 578.256 192.299 576.082 190.866C573.908 189.432 571.383 188.665 568.802 188.653C566.221 188.641 563.69 189.385 561.503 190.798C559.317 192.211 557.565 194.236 556.451 196.635C555.338 199.035 554.909 201.711 555.215 204.352C555.521 206.993 556.548 209.49 558.178 211.553V211.539Z" fill="#18A0B5"/>
<path opacity="0.2" d="M558.178 211.539C558.178 211.539 565.181 212.233 568.736 216.729C570.012 215.136 571.614 213.855 573.428 212.977C575.242 212.098 577.223 211.645 579.227 211.65C580.875 209.603 581.924 207.115 582.252 204.477C582.581 201.839 582.175 199.159 581.083 196.749C579.991 194.339 578.256 192.299 576.082 190.866C573.908 189.432 571.383 188.665 568.802 188.653C566.221 188.641 563.69 189.385 561.503 190.798C559.317 192.211 557.565 194.236 556.451 196.635C555.338 199.035 554.909 201.711 555.215 204.352C555.521 206.993 556.548 209.49 558.178 211.553V211.539Z" fill="white"/>
<path d="M569.194 231.065L568.5 194.955L568.332 231.439L569.194 231.065Z" fill="#828282"/>
<path d="M568.857 215.362C568.857 215.362 571.221 210.977 575.483 209.638C575.483 209.638 570.985 210.734 568.75 214.495L568.857 215.362Z" fill="#828282"/>
<path d="M568.682 203.178C568.682 203.178 571.221 198.543 575.483 197.204C575.483 197.204 570.945 198.473 568.696 202.255L568.682 203.178Z" fill="#828282"/>
<path d="M568.75 209.305C568.75 209.305 571.221 204.76 575.483 203.421C575.483 203.421 570.985 204.517 568.75 208.278V209.305Z" fill="#828282"/>
<path d="M568.507 206.099C568.507 206.099 566.224 201.714 562.117 200.375C562.117 200.375 566.453 201.471 568.622 205.232L568.507 206.099Z" fill="#828282"/>
<path d="M568.507 212.198C568.507 212.198 566.224 207.806 562.117 206.467C562.117 206.467 566.453 207.563 568.622 211.324L568.507 212.198Z" fill="#828282"/>
<path d="M581.725 193.817C581.725 193.817 590.782 194.74 595.374 200.527C597.023 198.466 599.096 196.808 601.442 195.673C603.789 194.538 606.35 193.954 608.942 193.963C611.074 191.316 612.432 188.1 612.858 184.688C613.283 181.277 612.76 177.811 611.348 174.694C609.936 171.577 607.694 168.938 604.883 167.084C602.072 165.23 598.807 164.237 595.469 164.22C592.131 164.204 588.858 165.166 586.03 166.993C583.202 168.82 580.936 171.437 579.495 174.54C578.055 177.643 577.5 181.103 577.895 184.519C578.29 187.934 579.618 191.164 581.725 193.831V193.817Z" fill="#18A0B5"/>
<path opacity="0.4" d="M581.725 193.817C581.725 193.817 590.782 194.74 595.374 200.527C597.023 198.466 599.096 196.808 601.442 195.673C603.789 194.538 606.35 193.954 608.942 193.963C611.074 191.316 612.432 188.1 612.858 184.688C613.283 181.277 612.76 177.811 611.348 174.694C609.936 171.577 607.694 168.938 604.883 167.084C602.072 165.23 598.807 164.237 595.469 164.22C592.131 164.204 588.858 165.166 586.03 166.993C583.202 168.82 580.936 171.437 579.495 174.54C578.055 177.643 577.5 181.103 577.895 184.519C578.29 187.934 579.618 191.164 581.725 193.831V193.817Z" fill="white"/>
<path d="M595.973 219.068L595.078 172.384L594.856 219.546L595.973 219.068Z" fill="#828282"/>
<path d="M595.536 198.758C595.536 198.758 598.593 193.082 604.101 191.354C604.101 191.354 598.29 192.742 595.381 197.655L595.536 198.758Z" fill="#828282"/>
<path d="M595.307 183.007C595.307 183.007 598.593 177.019 604.101 175.284C604.101 175.284 598.236 176.928 595.347 181.813L595.307 183.007Z" fill="#828282"/>
<path d="M595.394 190.931C595.394 190.931 598.593 185.054 604.101 183.298C604.101 183.298 598.29 184.721 595.381 189.606L595.394 190.931Z" fill="#828282"/>
<path d="M595.085 186.788C595.085 186.788 592.129 181.113 586.823 179.385C586.823 179.385 592.425 180.773 595.233 185.685L595.085 186.788Z" fill="#828282"/>
<path d="M595.085 194.664C595.085 194.664 592.129 188.995 586.823 187.26C586.823 187.26 592.425 188.683 595.233 193.568L595.085 194.664Z" fill="#828282"/>
<path d="M1 250.98L251.16 315.31" stroke="#808080" stroke-linecap="round" stroke-linejoin="round"/>
<path d="M168.573 294.403L322.146 224.578" stroke="#808080" stroke-linecap="round" stroke-linejoin="round"/>
<path d="M7.95582 225.807C7.95582 225.807 18.9316 226.924 24.5205 233.946C24.5205 233.946 30.3989 225.821 40.9505 225.987C43.5256 222.779 45.1639 218.884 45.6747 214.755C46.1856 210.625 45.5479 206.431 43.8361 202.66C42.1242 198.89 39.4084 195.697 36.0048 193.455C32.6011 191.212 28.6495 190.012 24.6097 189.993C20.5698 189.975 16.6079 191.138 13.1848 193.349C9.76177 195.56 7.01831 198.727 5.27364 202.482C3.52897 206.237 2.85484 210.425 3.32966 214.559C3.80449 218.693 5.40876 222.603 7.95582 225.834V225.807Z" fill="#18A0B5"/>
<path opacity="0.4" d="M7.95582 225.807C7.95582 225.807 18.9316 226.924 24.5205 233.946C24.5205 233.946 30.3989 225.821 40.9505 225.987C43.5256 222.779 45.1639 218.884 45.6747 214.755C46.1856 210.625 45.5479 206.431 43.8361 202.66C42.1242 198.89 39.4084 195.697 36.0048 193.455C32.6011 191.212 28.6495 190.012 24.6097 189.993C20.5698 189.975 16.6079 191.138 13.1848 193.349C9.76177 195.56 7.01831 198.727 5.27364 202.482C3.52897 206.237 2.85484 210.425 3.32966 214.559C3.80449 218.693 5.40876 222.603 7.95582 225.834V225.807Z" fill="white"/>
<path d="M25.2141 257.323L24.13 199.842L23.8606 256.976L25.2141 257.323Z" fill="#828282"/>
<path d="M24.6821 231.802C24.6821 231.802 28.3923 224.925 35.0586 222.844C35.0586 222.844 28.022 224.558 24.5003 230.476L24.6821 231.802Z" fill="#828282"/>
<path d="M24.406 212.713C24.406 212.713 28.3923 205.455 35.0586 203.36C35.0586 203.36 27.9546 205.351 24.433 211.27L24.406 212.713Z" fill="#828282"/>
<path d="M24.5205 222.309C24.5205 222.309 28.3923 215.211 35.0586 213.129C35.0586 213.129 28.022 214.843 24.5003 220.762L24.5205 222.309Z" fill="#828282"/>
<path d="M24.1367 217.293C24.1367 217.293 20.5611 210.423 14.1238 208.321C14.1238 208.321 20.918 210.042 24.3118 215.953L24.1367 217.293Z" fill="#828282"/>
<path d="M24.1367 226.834C24.1367 226.834 20.5611 219.964 14.1238 217.862C14.1238 217.862 20.918 219.583 24.3118 225.494L24.1367 226.834Z" fill="#828282"/>
<path d="M41.7518 244.576C41.7518 244.576 48.7548 245.27 52.3101 249.766C53.5859 248.173 55.1884 246.892 57.0025 246.013C58.8165 245.135 60.7968 244.682 62.8011 244.687C64.4451 242.64 65.4912 240.154 65.8176 237.518C66.144 234.882 65.7372 232.205 64.6447 229.798C63.5522 227.391 61.8188 225.353 59.6462 223.921C57.4737 222.49 54.9513 221.724 52.3727 221.712C49.794 221.7 47.2651 222.443 45.0802 223.854C42.8953 225.266 41.1443 227.287 40.0309 229.684C38.9175 232.081 38.4875 234.754 38.791 237.393C39.0944 240.032 40.1189 242.527 41.7451 244.59L41.7518 244.576Z" fill="#18A0B5"/>
<path opacity="0.2" d="M41.7518 244.576C41.7518 244.576 48.7548 245.27 52.3101 249.766C53.5859 248.173 55.1884 246.892 57.0025 246.013C58.8165 245.135 60.7968 244.682 62.8011 244.687C64.4451 242.64 65.4912 240.154 65.8176 237.518C66.144 234.882 65.7372 232.205 64.6447 229.798C63.5522 227.391 61.8188 225.353 59.6462 223.921C57.4737 222.49 54.9513 221.724 52.3727 221.712C49.794 221.7 47.2651 222.443 45.0802 223.854C42.8953 225.266 41.1443 227.287 40.0309 229.684C38.9175 232.081 38.4875 234.754 38.791 237.393C39.0944 240.032 40.1189 242.527 41.7451 244.59L41.7518 244.576Z" fill="white"/>
<path d="M52.768 264.698L52.0744 227.999L51.9061 264.476L52.768 264.698Z" fill="#828282"/>
<path d="M52.4313 248.406C52.4313 248.406 54.7948 244.021 59.0572 242.675C59.0572 242.675 54.5591 243.771 52.3236 247.532L52.4313 248.406Z" fill="#828282"/>
<path d="M52.2562 236.215C52.2562 236.215 54.7948 231.586 59.0572 230.247C59.0572 230.247 54.5187 231.517 52.2697 235.292L52.2562 236.215Z" fill="#828282"/>
<path d="M52.3236 242.349C52.3236 242.349 54.7948 237.804 59.0572 236.465C59.0572 236.465 54.5591 237.561 52.3236 241.322V242.349Z" fill="#828282"/>
<path d="M52.0812 239.143C52.0812 239.143 49.7985 234.757 45.691 233.411C45.691 233.411 50.0274 234.508 52.1956 238.269L52.0812 239.143Z" fill="#828282"/>
<path d="M52.0812 245.235C52.0812 245.235 49.7985 240.885 45.691 239.497C45.691 239.497 50.0274 240.593 52.1956 244.354L52.0812 245.235Z" fill="#828282"/>
<path d="M139.167 269.333C139.167 269.333 146.177 270.027 149.725 274.524C151.003 272.931 152.607 271.65 154.422 270.771C156.237 269.893 158.218 269.44 160.223 269.444C161.869 267.397 162.918 264.909 163.245 262.272C163.573 259.634 163.167 256.954 162.074 254.545C160.982 252.136 159.248 250.096 157.074 248.663C154.9 247.23 152.375 246.463 149.795 246.452C147.214 246.44 144.683 247.183 142.497 248.596C140.31 250.009 138.559 252.033 137.445 254.432C136.331 256.831 135.902 259.506 136.207 262.147C136.512 264.787 137.538 267.285 139.167 269.347V269.333Z" fill="#18A0B5"/>
<path opacity="0.4" d="M139.167 269.333C139.167 269.333 146.177 270.027 149.725 274.524C151.003 272.931 152.607 271.65 154.422 270.771C156.237 269.893 158.218 269.44 160.223 269.444C161.869 267.397 162.918 264.909 163.245 262.272C163.573 259.634 163.167 256.954 162.074 254.545C160.982 252.136 159.248 250.096 157.074 248.663C154.9 247.23 152.375 246.463 149.795 246.452C147.214 246.44 144.683 247.183 142.497 248.596C140.31 250.009 138.559 252.033 137.445 254.432C136.331 256.831 135.902 259.506 136.207 262.147C136.512 264.787 137.538 267.285 139.167 269.347V269.333Z" fill="white"/>
<path d="M150.19 289.484L149.496 252.784L149.321 289.262L150.19 289.484Z" fill="#828282"/>
<path d="M149.853 273.191C149.853 273.191 152.217 268.799 156.472 267.46C156.472 267.46 151.981 268.556 149.739 272.317L149.853 273.191Z" fill="#828282"/>
<path d="M149.671 261.007C149.671 261.007 152.217 256.379 156.472 255.04C156.472 255.04 151.941 256.31 149.692 260.084L149.671 261.007Z" fill="#828282"/>
<path d="M149.766 267.127C149.766 267.127 152.237 262.589 156.499 261.243C156.499 261.243 152.008 262.339 149.766 266.1V267.127Z" fill="#828282"/>
<path d="M149.503 263.928C149.503 263.928 147.22 259.536 143.113 258.197C143.113 258.197 147.449 259.293 149.618 263.054L149.503 263.928Z" fill="#828282"/>
<path d="M149.503 270.027C149.503 270.027 147.22 265.642 143.113 264.296C143.113 264.296 147.449 265.399 149.618 269.153L149.503 270.027Z" fill="#828282"/>
<path d="M242.178 236.319C242.178 236.319 249.181 237.013 252.736 241.509C254.012 239.916 255.614 238.635 257.428 237.756C259.242 236.878 261.223 236.425 263.227 236.43C264.875 234.383 265.924 231.895 266.252 229.257C266.581 226.619 266.175 223.939 265.083 221.529C263.991 219.119 262.256 217.079 260.082 215.645C257.908 214.212 255.383 213.445 252.802 213.433C250.221 213.421 247.69 214.165 245.503 215.578C243.317 216.991 241.565 219.016 240.451 221.415C239.338 223.815 238.909 226.491 239.215 229.132C239.521 231.773 240.548 234.27 242.178 236.333V236.319Z" fill="#18A0B5"/>
<path opacity="0.2" d="M242.178 236.319C242.178 236.319 249.181 237.013 252.736 241.509C254.012 239.916 255.614 238.635 257.428 237.756C259.242 236.878 261.223 236.425 263.227 236.43C264.875 234.383 265.924 231.895 266.252 229.257C266.581 226.619 266.175 223.939 265.083 221.529C263.991 219.119 262.256 217.079 260.082 215.645C257.908 214.212 255.383 213.445 252.802 213.433C250.221 213.421 247.69 214.165 245.503 215.578C243.317 216.991 241.565 219.016 240.451 221.415C239.338 223.815 238.909 226.491 239.215 229.132C239.521 231.773 240.548 234.27 242.178 236.333V236.319Z" fill="white"/>
<path d="M253.194 255.844L252.5 219.735L252.332 256.219L253.194 255.844Z" fill="#828282"/>
<path d="M252.857 240.142C252.857 240.142 255.221 235.757 259.483 234.418C259.483 234.418 254.985 235.514 252.749 239.275L252.857 240.142Z" fill="#828282"/>
<path d="M252.682 227.958C252.682 227.958 255.221 223.323 259.483 221.983C259.483 221.983 254.945 223.253 252.696 227.035L252.682 227.958Z" fill="#828282"/>
<path d="M252.749 234.085C252.749 234.085 255.221 229.54 259.483 228.2C259.483 228.2 254.985 229.297 252.749 233.058V234.085Z" fill="#828282"/>
<path d="M252.507 230.879C252.507 230.879 250.224 226.493 246.117 225.154C246.117 225.154 250.453 226.251 252.622 230.011L252.507 230.879Z" fill="#828282"/>
<path d="M252.507 236.978C252.507 236.978 250.224 232.586 246.117 231.247C246.117 231.247 250.453 232.343 252.622 236.104L252.507 236.978Z" fill="#828282"/>
<path d="M265.725 218.597C265.725 218.597 274.782 219.52 279.374 225.307C281.023 223.246 283.096 221.588 285.442 220.453C287.789 219.318 290.35 218.734 292.942 218.743C295.074 216.096 296.432 212.879 296.857 209.468C297.283 206.057 296.76 202.591 295.348 199.474C293.936 196.357 291.694 193.718 288.883 191.864C286.072 190.009 282.807 189.016 279.469 189C276.131 188.984 272.858 189.945 270.03 191.772C267.202 193.599 264.936 196.217 263.495 199.32C262.055 202.423 261.5 205.883 261.895 209.299C262.29 212.714 263.618 215.944 265.725 218.611V218.597Z" fill="#18A0B5"/>
<path opacity="0.4" d="M265.725 218.597C265.725 218.597 274.782 219.52 279.374 225.307C281.023 223.246 283.096 221.588 285.442 220.453C287.789 219.318 290.35 218.734 292.942 218.743C295.074 216.096 296.432 212.879 296.857 209.468C297.283 206.057 296.76 202.591 295.348 199.474C293.936 196.357 291.694 193.718 288.883 191.864C286.072 190.009 282.807 189.016 279.469 189C276.131 188.984 272.858 189.945 270.03 191.772C267.202 193.599 264.936 196.217 263.495 199.32C262.055 202.423 261.5 205.883 261.895 209.299C262.29 212.714 263.618 215.944 265.725 218.611V218.597Z" fill="white"/>
<path d="M279.973 243.847L279.078 197.163L278.856 244.326L279.973 243.847Z" fill="#828282"/>
<path d="M279.536 223.538C279.536 223.538 282.593 217.862 288.101 216.134C288.101 216.134 282.29 217.522 279.381 222.434L279.536 223.538Z" fill="#828282"/>
<path d="M279.307 207.787C279.307 207.787 282.593 201.798 288.101 200.064C288.101 200.064 282.236 201.708 279.347 206.593L279.307 207.787Z" fill="#828282"/>
<path d="M279.394 215.711C279.394 215.711 282.593 209.834 288.101 208.078C288.101 208.078 282.29 209.501 279.381 214.385L279.394 215.711Z" fill="#828282"/>
<path d="M279.085 211.568C279.085 211.568 276.129 205.892 270.823 204.165C270.823 204.165 276.425 205.552 279.233 210.465L279.085 211.568Z" fill="#828282"/>
<path d="M279.085 219.444C279.085 219.444 276.129 213.775 270.823 212.04C270.823 212.04 276.425 213.462 279.233 218.347L279.085 219.444Z" fill="#828282"/>
<path d="M362.62 307.079C362.372 306.122 361.92 305.233 361.296 304.478C360.673 303.723 359.895 303.121 359.018 302.715C356.946 301.674 354.795 300.808 352.587 300.126C353.658 301.788 354.981 303.262 356.506 304.491C358.442 305.754 360.489 306.827 362.62 307.697" fill="#18A0B5"/>
<path d="M373.448 314.351C373.199 313.393 372.746 312.504 372.121 311.749C371.497 310.994 370.717 310.392 369.839 309.986C367.769 308.946 365.621 308.083 363.415 307.405C364.486 309.067 365.809 310.54 367.334 311.77C369.271 313.042 371.32 314.122 373.455 314.996" fill="#18A0B5"/>
<path d="M365.132 304.331C364.883 303.373 364.43 302.484 363.805 301.729C363.181 300.974 362.401 300.372 361.523 299.967C359.451 298.926 357.3 298.061 355.092 297.379C356.164 299.042 357.49 300.515 359.018 301.743C360.953 303.016 363 304.098 365.132 304.977" fill="#18A0B5"/>
<path d="M375.481 311.117C375.235 310.16 374.784 309.271 374.16 308.517C373.537 307.763 372.757 307.162 371.879 306.76C369.802 305.718 367.647 304.853 365.435 304.172C366.506 305.833 367.829 307.307 369.354 308.536C371.289 309.809 373.336 310.891 375.468 311.77" fill="#18A0B5"/>
<path d="M367.017 301.368C366.711 299.456 365.691 297.743 364.176 296.595C362.586 295.495 360.891 294.565 359.119 293.819C359.917 295.547 360.956 297.146 362.203 298.565C363.677 299.917 365.292 301.097 367.017 302.083" fill="#18A0B5"/>
<path d="M376.357 308.113C375.764 306.283 374.504 304.762 372.842 303.873C371.116 303.025 369.311 302.36 367.455 301.889C368.499 303.472 369.763 304.889 371.206 306.094C372.861 307.195 374.629 308.105 376.478 308.807" fill="#18A0B5"/>
<path d="M369.367 297.809C369.054 295.908 368.037 294.207 366.532 293.063C364.942 291.954 363.248 291.012 361.475 290.252C362.271 291.982 363.31 293.582 364.559 294.999C366.033 296.349 367.645 297.528 369.367 298.517" fill="#18A0B5"/>
<path d="M379.616 302.722C378.73 301.023 377.238 299.746 375.454 299.162C373.601 298.637 371.702 298.304 369.785 298.17C371.082 299.54 372.565 300.708 374.189 301.639C376.004 302.432 377.898 303.016 379.838 303.381" fill="#18A0B5"/>
<path d="M371.408 294.513C371.193 292.961 370.445 291.541 369.3 290.509C368.14 289.58 366.884 288.784 365.556 288.136C366.135 289.572 366.903 290.92 367.839 292.14C368.913 293.266 370.111 294.26 371.408 295.103" fill="#18A0B5"/>
<path d="M379.387 298.676C378.639 297.319 377.445 296.283 376.02 295.755C374.606 295.332 373.152 295.067 371.684 294.964C372.735 296.082 373.931 297.044 375.239 297.823C376.639 298.456 378.106 298.921 379.609 299.21" fill="#18A0B5"/>
<path d="M373.286 290.808C373.076 289.256 372.33 287.835 371.185 286.804C370.027 285.879 368.776 285.084 367.455 284.431C368.033 285.869 368.803 287.217 369.744 288.435C370.818 289.561 372.013 290.558 373.306 291.404" fill="#18A0B5"/>
<path d="M381.683 294.874C380.894 293.535 379.666 292.531 378.222 292.043C376.797 291.663 375.336 291.442 373.865 291.384C374.945 292.476 376.167 293.41 377.495 294.159C378.912 294.759 380.392 295.19 381.905 295.443" fill="#18A0B5"/>
<path d="M376.114 287.255C375.901 285.703 375.153 284.282 374.007 283.251C372.182 281.766 371.67 281.364 371.67 281.364C371.566 281.981 371.59 282.613 371.741 283.22C371.892 283.826 372.166 284.393 372.546 284.882C373.622 286.006 374.82 287 376.114 287.845" fill="#18A0B5"/>
<path d="M382.693 291.474C381.91 290.129 380.684 289.119 379.239 288.629L376.377 287.831C376.513 288.441 376.773 289.014 377.141 289.512C377.51 290.01 377.977 290.421 378.511 290.717C379.926 291.324 381.404 291.762 382.915 292.022" fill="#18A0B5"/>
<path d="M378.646 284.375C378.919 282.835 378.647 281.244 377.879 279.893L376.209 277.339C375.92 277.89 375.748 278.498 375.705 279.123C375.662 279.747 375.749 280.374 375.959 280.961C376.635 282.38 377.467 283.714 378.437 284.937" fill="#18A0B5"/>
<path d="M385.252 287.817C384.364 286.544 383.061 285.643 381.582 285.277C379.293 284.84 378.66 284.729 378.66 284.729C378.845 285.326 379.151 285.874 379.559 286.339C379.966 286.803 380.466 287.172 381.023 287.421C382.481 287.904 383.988 288.211 385.514 288.337" fill="#18A0B5"/>
<path d="M381.899 282.162C382.487 280.719 382.554 279.107 382.087 277.617C381.252 275.376 381.016 274.758 381.016 274.758C380.621 275.231 380.328 275.785 380.157 276.383C379.985 276.981 379.938 277.61 380.02 278.228C380.38 279.763 380.911 281.251 381.602 282.662" fill="#18A0B5"/>
<path d="M388.093 284.868C387.147 283.643 385.803 282.81 384.309 282.523L381.367 282.12C381.58 282.706 381.912 283.239 382.341 283.683C382.769 284.126 383.284 284.471 383.851 284.695C385.334 285.103 386.856 285.336 388.39 285.389" fill="#18A0B5"/>
<path d="M384.249 281.031C385.769 281.025 387.236 280.456 388.383 279.428C390.06 277.763 390.518 277.298 390.518 277.298C389.938 277.108 389.327 277.047 388.723 277.119C388.12 277.191 387.538 277.393 387.016 277.714C385.776 278.656 384.646 279.744 383.649 280.954" fill="#18A0B5"/>
<path d="M361.994 308.717C361.944 308.717 361.895 308.706 361.849 308.684C361.804 308.662 361.764 308.631 361.731 308.592C361.703 308.556 361.682 308.516 361.67 308.472C361.657 308.428 361.653 308.382 361.658 308.337C361.663 308.292 361.677 308.248 361.699 308.208C361.721 308.168 361.75 308.134 361.785 308.106C365.256 304.907 368.096 301.048 370.148 296.74C373.731 289.364 379.212 282.939 383.797 280.781C383.838 280.755 383.883 280.739 383.93 280.732C383.977 280.726 384.025 280.73 384.071 280.744C384.116 280.758 384.158 280.782 384.194 280.814C384.23 280.846 384.259 280.885 384.279 280.929C384.3 280.974 384.31 281.022 384.311 281.071C384.312 281.12 384.302 281.169 384.284 281.214C384.265 281.259 384.237 281.299 384.202 281.332C384.167 281.365 384.125 281.39 384.08 281.406C379.623 283.536 374.269 289.843 370.754 297.087C368.652 301.481 365.746 305.416 362.196 308.675C362.135 308.71 362.064 308.725 361.994 308.717Z" fill="#18A0B5"/>
<path d="M602.189 301.868C601.942 300.91 601.491 300.022 600.868 299.268C600.244 298.514 599.464 297.913 598.586 297.511C596.514 296.47 594.363 295.604 592.156 294.922C593.226 296.584 594.55 298.058 596.074 299.287C598.01 300.559 600.057 301.642 602.189 302.52" fill="#18A0B5"/>
<path d="M613.016 309.147C612.767 308.189 612.314 307.3 611.69 306.545C611.065 305.79 610.286 305.188 609.407 304.782C607.335 303.742 605.184 302.876 602.976 302.194C604.047 303.856 605.371 305.329 606.895 306.559C608.833 307.832 610.882 308.914 613.016 309.792" fill="#18A0B5"/>
<path d="M604.7 299.12C604.452 298.163 603.998 297.275 603.374 296.521C602.75 295.767 601.97 295.166 601.091 294.763C599.019 293.721 596.869 292.855 594.66 292.175C595.735 293.836 597.06 295.309 598.586 296.539C600.521 297.812 602.568 298.894 604.7 299.773" fill="#18A0B5"/>
<path d="M615.057 305.913C614.807 304.955 614.354 304.066 613.73 303.311C613.106 302.556 612.326 301.954 611.447 301.549C609.375 300.508 607.225 299.643 605.017 298.961C606.088 300.622 607.411 302.096 608.936 303.325C610.873 304.598 612.922 305.681 615.057 306.559" fill="#18A0B5"/>
<path d="M606.586 296.157C606.273 294.255 605.254 292.553 603.744 291.411C602.155 290.314 600.463 289.384 598.694 288.636C599.49 290.364 600.527 291.962 601.771 293.382C603.247 294.73 604.861 295.907 606.586 296.893" fill="#18A0B5"/>
<path d="M615.925 302.909C615.336 301.077 614.077 299.554 612.417 298.662C610.69 297.818 608.885 297.153 607.03 296.678C608.074 298.261 609.338 299.677 610.781 300.883C612.439 301.985 614.209 302.897 616.06 303.603" fill="#18A0B5"/>
<path d="M608.936 292.605C608.623 290.704 607.607 289.002 606.101 287.859C604.513 286.745 602.818 285.801 601.044 285.042C601.839 286.771 602.879 288.371 604.128 289.788C605.599 291.14 607.211 292.32 608.936 293.306" fill="#18A0B5"/>
<path d="M619.184 297.51C618.297 295.814 616.805 294.538 615.023 293.951C613.172 293.426 611.275 293.096 609.36 292.966C610.653 294.338 612.134 295.507 613.757 296.435C615.572 297.228 617.467 297.812 619.406 298.177" fill="#18A0B5"/>
<path d="M610.976 289.316C610.761 287.764 610.014 286.344 608.868 285.312C607.706 284.386 606.451 283.59 605.124 282.939C605.702 284.376 606.47 285.724 607.407 286.943C608.483 288.07 609.68 289.067 610.976 289.913" fill="#18A0B5"/>
<path d="M618.955 293.444C618.209 292.085 617.014 291.046 615.588 290.516C614.175 290.093 612.721 289.83 611.252 289.732C612.305 290.848 613.501 291.81 614.807 292.591C616.211 293.223 617.679 293.688 619.184 293.979" fill="#18A0B5"/>
<path d="M612.855 285.597C612.645 284.047 611.899 282.627 610.754 281.6C609.591 280.671 608.333 279.875 607.003 279.227C607.586 280.663 608.356 282.01 609.292 283.23C610.367 284.354 611.562 285.348 612.855 286.193" fill="#18A0B5"/>
<path d="M621.251 289.656C620.463 288.318 619.235 287.316 617.79 286.832C616.367 286.439 614.906 286.206 613.434 286.138C614.512 287.233 615.734 288.167 617.063 288.913C618.481 289.514 619.961 289.944 621.474 290.197" fill="#18A0B5"/>
<path d="M615.683 282.023C615.468 280.471 614.72 279.051 613.575 278.019C611.75 276.535 611.238 276.132 611.238 276.132C611.134 276.749 611.158 277.381 611.309 277.988C611.46 278.594 611.734 279.161 612.114 279.65C613.189 280.777 614.387 281.774 615.683 282.62" fill="#18A0B5"/>
<path d="M622.262 286.263C621.478 284.921 620.256 283.912 618.814 283.418L615.925 282.62C616.064 283.23 616.328 283.802 616.7 284.297C617.072 284.793 617.542 285.2 618.08 285.493C619.495 286.099 620.972 286.537 622.484 286.797" fill="#18A0B5"/>
<path d="M618.215 279.164C618.488 277.624 618.215 276.033 617.447 274.682L615.804 272.128C615.515 272.68 615.343 273.29 615.3 273.915C615.257 274.541 615.344 275.169 615.555 275.757C616.232 277.173 617.063 278.505 618.033 279.726" fill="#18A0B5"/>
<path d="M624.82 282.606C623.933 281.334 622.63 280.435 621.15 280.073L618.228 279.518C618.413 280.115 618.72 280.665 619.127 281.13C619.535 281.596 620.034 281.966 620.592 282.217C622.053 282.696 623.562 283.003 625.09 283.133" fill="#18A0B5"/>
<path d="M621.467 276.958C622.055 275.512 622.122 273.898 621.655 272.406C620.82 270.165 620.585 269.554 620.585 269.554C620.189 270.026 619.895 270.58 619.723 271.178C619.551 271.776 619.505 272.406 619.588 273.024C619.949 274.559 620.48 276.047 621.171 277.457" fill="#18A0B5"/>
<path d="M627.662 279.657C626.715 278.432 625.371 277.599 623.878 277.312L620.935 276.909C621.147 277.496 621.479 278.029 621.908 278.473C622.336 278.917 622.852 279.261 623.42 279.483C624.902 279.89 626.425 280.123 627.958 280.177" fill="#18A0B5"/>
<path d="M623.817 275.827C625.337 275.821 626.804 275.252 627.951 274.224C629.628 272.559 630.086 272.094 630.086 272.094C629.508 271.902 628.896 271.839 628.292 271.91C627.689 271.981 627.107 272.183 626.584 272.503C625.357 273.448 624.239 274.536 623.251 275.743" fill="#18A0B5"/>
<path d="M601.562 303.533C601.512 303.532 601.462 303.52 601.417 303.497C601.372 303.474 601.332 303.442 601.3 303.401C601.245 303.33 601.22 303.238 601.23 303.147C601.24 303.056 601.284 302.973 601.354 302.916C604.829 299.72 607.673 295.863 609.73 291.557C613.313 284.181 618.794 277.749 623.379 275.556C623.42 275.53 623.465 275.514 623.512 275.507C623.559 275.501 623.607 275.505 623.653 275.519C623.698 275.533 623.74 275.557 623.776 275.589C623.812 275.621 623.841 275.66 623.861 275.705C623.881 275.749 623.892 275.797 623.893 275.846C623.894 275.895 623.884 275.944 623.865 275.989C623.847 276.034 623.819 276.074 623.784 276.107C623.749 276.14 623.707 276.165 623.662 276.181C619.211 278.318 613.851 284.618 610.336 291.862C608.232 296.25 605.329 300.179 601.785 303.436C601.723 303.493 601.645 303.527 601.562 303.533Z" fill="#18A0B5"/>
<path d="M344.5 299.419C344.5 299.419 341.228 298.218 337.49 300.806C335.056 302.528 332.762 304.449 330.629 306.552C333.104 306.374 335.534 305.786 337.827 304.81C340.965 303.311 345.194 299.828 345.194 299.828" fill="#18A0B5"/>
<path d="M360.721 295.422C360.721 295.422 357.873 293.382 353.611 294.867C350.825 295.873 348.122 297.11 345.53 298.565C347.97 299.06 350.471 299.147 352.937 298.822C356.351 298.225 361.314 296.005 361.314 296.005" fill="#18A0B5"/>
<path d="M343.113 294.798C343.113 294.798 339.847 293.597 336.11 296.185C333.675 297.907 331.378 299.829 329.242 301.931C331.73 301.753 334.174 301.162 336.48 300.182C339.584 298.676 343.813 295.207 343.813 295.207" fill="#18A0B5"/>
<path d="M358.028 287.623C358.028 287.623 354.755 286.422 351.025 289.01C348.586 290.728 346.289 292.65 344.157 294.756C346.631 294.576 349.061 293.988 351.355 293.014C354.499 291.515 358.762 288.032 358.762 288.032" fill="#18A0B5"/>
<path d="M341.1 290.759C338.846 289.912 336.361 290.002 334.171 291.009C331.963 292.132 329.872 293.482 327.929 295.04C327.929 295.04 332.016 295.373 335.012 294.499C337.408 293.663 339.706 292.557 341.867 291.203" fill="#18A0B5"/>
<path d="M354.311 284.299C351.958 283.82 349.517 284.303 347.503 285.645C345.485 287.099 343.617 288.761 341.928 290.606C341.928 290.606 346.022 290.294 348.85 288.962C351.09 287.756 353.195 286.299 355.126 284.618" fill="#18A0B5"/>
<path d="M338.743 285.805C336.488 284.962 334.004 285.054 331.814 286.061C329.606 287.18 327.514 288.529 325.572 290.086C325.572 290.086 329.659 290.419 332.656 289.552C335.048 288.711 337.344 287.603 339.504 286.249" fill="#18A0B5"/>
<path d="M350.54 277.166C348.142 277.111 345.816 278.019 344.056 279.699C342.316 281.492 340.755 283.461 339.396 285.576C339.396 285.576 343.376 284.542 345.941 282.724C347.946 281.142 349.776 279.336 351.395 277.339" fill="#18A0B5"/>
<path d="M336.48 281.385C334.668 280.646 332.657 280.604 330.817 281.267C329.079 282.004 327.424 282.935 325.882 284.042C327.802 284.288 329.747 284.257 331.659 283.952C333.555 283.428 335.387 282.683 337.12 281.732" fill="#18A0B5"/>
<path d="M345.995 274.828C344.047 274.829 342.164 275.55 340.689 276.861C339.338 278.213 338.132 279.711 337.093 281.329C338.966 280.827 340.763 280.061 342.433 279.053C344.01 277.85 345.449 276.464 346.722 274.925" fill="#18A0B5"/>
<path d="M333.652 276.868C331.839 276.132 329.83 276.09 327.989 276.75C326.251 277.491 324.594 278.421 323.047 279.525C324.967 279.77 326.912 279.74 328.824 279.435C330.724 278.915 332.559 278.17 334.292 277.215" fill="#18A0B5"/>
<path d="M343.362 269.804C341.414 269.861 339.55 270.637 338.11 271.99C336.795 273.383 335.63 274.918 334.635 276.569C336.494 276.015 338.27 275.2 339.914 274.148C341.457 272.897 342.858 271.47 344.089 269.894" fill="#18A0B5"/>
<path d="M331.592 271.379C329.779 270.64 327.769 270.598 325.929 271.261L322.407 272.746C323.009 273.257 323.709 273.631 324.461 273.843C325.213 274.055 326 274.099 326.77 273.974C328.667 273.45 330.499 272.705 332.231 271.754" fill="#18A0B5"/>
<path d="M340.325 266.494C338.376 266.539 336.507 267.305 335.06 268.652L332.366 271.428C333.112 271.659 333.897 271.723 334.67 271.616C335.442 271.51 336.183 271.235 336.844 270.81C338.394 269.568 339.801 268.148 341.039 266.577" fill="#18A0B5"/>
<path d="M330.083 266.64C328.588 265.349 326.694 264.653 324.744 264.676L320.946 264.947C321.36 265.626 321.91 266.207 322.559 266.651C323.208 267.095 323.941 267.392 324.71 267.521C326.671 267.645 328.639 267.535 330.575 267.195" fill="#18A0B5"/>
<path d="M337.982 261.207C336.045 261.423 334.248 262.349 332.918 263.816C330.999 266.168 330.474 266.827 330.474 266.827C331.236 266.991 332.024 266.986 332.784 266.812C333.544 266.639 334.26 266.301 334.884 265.821C336.329 264.448 337.617 262.909 338.723 261.235" fill="#18A0B5"/>
<path d="M329.747 261.512C328.557 259.928 326.856 258.835 324.952 258.431C322.003 257.966 321.188 257.848 321.188 257.848C321.448 258.605 321.862 259.296 322.402 259.876C322.942 260.455 323.596 260.909 324.319 261.207C326.209 261.761 328.154 262.092 330.117 262.192" fill="#18A0B5"/>
<path d="M336.595 256.1C334.671 256.415 332.922 257.432 331.666 258.966L329.363 262.095C330.132 262.221 330.918 262.176 331.67 261.964C332.421 261.752 333.119 261.378 333.72 260.867C335.096 259.422 336.309 257.82 337.335 256.093" fill="#18A0B5"/>
<path d="M330.016 258.091C330.97 256.343 331.283 254.299 330.898 252.332C330.157 249.355 329.942 248.53 329.942 248.53C329.37 249.075 328.917 249.739 328.613 250.479C328.309 251.218 328.16 252.015 328.178 252.818C328.421 254.825 328.887 256.797 329.565 258.695" fill="#18A0B5"/>
<path d="M345.497 301.306C345.417 301.306 345.34 301.276 345.28 301.223C345.22 301.169 345.179 301.096 345.167 301.015C343.91 294.985 341.534 289.262 338.17 284.16C332.44 275.397 328.993 265.051 329.518 258.431C329.526 258.341 329.569 258.257 329.637 258.198C329.705 258.14 329.793 258.111 329.881 258.119C329.925 258.122 329.968 258.133 330.008 258.153C330.047 258.173 330.083 258.201 330.111 258.236C330.14 258.27 330.162 258.31 330.176 258.353C330.19 258.396 330.195 258.442 330.191 258.487C329.673 264.982 333.107 275.14 338.729 283.786C342.146 288.971 344.558 294.789 345.833 300.918C345.84 300.963 345.838 301.009 345.827 301.053C345.817 301.097 345.798 301.139 345.772 301.176C345.745 301.212 345.712 301.244 345.674 301.267C345.636 301.291 345.594 301.306 345.55 301.313L345.497 301.306Z" fill="#18A0B5"/>
<path d="M587.348 299.932C587.348 299.932 584.748 297.566 580.351 298.544C577.468 299.209 574.642 300.114 571.901 301.251C574.263 302.033 576.732 302.417 579.213 302.389C582.668 302.201 587.853 300.598 587.853 300.598" fill="#18A0B5"/>
<path d="M603.879 302.451C603.879 302.451 601.966 299.467 597.475 299.211C594.524 299.078 591.567 299.191 588.634 299.551C590.718 300.942 593.005 301.98 595.408 302.624C598.775 303.367 604.195 303.214 604.195 303.214" fill="#18A0B5"/>
<path d="M587.732 295.11C587.732 295.11 585.132 292.744 580.735 293.722C577.852 294.386 575.026 295.291 572.285 296.428C574.647 297.21 577.116 297.597 579.597 297.573C583.052 297.386 588.237 295.776 588.237 295.776" fill="#18A0B5"/>
<path d="M604.155 294.159C604.155 294.159 601.556 291.793 597.159 292.771C594.275 293.436 591.449 294.341 588.708 295.477C591.072 296.25 593.541 296.627 596.021 296.595C599.475 296.407 604.66 294.797 604.66 294.797" fill="#18A0B5"/>
<path d="M587.321 290.592C585.534 288.943 583.193 288.074 580.796 288.171C578.343 288.367 575.915 288.818 573.551 289.517C573.551 289.517 577.227 291.39 580.318 291.73C582.842 291.87 585.373 291.724 587.866 291.293" fill="#18A0B5"/>
<path d="M601.912 289.656C599.906 288.302 597.467 287.804 595.111 288.268C592.716 288.849 590.384 289.677 588.149 290.738C588.149 290.738 592.061 292.015 595.165 291.869C597.685 291.61 600.169 291.066 602.572 290.246" fill="#18A0B5"/>
<path d="M586.923 285.09C585.135 283.442 582.796 282.574 580.399 282.668C577.945 282.863 575.518 283.314 573.153 284.014C573.153 284.014 576.83 285.895 579.887 286.235C582.411 286.375 584.942 286.228 587.435 285.798" fill="#18A0B5"/>
<path d="M600.997 281.572C598.792 280.603 596.308 280.553 594.068 281.433C591.806 282.43 589.647 283.66 587.624 285.104C587.624 285.104 591.664 285.666 594.728 284.965C597.16 284.262 599.511 283.288 601.737 282.058" fill="#18A0B5"/>
<path d="M586.418 280.122C585.003 278.741 583.153 277.931 581.207 277.839C579.323 277.862 577.446 278.095 575.611 278.533C577.303 279.495 579.116 280.212 580.998 280.663C582.947 280.909 584.918 280.92 586.87 280.698" fill="#18A0B5"/>
<path d="M597.616 277.679C595.806 276.936 593.797 276.884 591.953 277.534C590.211 278.272 588.552 279.202 587.004 280.309C588.924 280.563 590.868 280.541 592.782 280.247C594.682 279.733 596.519 278.998 598.256 278.054" fill="#18A0B5"/>
<path d="M585.422 274.842C584.005 273.464 582.156 272.656 580.21 272.566C578.326 272.589 576.45 272.821 574.614 273.26C576.306 274.222 578.119 274.939 580.001 275.39C581.951 275.631 583.921 275.643 585.873 275.424" fill="#18A0B5"/>
<path d="M596.984 272.011C595.157 271.31 593.147 271.31 591.321 272.011C589.598 272.8 587.963 273.78 586.445 274.932C588.37 275.13 590.312 275.053 592.216 274.703C594.092 274.133 595.899 273.346 597.603 272.357" fill="#18A0B5"/>
<path d="M585.496 268.957C584.081 267.577 582.231 266.766 580.284 266.675L576.473 266.709C576.849 267.409 577.366 268.018 577.988 268.497C578.61 268.975 579.324 269.312 580.082 269.485C582.033 269.719 584.003 269.719 585.954 269.485" fill="#18A0B5"/>
<path d="M595.361 267.771C593.534 267.071 591.524 267.071 589.698 267.771C586.957 268.985 586.203 269.332 586.203 269.332C586.814 269.831 587.52 270.191 588.276 270.387C589.032 270.583 589.819 270.611 590.587 270.47C592.474 269.912 594.293 269.132 596.007 268.145" fill="#18A0B5"/>
<path d="M585.799 263.982C584.881 262.21 583.372 260.84 581.55 260.124C578.715 259.174 577.927 258.924 577.927 258.924C578.068 259.713 578.369 260.462 578.811 261.123C579.253 261.783 579.827 262.339 580.493 262.754C582.269 263.618 584.135 264.27 586.055 264.697" fill="#18A0B5"/>
<path d="M595.085 261.991C593.208 261.451 591.205 261.623 589.442 262.477C586.809 263.92 586.075 264.329 586.075 264.329C586.723 264.775 587.456 265.072 588.225 265.203C588.993 265.333 589.78 265.293 590.533 265.086C592.369 264.368 594.12 263.437 595.751 262.31" fill="#18A0B5"/>
<path d="M587.348 259.125C586.812 257.189 585.616 255.516 583.981 254.414C581.409 252.853 580.695 252.429 580.695 252.429C580.665 253.232 580.8 254.031 581.093 254.775C581.385 255.52 581.828 256.191 582.392 256.745C583.956 257.966 585.65 258.997 587.442 259.819" fill="#18A0B5"/>
<path d="M595.65 256.697C593.751 256.251 591.761 256.525 590.041 257.467C587.482 259.042 586.782 259.486 586.782 259.486C587.45 259.897 588.196 260.157 588.969 260.248C589.743 260.339 590.526 260.259 591.267 260.013C593.066 259.201 594.77 258.179 596.344 256.967" fill="#18A0B5"/>
<path d="M588.829 256.024C590.346 254.765 591.373 252.987 591.725 251.014C592.115 247.961 592.209 247.121 592.209 247.121C591.482 247.407 590.822 247.848 590.273 248.416C589.724 248.985 589.298 249.667 589.024 250.417C588.525 252.376 588.245 254.387 588.189 256.412" fill="#18A0B5"/>
<path d="M587.597 302.069C587.522 302.04 587.461 301.983 587.424 301.911C587.387 301.838 587.376 301.754 587.395 301.674C588.398 295.592 588.254 289.367 586.971 283.342C584.843 273.024 585.348 262.088 588.237 256.135C588.28 256.06 588.35 256.004 588.432 255.98C588.514 255.956 588.601 255.964 588.677 256.004C588.753 256.043 588.811 256.111 588.841 256.193C588.87 256.275 588.869 256.366 588.836 256.447C586.014 262.269 585.53 273.024 587.631 283.196C588.93 289.319 589.069 295.642 588.041 301.819C588.032 301.864 588.014 301.907 587.988 301.944C587.963 301.982 587.93 302.014 587.893 302.038C587.855 302.063 587.813 302.079 587.769 302.087C587.725 302.095 587.681 302.093 587.637 302.083L587.597 302.069Z" fill="#18A0B5"/>
<path d="M627.056 315.329C626.147 313.997 621.231 306.774 620.861 306.482C619.21 305.47 617.503 304.557 615.75 303.748C615.447 303.748 609.313 300.904 607.986 300.904C606.66 300.904 601.852 304.484 601.852 304.484L598.074 309.535L592.357 311.617L589.469 315.329H627.056Z" fill="white" stroke="#263238" stroke-linecap="round" stroke-linejoin="round"/>
<path d="M625.137 312.554L621.474 313.941L618.821 313.622C618.821 313.622 614.834 312.783 614.424 312.887C614.013 312.991 612.275 313.733 611.461 313.941C610.646 314.15 606.451 313.518 605.939 313.518C605.427 313.518 600.222 309.626 600.222 309.626L603.185 303.624H603.077C602.357 304.13 601.852 304.505 601.852 304.505L598.074 309.556L592.357 311.638L589.469 315.329H627.056L625.137 312.554Z" fill="#263238" stroke="#263238" stroke-linecap="round" stroke-linejoin="round"/>
<path d="M615.03 315.329C613.629 313.248 606.007 302.062 605.434 301.618C604.862 301.174 597.987 297.379 597.515 297.379C597.044 297.379 587.536 292.973 585.476 292.973C583.415 292.973 575.975 298.524 575.975 298.524L570.137 306.351L561.275 309.535L556.777 315.329H615.03Z" fill="white" stroke="#263238" stroke-linecap="round" stroke-linejoin="round"/>
<path d="M612.06 310.972L606.384 313.123L602.269 312.63C602.269 312.63 596.088 311.326 595.455 311.492C594.822 311.659 592.129 312.797 590.863 313.123C589.597 313.449 583.099 312.471 582.311 312.471C581.523 312.471 573.443 306.434 573.443 306.434L578.035 297.129H577.873C576.756 297.913 575.975 298.517 575.975 298.517L570.137 306.351L561.275 309.535L556.777 315.329H615.03C614.578 314.635 613.414 312.942 612.06 310.972Z" fill="#263238" stroke="#263238" stroke-linecap="round" stroke-linejoin="round"/>
<path d="M326.811 315.267C326.811 315.267 330.568 306.711 330.568 306.094C330.568 305.476 340.85 298.76 340.85 298.76L352.513 300.598C352.513 300.598 359.038 305.691 359.832 305.691C360.627 305.691 365.368 305.893 365.368 305.893L373.448 309.966L376.815 315.267H326.811Z" fill="white" stroke="#263238" stroke-linecap="round" stroke-linejoin="round"/>
<path d="M330.568 306.094C330.568 306.711 326.811 315.267 326.811 315.267H376.835L373.468 309.965L371.684 312.817L357.449 314.045L342.635 310.985L335.901 305.691L340.844 298.752C340.844 298.752 330.568 305.483 330.568 306.094Z" fill="#263238"/>
<path d="M509.615 94.3571C509.615 94.3571 477.368 101.178 472.546 104.411C466.042 108.769 462.446 114.466 465.719 121.835C468.991 129.204 473.846 127.531 473.846 127.531C473.846 127.531 469.941 176.457 473.846 186.844C477.752 197.231 495.636 199.244 502.801 197.252C509.965 195.261 532.718 190.549 534.671 183.506C536.623 176.464 533.034 105.778 531.755 99.0477C530.476 92.3171 522.948 87.3212 509.615 94.3571Z" fill="#263238" stroke="#263238" stroke-linecap="round" stroke-linejoin="round"/>
<path d="M465.719 121.835C468.964 129.211 473.846 127.531 473.846 127.531C473.846 127.531 469.941 176.457 473.846 186.844C477.752 197.231 495.636 199.244 502.801 197.252C509.965 195.261 532.718 190.549 534.671 183.507C535.008 181.653 535.175 179.772 535.169 177.886C528.072 180.828 520.113 184.131 512.235 187.198C489.791 195.906 483.953 184.853 483.28 169.435C482.607 154.017 486.862 117.831 483.953 109.449C481.044 101.067 472.574 104.425 472.574 104.425C466.042 108.769 462.466 114.466 465.719 121.835Z" fill="white" stroke="#263238" stroke-linecap="round" stroke-linejoin="round"/>
<path d="M473.846 127.532C473.846 127.532 481.327 126.838 481.65 118.511C481.973 110.185 477.098 106.785 471.893 110.802C466.688 114.82 468.964 121.21 471.893 121.863C474.822 122.515 478.721 115.833 476.445 114.494C474.169 113.154 472.87 115.833 472.87 117.845" stroke="#263238" stroke-linecap="round" stroke-linejoin="round"/>
<path d="M582.816 70.2102C583.948 67.4694 585.407 64.8845 587.159 62.5151C590.088 58.56 593.381 54.1331 595.118 54.3204C596.856 54.5078 596.398 55.0768 595.024 56.4021C593.65 57.7274 590.984 61.9531 590.984 61.9531C590.984 61.9531 594.27 64.3053 594.458 65.6237C594.647 66.9421 593.543 68.2674 591.624 69.787C590.513 70.6656 589.28 71.3673 587.967 71.8686C587.415 72.1461 585.947 74.5053 585.947 74.5053L583.025 70.7376L582.816 70.2102Z" fill="white" stroke="#263238" stroke-linecap="round" stroke-linejoin="round"/>
<path d="M595.866 63.4519C596.263 63.9762 596.472 64.6257 596.458 65.2907C596.31 66.1303 595.199 68.3438 594.681 67.8858C594.162 67.4278 594.829 65.7487 594.903 65.2144C594.977 64.6801 594.903 62.8413 594.903 62.8413L595.866 63.4519Z" fill="white" stroke="#263238" stroke-linecap="round" stroke-linejoin="round"/>
<path d="M593.421 60.6139C593.421 60.6139 595.792 62.293 595.866 63.4379C595.94 64.5828 594.088 66.9073 593.496 67.2612C592.903 67.6151 592.533 67.2612 592.681 66.5673L593.421 63.0979C593.421 63.0979 592.075 61.2661 592.384 60.5028C592.694 59.7396 593.421 60.6139 593.421 60.6139Z" fill="white" stroke="#263238" stroke-linecap="round" stroke-linejoin="round"/>
<path d="M592.681 59.7742C592.681 59.7742 594.829 61.4534 594.755 62.5497C594.681 63.646 593.125 66.9072 592.459 67.4068C591.792 67.9064 591.267 66.8725 591.489 66.1093C591.711 65.346 592.007 62.9729 592.007 62.9729L591.011 61.9529" fill="white"/>
<path d="M592.681 59.7742C592.681 59.7742 594.829 61.4534 594.755 62.5497C594.681 63.646 593.125 66.9072 592.459 67.4068C591.792 67.9064 591.267 66.8725 591.489 66.1093C591.711 65.346 592.007 62.9729 592.007 62.9729L591.011 61.9529" stroke="#263238" stroke-linecap="round" stroke-linejoin="round"/>
<path d="M587.644 63.7434C589.208 63.379 590.737 62.8752 592.216 62.2377C593.953 61.3911 596.788 60.732 597.064 61.6687C597.34 62.6054 595.415 63.3687 593.772 63.9307C592.129 64.4928 591.752 65.0617 591.119 66.4773C590.486 67.8928 589.381 69.676 587.92 69.8634" fill="white"/>
<path d="M587.644 63.7434C589.208 63.379 590.737 62.8752 592.216 62.2377C593.953 61.3911 596.788 60.732 597.064 61.6687C597.34 62.6054 595.415 63.3687 593.772 63.9307C592.129 64.4928 591.752 65.0617 591.119 66.4773C590.486 67.8928 589.381 69.676 587.92 69.8634" stroke="#263238" stroke-linecap="round" stroke-linejoin="round"/>
<path d="M490.747 169.566C490.747 169.566 488.875 183.09 490 192.568C491.124 202.047 497.629 226.804 496.282 235.131C494.974 244.191 495.127 253.412 496.734 262.421C498.302 270.748 500.552 292.029 500.552 292.029C500.552 292.029 498.08 294.568 498.531 296.886C498.983 299.204 501.669 305.67 501.669 305.67V309.528L514.463 307.294C514.868 305.307 515.17 303.299 515.365 301.278C515.365 299.89 513.79 301.507 515.588 298.274C517.386 295.04 518.732 291.793 517.83 289.482C516.928 287.172 514.019 285.09 514.463 280.691C514.908 276.292 516.712 244.845 517.157 239.752C517.601 234.659 519.635 198.355 519.635 198.355L522.55 196.732C522.55 196.732 526.59 250.854 526.59 257.564C526.59 264.274 527.264 278.609 527.042 281.621C526.819 284.632 524.126 290.87 524.799 291.793C525.473 292.716 527.493 297.58 527.493 297.58C527.493 297.58 527.264 300.813 527.264 303.131C527.378 304.951 527.757 306.742 528.388 308.446L543.202 305.906C543.202 305.906 542.751 300.584 542.307 299.661C541.862 298.739 544.771 296.192 544.771 294.339C544.771 292.487 544.098 290.641 544.098 289.947C544.098 289.253 547.02 283.008 547.242 278.38C547.465 273.752 543.653 240.911 543.653 239.752C543.653 238.593 550.387 210.38 550.387 196.274C550.387 182.167 545.444 165.049 545.444 165.049C545.444 165.049 523.675 171.523 509.534 169.213C495.394 166.902 493.151 166.201 493.151 166.201L490.747 169.566Z" fill="#18A0B5" stroke="#263238" stroke-linecap="round" stroke-linejoin="round"/>
<path d="M545.438 165.049C545.438 165.049 523.668 171.523 509.527 169.213C495.387 166.902 493.145 166.201 493.145 166.201L490.747 169.566C490.747 169.566 490.579 170.802 490.37 172.779C493.582 175.027 504.262 181.106 522.543 178.462C537.687 176.255 544.091 172.009 546.603 169.525C545.929 166.749 545.438 165.049 545.438 165.049Z" fill="#263238" stroke="#263238" stroke-linecap="round" stroke-linejoin="round"/>
<path d="M519.628 176.38L519.399 179.156L526.584 178.233L527.479 174.993L519.628 176.38Z" fill="white" stroke="#263238" stroke-linecap="round" stroke-linejoin="round"/>
<path d="M502.12 180.079V174.528L505.487 174.992V180.544" fill="#616161"/>
<path d="M502.12 180.079V174.528L505.487 174.992V180.544" stroke="#263238" stroke-linecap="round" stroke-linejoin="round"/>
<path d="M540.28 175.687V171.058L542.744 169.442C542.744 169.442 542.973 174.299 542.973 174.993" fill="#616161"/>
<path d="M540.28 175.687V171.058L542.744 169.442C542.744 169.442 542.973 174.299 542.973 174.993" stroke="#263238" stroke-linecap="round" stroke-linejoin="round"/>
<path d="M523.001 180.315L523.224 184.478C523.224 184.478 526.819 184.936 525.917 187.018C525.128 188.698 524.228 190.321 523.224 191.875" stroke="#263238" stroke-linecap="round" stroke-linejoin="round"/>
<path d="M518.503 184.242C518.503 184.242 528.604 182.16 532.644 180.079" stroke="#263238" stroke-linecap="round" stroke-linejoin="round"/>
<path d="M527.486 179.156L527.035 182.396C527.035 182.396 529.277 184.478 528.604 186.095L527.257 189.335" stroke="#263238" stroke-linecap="round" stroke-linejoin="round"/>
<path d="M522.543 196.732L532.644 192.111L523.587 201.464L522.543 196.732Z" fill="#263238" stroke="#263238" stroke-linecap="round" stroke-linejoin="round"/>
<path d="M501.225 180.544C501.225 180.544 497.407 189.099 492.471 191.417" stroke="#263238" stroke-linecap="round" stroke-linejoin="round"/>
<path d="M541.855 175.916C542.137 177.678 542.759 179.363 543.685 180.874C544.61 182.384 545.82 183.687 547.242 184.707" stroke="#263238" stroke-linecap="round" stroke-linejoin="round"/>
<path d="M495.158 210.38H507.056V213.385L496.956 213.85" stroke="#263238" stroke-linecap="round" stroke-linejoin="round"/>
<path d="M507.056 213.385C507.056 215.008 508.854 234.895 506.383 239.523C503.912 244.151 498.754 245.303 497.858 243.221" stroke="#263238" stroke-linecap="round" stroke-linejoin="round"/>
<path d="M548.805 205.523C547.909 205.523 542.522 206.217 542.522 206.217V210.151L547.909 208.528" stroke="#263238" stroke-linecap="round" stroke-linejoin="round"/>
<path d="M542.529 210.151C542.529 210.151 538.489 235.825 539.613 237.442C539.895 237.894 540.303 238.247 540.784 238.454C541.266 238.661 541.797 238.712 542.307 238.6" stroke="#263238" stroke-linecap="round" stroke-linejoin="round"/>
<path d="M531.755 299.197C531.755 299.197 537.815 298.503 539.613 297.809C541.411 297.115 529.062 294.804 529.062 294.804C528.388 294.804 527.944 293.417 528.846 291.793C529.748 290.169 527.048 290.405 526.375 291.564C525.702 292.723 529.742 295.956 528.846 297.115C527.951 298.274 528.395 301.743 529.519 301.278C530.406 300.765 531.17 300.054 531.755 299.197Z" fill="#263238" stroke="#263238" stroke-linecap="round" stroke-linejoin="round"/>
<path d="M510.881 300.12C510.881 300.12 504.821 301.972 502.578 301.743C500.336 301.514 513.797 296.65 513.797 296.65C513.797 296.65 516.941 296.886 510.881 300.12Z" fill="#263238" stroke="#263238" stroke-linecap="round" stroke-linejoin="round"/>
<path d="M541.721 101.414C541.324 101.525 536.496 100.068 533.095 100.207C529.695 100.345 521.722 102.496 521.203 101.823C520.685 101.15 520.799 96.0295 520.799 95.627C520.799 95.2246 522.247 95.0858 525.385 93.0666C528.523 91.0474 530.354 88.2095 529.829 84.178C529.304 80.1466 526.038 68.4201 526.038 68.4201C526.038 68.4201 524.597 66.5328 521.069 66.2621C517.54 65.9915 507.48 70.3074 504.343 72.9997C501.205 75.6919 499.764 77.8568 501.333 81.7495C502.902 85.6421 508.787 94.9331 509.413 97.105C510.039 99.2768 509.676 102.087 508.497 102.899C507.319 103.711 497.259 108.013 496.734 108.45C496.208 108.887 493.077 109.657 491.508 114.91C489.939 120.163 496.734 147.522 497.124 148.722C497.515 149.923 490.458 166.902 490.72 169.594C490.983 172.287 505.622 176.464 517.911 176.061C530.2 175.659 542.529 170.24 544.078 168.352C545.626 166.465 546.428 165.258 545.647 163.238C544.865 161.219 537.566 142.63 537.566 142.63C537.566 142.63 544.758 136.836 544.758 133.2C544.758 129.565 541.391 123.639 541.391 123.639C541.391 123.639 558.42 115.264 567.046 107.458C575.672 99.6515 583.395 80.0425 584.553 77.6209C585.151 76.4447 585.675 75.2302 586.122 73.985L582.856 70.2172C582.856 70.2172 570.702 83.2829 564.292 89.4723C557.881 95.6617 546.3 100.227 541.721 101.414Z" fill="#808080" stroke="#263238" stroke-linecap="round" stroke-linejoin="round"/>
<path d="M556.232 107.881L541.33 123.639L545.774 114.75" stroke="#263238" stroke-linecap="round" stroke-linejoin="round"/>
<path d="M580.857 72.5L585.166 75.9971L580.015 82.0131" stroke="#263238" stroke-linecap="round" stroke-linejoin="round"/>
<path d="M509.42 148.618L519.352 144.094" stroke="#263238" stroke-linecap="round" stroke-linejoin="round"/>
<path d="M522.934 143.921L514.14 147.779" stroke="#263238" stroke-linecap="round" stroke-linejoin="round"/>
<path d="M496.74 108.422C496.74 108.422 502.322 119.018 502.996 128.968C503.669 138.918 492 153.947 492 153.947L495.144 154.405C495.144 154.405 504.794 141.916 506.363 132.666C507.932 123.417 502.322 106.299 502.322 106.299C502.322 106.299 498.356 106.611 496.74 108.422Z" fill="#263238" stroke="#263238" stroke-linecap="round" stroke-linejoin="round"/>
<path d="M497.804 79.5984C497.804 79.5984 493.373 75.9417 490.747 76.2331C488.121 76.5245 484.62 83.5049 486.566 88.0845C488.512 92.6641 492.054 94.9539 495.32 92.2478C498.585 89.5417 499.898 85.649 499.898 83.498C499.898 81.347 497.804 79.5984 497.804 79.5984Z" fill="#263238" stroke="#263238" stroke-linecap="round" stroke-linejoin="round"/>
<path d="M495.717 77.4404C495.717 77.4404 490.094 73.5339 487.347 74.7482C486.58 75.0504 485.895 75.5387 485.35 76.1716C484.805 76.8045 484.416 77.5634 484.216 78.3841" stroke="#263238" stroke-linecap="round" stroke-linejoin="round"/>
<path d="M523.897 118.56C525.082 114.695 523.897 106.514 524.018 101.692C522.503 101.941 521.385 102.059 521.203 101.823C520.678 101.129 520.799 96.0295 520.799 95.627C520.799 95.2246 522.247 95.0858 525.385 93.0666C528.523 91.0474 530.354 88.2095 529.829 84.1781C529.304 80.1466 526.038 68.4201 526.038 68.4201C526.038 68.4201 524.597 66.5328 521.069 66.2622C517.54 65.9915 507.48 70.3005 504.343 72.9997C501.205 75.6989 499.764 77.8568 501.333 81.7495C502.902 85.6421 508.787 94.9332 509.413 97.105C510.039 99.2768 509.676 102.087 508.497 102.899C508.113 103.163 506.767 103.808 505.13 104.564C505.642 106.549 507.581 113.161 511.648 118.254C516.497 124.312 522.328 123.674 523.897 118.56Z" fill="white" stroke="#263238" stroke-linecap="round" stroke-linejoin="round"/>
<path d="M507.999 70.9806C507.999 70.9806 515.406 73.874 518.49 73.3675C521.175 72.7907 523.81 71.9877 526.368 70.9667L526.058 68.4202L507.999 70.9806Z" fill="#263238" stroke="#263238" stroke-linecap="round" stroke-linejoin="round"/>
<path d="M510.484 69.2248C510.921 69.0444 509.958 74.8799 507.743 77.0379C505.528 79.1958 504.08 79.8689 503.555 81.0762C503.029 82.2836 502.774 82.8317 501.986 82.1587C501.198 81.4856 498.201 81.8881 498.201 81.8881L497.023 80.0007C497.023 80.0007 504.208 71.7783 510.484 69.2248Z" fill="#263238" stroke="#263238" stroke-linecap="round" stroke-linejoin="round"/>
<path d="M515.177 76.5801C515.332 77.4197 515.177 78.1552 514.807 78.2246C514.436 78.294 514.046 77.6625 513.891 76.8368C513.736 76.0111 513.891 75.2617 514.261 75.1923C514.631 75.1229 515.029 75.7405 515.177 76.5801Z" fill="#263238"/>
<path d="M523.675 73.749C523.823 74.5886 523.675 75.3311 523.304 75.3935C522.934 75.456 522.543 74.8384 522.389 74.0058C522.234 73.1731 522.389 72.4307 522.759 72.3613C523.129 72.2919 523.527 72.9094 523.675 73.749Z" fill="#263238"/>
<path d="M521.594 72.8608C521.594 72.8608 520.678 75.4212 521.722 75.8237C522.766 76.2261 525.91 78.2523 524.597 79.869C523.284 81.4857 521.23 80.6739 520.678 80.5629C520.126 80.4519 520.678 85.2743 520.678 85.2743C520.678 85.2743 517.54 85.9682 515.581 85.0037C514.194 84.2888 512.881 83.4309 511.662 82.4433" stroke="#263238" stroke-linecap="round" stroke-linejoin="round"/>
<path d="M512.315 82.9636C512.686 84.6888 513.349 86.333 514.275 87.8208C515.716 89.9718 516.497 88.2232 516.759 87.1269C516.91 86.5536 516.998 85.9648 517.022 85.3714C517.022 85.3714 512.84 84.851 512.315 82.9636Z" fill="#263238" stroke="#263238" stroke-linecap="round" stroke-linejoin="round"/>
<path d="M510.484 74.7484C510.732 73.9827 511.142 73.2834 511.684 72.7014C512.227 72.1193 512.889 71.669 513.621 71.3831" fill="#263238"/>
<path d="M510.484 74.7484C510.732 73.9827 511.142 73.2834 511.684 72.7014C512.227 72.1193 512.889 71.669 513.621 71.3831" stroke="#263238" stroke-linecap="round" stroke-linejoin="round"/>
<path d="M504.733 83.6368C504.343 83.6368 501.205 79.869 497.939 81.2151C494.673 82.5613 497.023 88.2163 499.508 88.7576C501.993 89.2988 506.174 86.4678 506.174 86.4678" fill="white"/>
<path d="M504.733 83.6368C504.343 83.6368 501.205 79.869 497.939 81.2151C494.673 82.5613 497.023 88.2163 499.508 88.7576C501.993 89.2988 506.174 86.4678 506.174 86.4678" stroke="#263238" stroke-linecap="round" stroke-linejoin="round"/>
<path d="M497.023 80.0008C497.023 80.0008 505.911 70.4392 515.581 67.0739L525.648 63.6045C525.648 63.6045 523.291 58.8931 521.857 55.5208C520.422 52.1486 507.871 53.7723 503.676 54.9865C499.481 56.2008 494.397 64.5482 493.872 67.3722C493.347 70.1963 497.023 80.0008 497.023 80.0008Z" fill="#18A0B5" stroke="#263238" stroke-linecap="round" stroke-linejoin="round"/>
<path d="M507.999 70.9803C507.999 70.9803 518.591 72.1876 524.994 70.2864C531.398 68.3852 539.896 62.8758 539.371 61.9599C538.846 61.044 525.648 63.5766 525.648 63.5766C525.648 63.5766 510.618 67.3374 507.999 70.9803Z" fill="#18A0B5" stroke="#263238" stroke-linecap="round" stroke-linejoin="round"/>
<path d="M500.956 138.557C500.956 138.557 505.999 137.551 507.467 136.205C508.935 134.859 508.282 130.841 508.282 130.841C508.282 130.841 509.581 128.322 509.096 127.316C508.612 126.31 501.454 128.676 501.454 128.676C502.516 127.763 503.496 126.753 504.383 125.658C505.198 124.485 503.71 123.812 503.245 124.485C502.78 125.158 499.993 128.177 499.339 129.183C498.686 130.189 498.363 134.553 498.363 134.553L495.104 136.899L495.919 140.59L500.956 138.557Z" fill="white" stroke="#263238" stroke-linecap="round" stroke-linejoin="round"/>
<path d="M495.394 109.303C485.637 114.042 475.644 137.294 472.95 142.38C468.526 150.707 475.866 165.278 488.438 152.788C491.915 149.188 495.21 145.406 498.309 141.457L497.191 134.748L489.556 138.911L496.518 131.972" fill="#808080"/>
<path d="M495.394 109.303C485.637 114.042 475.644 137.294 472.95 142.38C468.526 150.707 475.866 165.278 488.438 152.788C491.915 149.188 495.21 145.406 498.309 141.457L497.191 134.748L489.556 138.911L496.518 131.972" stroke="#263238" stroke-linecap="round" stroke-linejoin="round"/>
<path d="M493.825 137.294L494.942 143.768" stroke="#263238" stroke-linecap="round" stroke-linejoin="round"/>
<path d="M489.549 138.911L478.782 142.609" stroke="#263238" stroke-linecap="round" stroke-linejoin="round"/>
<path d="M475.866 142.38C475.866 142.38 481.031 139.14 486.64 139.605" stroke="#263238" stroke-linecap="round" stroke-linejoin="round"/>
<path d="M482.6 137.752C482.6 137.752 486.64 137.294 488.209 139.376" stroke="#263238" stroke-linecap="round" stroke-linejoin="round"/>
<path d="M529.277 100.283L541.33 123.639C541.33 123.639 542.744 121.557 540.502 114.854C538.26 108.151 534.442 100.054 534.442 100.054C534.442 100.054 530.408 99.8248 529.277 100.283Z" fill="#263238" stroke="#263238" stroke-linecap="round" stroke-linejoin="round"/>
<path d="M514.463 307.294C514.463 307.294 511.716 303.471 507.676 305.212C503.635 306.954 501.615 308.571 500.942 311.346C500.269 314.122 500.78 315.329 500.78 315.329H516.268C516.361 313.644 516.248 311.954 515.931 310.299C515.655 309.201 515.155 308.176 514.463 307.294Z" fill="#263238" stroke="#263238" stroke-linecap="round" stroke-linejoin="round"/>
<path d="M516.187 311.86H500.834C500.343 314.254 500.774 315.329 500.774 315.329H516.261C516.313 314.172 516.288 313.013 516.187 311.86Z" fill="white" stroke="#263238" stroke-linecap="round" stroke-linejoin="round"/>
<path d="M528.388 308.446V315.329H555.996C555.996 315.329 555.659 311.686 553.639 310.125C551.619 308.564 543.876 307.523 543.876 307.523L543.202 305.906L528.388 308.446Z" fill="#263238" stroke="#263238" stroke-linecap="round" stroke-linejoin="round"/>
<path d="M555.154 312.207H528.388V315.329H555.996C555.864 314.252 555.581 313.2 555.154 312.207Z" fill="white" stroke="#263238" stroke-linecap="round" stroke-linejoin="round"/>
<path d="M520.799 95.627L515.662 96.1821L520.799 99.249V95.627Z" fill="#263238" stroke="#263238" stroke-linecap="round" stroke-linejoin="round"/>
<path d="M501.003 295.956C501.003 295.956 503.252 294.11 505.043 292.258C506.834 290.405 505.043 291.335 503.696 289.017C502.349 286.7 499.434 280.233 499.434 280.233C499.434 280.233 500.316 291.335 500.552 292.029C500.787 292.723 497.636 295.033 498.983 295.956C500.329 296.879 501.003 295.956 501.003 295.956Z" fill="#263238" stroke="#263238" stroke-linecap="round" stroke-linejoin="round"/>
<path d="M541.182 292.723C541.182 292.723 533.775 288.094 532.428 283.931C531.082 279.768 541.633 288.323 542.078 293.181L541.182 292.723Z" fill="#263238" stroke="#263238" stroke-linecap="round" stroke-linejoin="round"/>
<path d="M394.632 234.888C394.632 234.888 393.622 248.766 394.295 256.051C394.968 263.337 398.672 285.888 398.672 285.888L406.079 286.235C406.079 286.235 408.772 258.133 409.446 251.194C410.119 244.255 410.119 234.194 410.119 234.194L394.632 234.888Z" fill="white" stroke="#263238" stroke-linecap="round" stroke-linejoin="round"/>
<path d="M406.874 277.971L397.446 278.026C398.16 282.543 398.706 285.888 398.706 285.888L406.113 286.235C406.113 286.235 406.409 282.765 406.874 277.971Z" fill="white" stroke="#263238" stroke-linecap="round" stroke-linejoin="round"/>
<path d="M410.065 238.815C410.112 236.428 410.119 234.652 410.119 234.284L409.904 234.208L394.632 234.902C394.632 234.902 394.329 239.065 394.167 244.026L410.065 238.815Z" fill="#263238" stroke="#263238" stroke-linecap="round" stroke-linejoin="round"/>
<path d="M438.481 234.888C438.481 234.888 439.491 248.766 438.818 256.051C438.144 263.337 434.441 285.888 434.441 285.888L427.034 286.235C427.034 286.235 424.34 258.133 423.667 251.194C422.994 244.255 422.994 234.194 422.994 234.194L438.481 234.888Z" fill="white" stroke="#263238" stroke-linecap="round" stroke-linejoin="round"/>
<path d="M426.233 277.86L427.034 286.235L434.441 285.888C434.441 285.888 435.007 282.419 435.734 277.804L426.233 277.86Z" fill="white" stroke="#263238" stroke-linecap="round" stroke-linejoin="round"/>
<path d="M438.481 234.888L422.994 234.194C422.994 234.194 422.994 238.794 423.203 243.908L438.723 238.829C438.596 236.47 438.481 234.888 438.481 234.888Z" fill="#263238" stroke="#263238" stroke-linecap="round" stroke-linejoin="round"/>
<path d="M408.564 281.329L396.524 282.453C396.524 282.453 398.241 299.863 398.241 300.341C398.241 300.82 395.581 304.373 393.864 307.433C392.147 310.493 393.238 315.329 393.238 315.329H409.655C410.594 313.311 411.127 311.119 411.223 308.883C411.223 305.663 409.816 300.501 409.816 299.536C409.816 298.572 408.564 281.329 408.564 281.329Z" fill="#616161" stroke="#263238" stroke-linecap="round" stroke-linejoin="round"/>
<path d="M398.558 306.787C401.056 307.752 406.84 306.787 407.001 305.337C407.163 303.887 405.749 300.827 405.749 300.827L405.601 281.607L399.015 282.224C399.426 287.033 400.557 300.487 400.429 301.146C400.275 301.951 396.053 305.823 398.558 306.787Z" fill="white" stroke="#263238" stroke-linecap="round" stroke-linejoin="round"/>
<path d="M398.086 284.549L406.557 288.934L399.042 292.57L405.971 296.067L399.763 298.288L407.001 299.696L399.11 301.32L407.143 302.326L397.77 304.692H407.001L398.719 302.465L407.143 301.049L399.763 299.974L406.362 297.885L399.5 296.539L405.749 292.286L399.042 288.865L406.059 284.23" stroke="#263238" stroke-linecap="round" stroke-linejoin="round"/>
<path d="M410.873 311.749H392.901C392.888 312.951 393.001 314.152 393.238 315.329H409.655C410.18 314.182 410.588 312.983 410.873 311.749Z" fill="white" stroke="#263238" stroke-linecap="round" stroke-linejoin="round"/>
<path d="M409.654 315.329L410.133 307.939" stroke="#263238" stroke-linecap="round" stroke-linejoin="round"/>
<path d="M393.325 309.847C393.807 309.028 394.454 308.325 395.224 307.787C395.993 307.25 396.866 306.89 397.783 306.732" stroke="#263238" stroke-linecap="round" stroke-linejoin="round"/>
<path d="M406.355 306.559C406.355 306.559 409.21 306.212 409.722 311.492" stroke="#263238" stroke-linecap="round" stroke-linejoin="round"/>
<path d="M424.091 282.072L437.054 282.765C437.054 282.765 436.38 298.725 437.054 300.459C437.727 302.194 439.222 303.387 443.45 304.796C449.174 306.704 452.541 308.265 452.878 310.694C453.08 312.188 453.137 313.699 453.046 315.204H435.875C434.992 314.376 433.963 313.729 432.845 313.296L431.498 312.949V315.204H422.745C422.745 315.204 421.061 310 422.408 306.878C423.755 303.755 425.27 297.684 425.27 295.602C425.27 293.521 424.091 282.072 424.091 282.072Z" fill="#616161" stroke="#263238" stroke-linecap="round" stroke-linejoin="round"/>
<path d="M422.745 315.204H431.498V312.949L432.845 313.296C433.963 313.729 434.992 314.376 435.875 315.204H453.046C453.113 314.106 453.102 313.005 453.012 311.908H422.038C422.184 313.025 422.42 314.128 422.745 315.204Z" fill="white" stroke="#263238" stroke-linecap="round" stroke-linejoin="round"/>
<path d="M442.4 304.997C442.4 304.997 438.198 307.079 438.535 311.665" stroke="#263238" stroke-linecap="round" stroke-linejoin="round"/>
<path d="M423.916 303.7C423.916 303.7 430.468 304.303 430.717 311.839" stroke="#263238" stroke-linecap="round" stroke-linejoin="round"/>
<path d="M442.629 304.512C439.026 303.221 437.68 302.076 437.054 300.459C436.38 298.725 437.054 282.766 437.054 282.766L433.842 282.592C433.895 285.083 434.185 297.24 434.333 300.494C434.502 304.13 440.131 305.601 440.973 305.601C441.33 305.661 441.697 305.583 442.002 305.382C442.308 305.181 442.531 304.871 442.629 304.512Z" fill="white" stroke="#263238" stroke-linecap="round" stroke-linejoin="round"/>
<path d="M437.188 285.687L433.155 285.52L436.939 287.421L433.741 288.809L436.852 289.843L433.66 291.578L436.852 292.966L433.579 294.263L436.771 295.47L434.077 297.032L436.771 298.156L433.909 300.668L437.276 300.758L435.256 303.526L438.03 302.229L437.02 304.394L439.875 303.096L439.208 305.171L441.478 304.13L440.973 305.601" stroke="#263238" stroke-linecap="round" stroke-linejoin="round"/>
<path d="M406.975 93.9823C406.975 93.9823 374.721 100.803 369.899 104.037C363.395 108.394 359.799 114.091 363.071 121.46C366.344 128.829 371.199 127.157 371.199 127.157C371.199 127.157 367.3 176.082 371.199 186.469C375.098 196.857 392.989 198.869 400.153 196.877C407.318 194.886 430.071 190.175 432.017 183.132C433.963 176.089 430.394 105.417 429.094 98.6868C427.795 91.9562 420.307 86.9325 406.975 93.9823Z" fill="#263238" stroke="#263238" stroke-linecap="round" stroke-linejoin="round"/>
<path d="M363.072 121.446C366.324 128.822 371.199 127.143 371.199 127.143C371.199 127.143 367.3 176.068 371.199 186.455C375.098 196.843 392.989 198.855 400.154 196.864C407.318 194.872 430.078 190.161 432.024 183.118C432.364 181.265 432.531 179.383 432.522 177.497C425.425 180.439 417.466 183.742 409.587 186.809C387.151 195.517 381.306 184.464 380.633 169.046C379.959 153.628 384.208 117.442 381.306 109.06C378.404 100.678 369.926 104.037 369.926 104.037C363.415 108.38 359.819 114.105 363.072 121.446Z" fill="white" stroke="#263238" stroke-linecap="round" stroke-linejoin="round"/>
<path d="M371.199 127.143C371.199 127.143 378.68 126.449 379.003 118.122C379.326 109.796 374.451 106.396 369.246 110.413C364.041 114.431 366.324 120.821 369.246 121.474C372.168 122.126 376.081 115.444 373.805 114.105C371.529 112.765 370.222 115.444 370.222 117.456" stroke="#263238" stroke-linecap="round" stroke-linejoin="round"/>
<path d="M390.928 168.97L385.541 237.317L448.837 236.97L438.737 165.847L390.928 168.97Z" fill="white" stroke="#263238" stroke-linecap="round" stroke-linejoin="round"/>
<path d="M390.928 175.041C391.433 175.388 439.747 172.613 439.747 172.613L438.737 168.276L390.928 170.184V175.041Z" fill="#616161" stroke="#263238" stroke-linecap="round" stroke-linejoin="round"/>
<path d="M419.883 236.97V187.704" stroke="#263238" stroke-linecap="round" stroke-linejoin="round"/>
<path d="M419.883 198.113L427.626 192.215L420.186 202.269L419.883 198.113Z" fill="#263238" stroke="#263238" stroke-linecap="round" stroke-linejoin="round"/>
<path d="M389.918 205.051L407.762 205.745V211.296L389.582 210.255" stroke="#263238" stroke-linecap="round" stroke-linejoin="round"/>
<path d="M408.099 213.725L407.089 229.337H388.235L388.572 217.541" stroke="#263238" stroke-linecap="round" stroke-linejoin="round"/>
<path d="M443.787 205.745L433.687 207.48V213.031L443.451 211.643" stroke="#263238" stroke-linecap="round" stroke-linejoin="round"/>
<path d="M433.687 213.031V229.337L446.144 228.99" stroke="#263238" stroke-linecap="round" stroke-linejoin="round"/>
<path d="M418.704 169.49L418.873 173.653L426.28 173.133L426.111 168.796L418.704 169.49Z" fill="white" stroke="#263238" stroke-linecap="round" stroke-linejoin="round"/>
<path d="M433.687 107.215C433.687 107.215 423.586 103.398 416.853 105.133C413.005 106.065 409.355 107.711 406.079 109.99L406.752 170.011L438.737 168.276L433.687 107.215Z" fill="#263238" stroke="#263238" stroke-linecap="round" stroke-linejoin="round"/>
<path d="M437.996 108.089C437.996 108.089 441.915 107.95 445.181 113.203C448.447 118.455 458.648 135.296 460.21 140.819C461.773 146.342 460.21 150.381 458.386 150.915C456.561 151.449 453.807 150.915 453.807 150.915C453.807 150.915 450.44 148.223 447.403 145.364C444.366 142.505 440.737 136.475 440.737 136.475L437.996 108.089Z" fill="#18A0B5" stroke="#263238" stroke-linecap="round" stroke-linejoin="round"/>
<path d="M431.162 127.684L433.801 195.913L449.289 190.133C449.289 190.133 441.43 125.831 439.861 117.505C438.293 109.178 438.286 107.097 434.919 104.321C431.552 101.546 428.637 109.643 428.637 109.643L431.162 127.684Z" fill="#18A0B5" stroke="#263238" stroke-linecap="round" stroke-linejoin="round"/>
<path d="M435.592 115.083C435.592 115.083 440.468 137.53 440.468 138.536C440.468 139.542 445.349 156.633 445.349 156.633L443.067 135.858L437.996 108.103L433.687 107.229L435.592 115.083Z" fill="#263238" stroke="#263238" stroke-linecap="round" stroke-linejoin="round"/>
<path d="M416.516 128.378C416.516 128.378 414.274 178.802 412.927 187.822C411.58 196.843 411.351 197.995 411.351 197.995C411.351 197.995 399.231 194.067 393.622 191.292C388.013 188.516 386.888 187.822 386.888 187.822C386.888 187.822 389.359 166.77 389.804 161.455C390.248 156.14 390.255 144.802 390.255 134.623C390.255 124.444 390.255 113.342 394.517 109.872C398.78 106.403 403.722 106.174 405.742 106.174C407.762 106.174 416.294 115.194 416.516 128.378Z" fill="#18A0B5" stroke="#263238" stroke-linecap="round" stroke-linejoin="round"/>
<path d="M394.942 106.035L408.921 132.146L384.208 167.665L388.76 166.326C388.76 166.326 412.173 135.157 412.826 132.146C413.479 129.134 398.84 105.001 398.84 105.001L394.942 106.035Z" fill="#263238" stroke="#263238" stroke-linecap="round" stroke-linejoin="round"/>
<path d="M412.139 92.2963C412.139 92.2963 403.049 93.5105 400.524 97.3269C397.999 101.143 396.147 104.786 397.999 107.041C401.056 110.449 404.44 113.529 408.099 116.235C411.129 118.317 416.516 128.378 416.516 128.378V116.408C416.516 112.592 413.318 108.429 412.644 104.96C411.971 101.49 417.526 95.9391 421.398 97.6738C425.27 99.4085 428.3 104.613 428.132 107.041C427.963 109.47 428.805 112.419 429.647 116.582C430.488 120.745 431.162 127.684 431.162 127.684C431.162 127.684 436.885 118.317 438.737 111.898C440.589 105.48 439.747 98.8881 432.845 94.5514C425.943 90.2146 412.139 92.2963 412.139 92.2963Z" fill="#18A0B5" stroke="#263238" stroke-linecap="round" stroke-linejoin="round"/>
<path d="M435.821 96.9314C434.923 96.0212 433.924 95.2224 432.845 94.5514C425.943 90.2146 412.139 92.2963 412.139 92.2963C412.139 92.2963 403.049 93.5105 400.524 97.3269C400.227 97.7709 399.945 98.215 399.675 98.6522C399.351 100.989 399.894 103.365 401.197 105.306C404.968 111.496 412.799 114.459 416.503 116.186C416.381 112.426 413.304 108.36 412.644 104.96C411.984 101.56 417.526 95.9391 421.398 97.6738C425.27 99.4085 428.3 104.613 428.132 107.041C427.963 109.47 428.805 112.419 429.647 116.582C429.691 116.822 429.739 117.072 429.788 117.331C430.078 117.047 430.367 116.742 430.657 116.408C434.389 112.193 436.434 106.676 436.38 100.97C436.379 99.6032 436.191 98.2437 435.821 96.9314Z" fill="white" stroke="#263238" stroke-linecap="round" stroke-linejoin="round"/>
<path d="M410.624 85.531C410.624 85.531 411.634 98.0208 411.971 101.49C412.308 104.96 414.159 113.806 419.883 115.541C425.606 117.276 428.973 110.511 428.132 105.48C427.29 100.449 425.775 95.7657 425.775 94.031C425.815 93.2749 425.758 92.5168 425.606 91.7759L410.624 85.531Z" fill="white" stroke="#263238" stroke-linecap="round" stroke-linejoin="round"/>
<path d="M425.606 91.7759L410.624 85.531C410.624 85.531 411.392 95.0371 411.816 99.7624L425.768 93.6979C425.789 93.0529 425.735 92.4076 425.606 91.7759Z" fill="#263238" stroke="#263238" stroke-linecap="round" stroke-linejoin="round"/>
<path d="M395.588 108.713C394.158 108.575 392.717 108.796 391.388 109.358C390.059 109.92 388.882 110.806 387.959 111.94C384.511 115.902 379.737 130.258 377.858 139.549C375.98 148.84 374.141 157.049 377.724 157.049C381.306 157.049 397.083 151.852 397.083 151.852V139.827" fill="#18A0B5"/>
<path d="M395.588 108.713C394.158 108.575 392.717 108.796 391.388 109.358C390.059 109.92 388.882 110.806 387.959 111.94C384.511 115.902 379.737 130.258 377.858 139.549C375.98 148.84 374.141 157.049 377.724 157.049C381.306 157.049 397.083 151.852 397.083 151.852V139.827" stroke="#263238" stroke-linecap="round" stroke-linejoin="round"/>
<path d="M403.702 135.386C404.643 134.177 405.377 132.811 405.87 131.348C406.068 130.626 406.481 129.986 407.052 129.52C407.623 129.054 408.321 128.786 409.048 128.752C410.395 128.614 415.021 127.524 415.284 128.482C415.546 129.439 415.957 130.258 415.553 130.668C415.304 130.938 415.121 131.267 415.021 131.625C415.021 131.625 416.61 136.683 416.213 138.46C415.816 140.236 413.425 141.603 412.099 142.012C410.772 142.422 407.459 142.283 406.927 142.422C406.395 142.561 400.692 145.294 400.692 145.294L400.019 138.869C400.019 138.758 401.938 137.412 402.106 137.246C402.677 136.662 403.21 136.041 403.702 135.386Z" fill="white" stroke="#263238" stroke-linecap="round" stroke-linejoin="round"/>
<path d="M393.534 139.688L382.922 140.784" stroke="#263238" stroke-linecap="round" stroke-linejoin="round"/>
<path d="M401.224 136.135L402.948 152.539L395.521 153.496L393.4 138.869L401.224 136.135Z" fill="white" stroke="#263238" stroke-linecap="round" stroke-linejoin="round"/>
<path d="M447.14 152.4L444.528 139.875L450.413 141.083L447.14 152.4Z" fill="#616161" stroke="#263238" stroke-linecap="round" stroke-linejoin="round"/>
<path d="M446.077 133.984C445.199 132.839 444.516 131.548 444.057 130.168C443.868 129.483 443.475 128.877 442.934 128.435C442.392 127.993 441.73 127.737 441.04 127.705C439.787 127.573 435.39 126.539 435.134 127.448C434.879 128.357 434.508 129.127 434.885 129.53C435.122 129.786 435.295 130.098 435.39 130.439C435.39 130.439 433.882 135.226 434.259 136.912C434.636 138.599 436.899 139.889 438.151 140.278C439.404 140.666 442.548 140.534 443.053 140.659C443.558 140.784 448.952 143.379 448.952 143.379C448.952 143.379 449.578 137.308 449.585 137.294C449.592 137.28 447.76 135.906 447.605 135.761C447.057 135.205 446.546 134.612 446.077 133.984Z" fill="white" stroke="#263238" stroke-linecap="round" stroke-linejoin="round"/>
<path d="M447.666 134.352L447.141 152.4L455.901 151.456L454.857 135.296L447.666 134.352Z" fill="white" stroke="#263238" stroke-linecap="round" stroke-linejoin="round"/>
<path d="M429.155 62.1474C429.155 62.1474 431.848 77.4127 431.848 80.1882C431.848 82.9637 429.404 91.0266 428.259 92.8723C427.115 94.718 421.526 95.8768 419.29 94.9539C417.055 94.0311 410.772 88.0152 409.426 85.4825C408.615 83.9551 408.01 82.321 407.628 80.6254C407.628 80.6254 404.49 82.0131 402.025 78.3148C399.561 74.6164 400.908 71.154 403.372 70.918L405.614 71.6119C405.614 71.6119 401.574 64.4511 402.921 61.2038C404.268 57.9564 420.428 56.8115 423.795 56.8115C427.162 56.8115 429.155 62.1474 429.155 62.1474Z" fill="white" stroke="#263238" stroke-linecap="round" stroke-linejoin="round"/>
<path d="M416.893 65.901L413.318 67.5316C413.197 67.5893 413.089 67.6716 413 67.7735C412.911 67.8754 412.843 67.9948 412.8 68.1245C412.758 68.2543 412.741 68.3916 412.751 68.5282C412.761 68.6648 412.798 68.7979 412.86 68.9194L412.994 69.1623C413.117 69.393 413.323 69.5647 413.567 69.64C413.812 69.7154 414.075 69.6883 414.301 69.5647L417.748 67.6843C417.864 67.6212 417.966 67.5347 418.048 67.4302C418.131 67.3256 418.192 67.205 418.229 67.0756C418.265 66.9462 418.276 66.8105 418.26 66.6767C418.245 66.5429 418.204 66.4136 418.139 66.2965C418.015 66.0841 417.819 65.9262 417.589 65.8532C417.36 65.7802 417.112 65.7972 416.893 65.901Z" fill="#263238" stroke="#263238" stroke-linecap="round" stroke-linejoin="round"/>
<path d="M423.539 65.0963V65.1588C423.511 65.265 423.504 65.3759 423.518 65.485C423.533 65.5941 423.568 65.6991 423.623 65.7936C423.678 65.8882 423.75 65.9704 423.837 66.0354C423.923 66.1004 424.021 66.1468 424.125 66.1718L426.886 66.8102C427.001 66.8373 427.121 66.8373 427.236 66.8101C427.352 66.783 427.459 66.7295 427.552 66.6535C427.644 66.5775 427.719 66.481 427.771 66.3712C427.822 66.2614 427.849 66.1411 427.849 66.0192C427.848 65.8375 427.789 65.6612 427.68 65.518C427.572 65.3748 427.42 65.2728 427.249 65.2282L424.509 64.5343C424.308 64.4785 424.094 64.5062 423.913 64.6113C423.731 64.7163 423.597 64.8905 423.539 65.0963Z" fill="#263238" stroke="#263238" stroke-linecap="round" stroke-linejoin="round"/>
<path d="M430.906 85.2536C430.906 85.2536 430.461 79.987 429.445 79.2307C428.428 78.4744 420.819 79.0781 420.819 79.0781C420.819 79.0781 413.082 76.8229 412.934 78.627C412.826 79.9523 413.169 87.0091 413.493 90.305C415.654 92.4421 418.072 94.4682 419.29 94.954C421.533 95.8768 427.135 94.725 428.259 92.8723C428.933 91.7621 430.091 88.3968 430.906 85.2883V85.2536ZM429.148 86.1556C428.273 89.167 426.374 90.978 425.499 90.5201C424.623 90.0621 423.889 87.2103 423.162 86.9119C422.435 86.6136 421.815 88.1123 420.967 89.4723C420.119 90.8323 417.755 91.2764 416.732 90.3744C415.708 89.4723 414.536 81.1874 414.536 80.1327C414.536 79.078 425.202 80.7364 425.202 80.7364C426.319 80.5937 427.445 80.5426 428.569 80.5838C429.296 80.7364 430.024 83.1442 429.148 86.1556Z" fill="#808080" stroke="#545454" stroke-linecap="round" stroke-linejoin="round"/>
<path d="M416.294 80.8889C416.294 80.8889 420.529 83.9003 425.048 82.8456" stroke="#263238" stroke-linecap="round" stroke-linejoin="round"/>
<path d="M422.724 68.2395C422.724 68.2395 424.745 77.4264 424.913 78.1758C425.081 78.9252 423.452 81.3399 421.701 79.9868C420.755 79.338 420.044 78.3837 419.681 77.2738" fill="white"/>
<path d="M422.724 68.2395C422.724 68.2395 424.745 77.4264 424.913 78.1758C425.081 78.9252 423.452 81.3399 421.701 79.9868C420.755 79.338 420.044 78.3837 419.681 77.2738" stroke="#263238" stroke-linecap="round" stroke-linejoin="round"/>
<path d="M418.166 72.7082C418.401 73.5061 418.307 74.2416 417.964 74.3457C417.62 74.4498 417.142 73.9017 416.907 73.1037C416.671 72.3057 416.758 71.5772 417.109 71.4661C417.459 71.3551 417.957 71.9172 418.166 72.7082Z" fill="#263238"/>
<path d="M426.805 71.473C426.899 72.2987 426.684 73.0065 426.32 73.0481C425.957 73.0898 425.593 72.4583 425.499 71.6604C425.404 70.8624 425.627 70.1269 425.984 70.0853C426.34 70.0436 426.711 70.6473 426.805 71.473Z" fill="#263238"/>
<path d="M402.025 52.211C402.025 52.211 396.194 58.22 398.436 63.3131C400.679 68.4061 406.288 77.8845 406.288 77.8845H407.405L407.183 73.9294C407.183 73.9294 410.772 72.5416 410.099 69.3082C409.711 67.3974 408.948 65.5886 407.857 63.993C407.857 63.993 411.668 66.9975 416.152 66.3037C420.637 65.6098 422.65 60.0588 424.233 61.9184C425.815 63.7779 428.273 64.9228 432.986 62.3763C437.7 59.8298 443.949 47.3608 438.831 43.8984C433.714 40.4359 425.6 47.3678 422.913 48.0616C420.226 48.7555 418.199 44.1343 412.139 45.98C408.338 47.2062 404.873 49.3414 402.025 52.211Z" fill="#263238" stroke="#263238" stroke-linecap="round" stroke-linejoin="round"/>
</svg>
